<?xml version="1.0" ?>
<svg baseProfile="full" height="300" version="1.1" viewBox="[0, 0, 300, 300]" width="300" xmlns="http://www.w3.org/2000/svg" xmlns:ev="http://www.w3.org/2001/xml-events" xmlns:xlink="http://www.w3.org/1999/xlink">
	<defs/>
	<path d="M111,123c-2.42151,0 -2.98672,8.96181 -3,9c-7.08622,20.37287 -18.03338,41.05007 -30,59c-5.80112,8.70167 -14.32007,16.64013 -19,26c-1.58465,3.1693 -11.1693,5.41535 -8,7c14.28458,7.14229 80.5432,6.97462 99,8c9.88112,0.54895 23.54277,2.11431 32,0c2.60718,-0.65179 5.34915,-0.55819 8,-1c1.31519,-0.2192 5.33333,0 4,0c-2.23607,0 -3.43853,-3.80735 -3,-6c2.30273,-11.51364 28.52244,-87.65171 19,-94c-14.95295,-9.96863 -92.30979,-11 -112,-11" fill="none" stroke="black" stroke-linecap="round" stroke-width="5"/>
	<path d="M104,120c0,-23.90557 3.50175,-46.99067 -1,-71c-1.79896,-9.59447 -1.36235,-20.17408 -3,-30c-0.2192,-1.31519 0,-5.33333 0,-4" fill="none" stroke="black" stroke-linecap="round" stroke-width="5"/>
	<path d="M98,16c19.44412,0 37.45898,6.63741 56,11c20.0331,4.71367 41.55815,1.22326 61,9c5.57871,2.23148 21.20004,-0.79996 25,3c1.7694,1.7694 -1.74498,6.97992 -2,8c-2.30499,9.21995 0,16.16085 0,25c0,2.66667 -5.33333,0 -8,0c-10,0 -20,0 -30,0c-22.52784,0 -45.49448,1.07169 -68,0c-6.77969,-0.32284 -14.44614,-1.22307 -18,-3c-0.44137,-0.22069 -13.29334,-2 -11,-2" fill="none" stroke="black" stroke-linecap="round" stroke-width="5"/>
	<path d="M238,56c0,14.79164 -12.77444,31.09774 -16,44c-0.43243,1.72972 1.12143,6.87857 0,8c-6.07355,6.07355 -12,8.953 -12,19" fill="none" stroke="black" stroke-linecap="round" stroke-width="5"/>
	<path d="M206,128c5.87756,0 18.58275,47.14394 21,55c2.61306,8.49243 27,23.84497 27,29" fill="none" stroke="black" stroke-linecap="round" stroke-width="5"/>
	<path d="M182,224c0,2.28235 27.4174,55 0,55" fill="none" stroke="black" stroke-linecap="round" stroke-width="5"/>
	<path d="M55,221c0,9.47247 -3.53396,51 -13,51" fill="none" stroke="black" stroke-linecap="round" stroke-width="5"/>
	<path d="M99,48c6.50202,0 47,-4 47,-4c0,0 -5.42592,-0.22778 -8,-1c-8.64813,-2.59444 -59.895,-6 -52,-6" fill="none" stroke="black" stroke-linecap="round" stroke-width="5"/>
	<path d="M235,48c-2.76535,0 -77.82537,8 -44,8c11.90027,0 25.57593,5 39,5" fill="none" stroke="black" stroke-linecap="round" stroke-width="5"/>
</svg>
