<?xml version="1.0" ?>
<svg baseProfile="full" height="300" version="1.1" viewBox="[0, 0, 300, 300]" width="300" xmlns="http://www.w3.org/2000/svg" xmlns:ev="http://www.w3.org/2001/xml-events" xmlns:xlink="http://www.w3.org/1999/xlink">
	<defs/>
	<path d="M111,123c-2.42151,0 -2.98672,8.96181 -3,9c-7.08622,20.37287 -18.03338,41.05007 -30,59c-5.80112,8.70167 -14.32007,16.64013 -19,26c-1.58465,3.1693 -11.1693,5.41535 -8,7c14.28458,7.14229 80.5432,6.97462 99,8c9.88112,0.54895 23.54277,2.11431 32,0c2.60718,-0.65179 5.34915,-0.55819 8,-1c1.31519,-0.2192 5.33333,0 4,0c-2.23607,0 -3.43853,-3.80735 -3,-6c2.30273,-11.51364 28.52244,-87.65171 19,-94c-14.95295,-9.96863 -92.30979,-11 -112,-11" fill="none" stroke="black" stroke-linecap="round" stroke-width="5"/>
	<path d="M104,120c0,-23.90557 3.50175,-46.99067 -1,-71c-1.79896,-9.59447 -1.36235,-20.17408 -3,-30c-0.2192,-1.31519 0,-5.33333 0,-4" fill="none" stroke="black" stroke-linecap="round" stroke-width="5"/>
	<path d="M98,16c19.44412,0 37.45898,6.63741 56,11c20.0331,4.71367 41.55815,1.22326 61,9c5.57871,2.23148 21.20004,-0.79996 25,3c1.7694,1.7694 -1.74498,6.97992 -2,8c-2.30499,9.21995 0,16.16085 0,25c0,2.66667 -5.33333,0 -8,0c-10,0 -20,0 -30,0c-22.52784,0 -45.49448,1.07169 -68,0c-6.77969,-0.32284 -14.44614,-1.22307 -18,-3c-0.44137,-0.22069 -13.29334,-2 -11,-2" fill="none" stroke="black" stroke-linecap="round" stroke-width="5"/>
	<path d="M238,56c0,14.79164 -12.77444,31.09774 -16,44c-0.43243,1.72972 1.12143,6.87857 0,8c-6.07355,6.07355 -12,8.953 -12,19" fill="none" stroke="black" stroke-linecap="round" stroke-width="5"/>
	<path d="M182,224c0,2.28235 27.4174,55 0,55" fill="none" stroke="black" stroke-linecap="round" stroke-width="5"/>
	<path d="M55,221c0,9.47247 -3.53396,51 -13,51" fill="none" stroke="black" stroke-linecap="round" stroke-width="5"/>
	<path d="M126,56c18.81957,0 36.8809,4 56,4c5.33333,0 16,0 16,0c0,0 -2.66667,0 -4,0c-24.97953,0 -51.22799,4.12867 -76,0c-1.97279,-0.3288 4.00226,0.09513 6,0c5.00543,-0.23835 9.99032,-0.88072 15,-1c8.84951,-0.2107 69,0 69,0c0,0 -3.3062,0.85885 -5,1c-6.98372,0.58198 -13.9938,0.84431 -21,1c-7.99803,0.17773 -16,0 -24,0c-8,0 -16.0051,0.28553 -24,0c-1.37349,-0.04905 -4.97183,-0.02817 -4,-1c9.59721,-9.59721 46.72697,-4 60,-4c1,0 -2.02986,-0.24254 -3,0c-3.06786,0.76696 -5.85706,2.65078 -9,3c-8.94495,0.99388 -18,0 -27,0c-0.33333,0 -1.33333,0 -1,0c14,0 28,0 42,0c3.94969,0 -28,-1.08476 -28,1c0,2.33333 4.66667,0 7,0c8,0 16,0 24,0c1,0 -2,0 -3,0c-4.66667,0 -9.33333,0 -14,0c-3,0 6.00584,0.18713 9,0c8.00812,-0.50051 19.6791,-0.33955 27,-4c0.89443,-0.44721 -2,0 -3,0c-3,0 -6,0 -9,0c-6.66667,0 -13.33333,0 -20,0c-4.01386,0 -15.7722,0.37171 -12,-1c14.79818,-5.38116 34.44814,-1.22407 48,-8c4.77959,-2.38979 -10.68894,0.40988 -16,1c-15.97872,1.77541 -29.99888,3 -46,3c-5.3522,0 13.05676,3.1773 36,-6c0.30949,-0.1238 -0.66667,0 -1,0c-9.33333,0 -18.66667,0 -28,0c-1,0 2.00254,0.07125 3,0c7.61093,-0.54364 11.27856,-0.65571 18,-2c1.96116,-0.39223 -4,0 -6,0" fill="none" stroke="black" stroke-linecap="round" stroke-width="5"/>
	<path d="M99,48c6.50202,0 47,-4 47,-4c0,0 -5.42592,-0.22778 -8,-1c-8.64813,-2.59444 -59.895,-6 -52,-6" fill="none" stroke="black" stroke-linecap="round" stroke-width="5"/>
	<path d="M235,48c-2.76535,0 -77.82537,8 -44,8c11.90027,0 25.57593,5 39,5" fill="none" stroke="black" stroke-linecap="round" stroke-width="5"/>
</svg>
