<?xml version="1.0" ?>
<svg baseProfile="full" height="300" version="1.1" viewBox="[0, 0, 300, 300]" width="300" xmlns="http://www.w3.org/2000/svg" xmlns:ev="http://www.w3.org/2001/xml-events" xmlns:xlink="http://www.w3.org/1999/xlink">
	<defs/>
	<path d="M152,63c0,14.52875 -26,22.99156 -26,40" fill="none" stroke="black" stroke-linecap="round" stroke-width="5"/>
	<path d="M152,63c0,0.74536 1.33333,0.66667 2,1c11.51702,5.75851 26.78264,14.78264 36,24c6.16671,6.16671 27.3002,31 34,31c0.66667,0 1.33333,0 2,0" fill="none" stroke="black" stroke-linecap="round" stroke-width="5"/>
	<path d="M222,119c0,3.58303 -9.84474,12.92106 -12,16c-1.85513,2.65019 -5.85528,10.28422 -8,12c-7.73312,6.1865 -56.36784,-30.27588 -68,-39" fill="none" stroke="black" stroke-linecap="round" stroke-width="5"/>
	<path d="M147,125c0,-5.15187 -7.88819,-10.44409 -13,-13c-0.35556,-0.17778 0,-4 0,-4c0,0 0.26667,3.91111 0,4c-1.89737,0.63246 -4.28501,-1.02899 -6,0c-7.69558,4.61735 -13.09198,14.09198 -18,19c-9.81338,9.81338 -31.41874,8.83748 -39,24c-0.87562,1.75125 -2.9967,4 -5,4" fill="none" stroke="black" stroke-linecap="round" stroke-width="5"/>
	<path d="M194,128c23.26792,0 36.12596,22.88664 16,41c-12.07447,10.86702 -28.04626,4.02313 -40,10c-0.21859,0.10929 -8.55841,11.3896 -15,13c-0.97014,0.24254 -2,0 -3,0" fill="none" stroke="black" stroke-linecap="round" stroke-width="5"/>
	<path d="M139,116c0,8.55867 -7.03782,20.92436 -4,27" fill="none" stroke="black" stroke-linecap="round" stroke-width="5"/>
	<path d="M194,139c0,5.74559 -5.86782,18.60346 -8,25c-0.39482,1.18446 -4,11.79784 -4,11" fill="none" stroke="black" stroke-linecap="round" stroke-width="5"/>
	<path d="M131,132c7.36766,0 -7.02459,29.07378 -9,35" fill="none" stroke="black" stroke-linecap="round" stroke-width="5"/>
	<path d="M84,197c-11.08001,0 -27.02559,5.6896 -38,8c-1.63092,0.34335 -5.38675,2.0755 -4,3c15.80872,10.53915 16.09092,49.11365 24,59c5.42274,6.77843 16.22338,8 8,8" fill="none" stroke="black" stroke-linecap="round" stroke-width="5"/>
	<path d="M126,227c0,9.62596 -1.6629,20.84276 2,30c3.69859,9.24649 9.12267,21.46467 14,30c0.16102,0.28178 7.65622,0.08595 8,0c35.41442,-8.85361 30.26433,-17.84289 56,-35c0.39223,-0.26149 1.39223,-0.73851 1,-1c-7.8967,-5.26447 -7.31019,-32 -17,-32" fill="none" stroke="black" stroke-linecap="round" stroke-width="5"/>
	<path d="M78,276c8.1502,0 28.16522,-40.37173 32,-49c0.55719,-1.25368 15.05399,0 16,0" fill="none" stroke="black" stroke-linecap="round" stroke-width="5"/>
</svg>
