<?xml version="1.0" ?>
<svg baseProfile="full" height="300" version="1.1" viewBox="[0, 0, 300, 300]" width="300" xmlns="http://www.w3.org/2000/svg" xmlns:ev="http://www.w3.org/2001/xml-events" xmlns:xlink="http://www.w3.org/1999/xlink">
	<defs/>
	<path d="M172,109c0,26.17801 -15.66441,42.88814 -40,51c-10.67967,3.55989 -38.81091,-4.43272 -32,16c1.44465,4.33396 2.83549,7 8,7c34.15308,0 12,-24.24756 12,-13" fill="none" stroke="black" stroke-linecap="round" stroke-width="5"/>
	<path d="M178,111c0,52.00743 13.6463,91 -58,91" fill="none" stroke="black" stroke-linecap="round" stroke-width="5"/>
	<path d="M174,115c0,38.33213 9.4358,76.96498 14,115c1.68971,14.0809 0.83223,27.98678 2,42c0.3015,3.61799 9,22.96041 9,18" fill="none" stroke="black" stroke-linecap="round" stroke-width="5"/>
	<path d="M121,172c0,26.74392 5.35982,58.67916 11,85c1.38165,6.4477 14,30.43811 14,33" fill="none" stroke="black" stroke-linecap="round" stroke-width="5"/>
	<path d="M120,218c-29.10119,-9.7004 -65.90567,-28 -96,-28" fill="none" stroke="black" stroke-linecap="round" stroke-width="5"/>
	<path d="M32,171c16.12525,32.25049 3.71986,78.41256 10,114c2.53205,14.34828 17.79998,33.40004 28,13" fill="none" stroke="black" stroke-linecap="round" stroke-width="5"/>
	<path d="M84,134c16.25122,0 62.16639,-49.66721 83,-8" fill="none" stroke="black" stroke-linecap="round" stroke-width="5"/>
</svg>
