<?xml version="1.0" ?>
<svg baseProfile="full" height="300" version="1.1" viewBox="[0, 0, 300, 300]" width="300" xmlns="http://www.w3.org/2000/svg" xmlns:ev="http://www.w3.org/2001/xml-events" xmlns:xlink="http://www.w3.org/1999/xlink">
	<defs/>
	<path d="M92,74c0,8.95439 -4.80256,33.06581 7,37c2.56398,0.85466 7.64209,1.84281 10,2c2.99336,0.19956 6,0 9,0c0.40561,0 51.71715,3.28285 53,2c0.55306,-0.55306 2.72604,-6.90415 3,-8c0.85004,-3.40015 5.26234,-21.73766 2,-25c-12.8554,-12.8554 -47.36355,-7.21215 -63,-2c-4.8686,1.62287 -29,2.81496 -29,-2" fill="none" stroke="black" stroke-linecap="round" stroke-width="5"/>
	<path d="M93,78c14.50024,-14.50024 32.06068,-2.97977 50,3c10.99762,3.66587 22.90848,-3 33,-3" fill="none" stroke="black" stroke-linecap="round" stroke-width="5"/>
	<path d="M175,83c0,2.03162 -0.69362,23.69362 -2,25c-17.52043,17.52043 -46.107,23.107 -65,42c-1.80134,1.80134 -4.50709,5 -7,5" fill="none" stroke="black" stroke-linecap="round" stroke-width="5"/>
	<path d="M89,100c-6.05639,6.05639 -74,30.91808 -74,45" fill="none" stroke="black" stroke-linecap="round" stroke-width="5"/>
	<path d="M174,111c0,5.62917 -1.64398,44.35602 -7,39" fill="none" stroke="black" stroke-linecap="round" stroke-width="5"/>
	<path d="M112,113c0,7.30162 3,14.69847 3,22" fill="none" stroke="black" stroke-linecap="round" stroke-width="5"/>
	<path d="M164,147c-3.24625,0 -10.0985,1 -15,1" fill="none" stroke="black" stroke-linecap="round" stroke-width="5"/>
</svg>
