<?xml version="1.0" ?>
<svg baseProfile="full" height="300" version="1.1" viewBox="[0, 0, 300, 300]" width="300" xmlns="http://www.w3.org/2000/svg" xmlns:ev="http://www.w3.org/2001/xml-events" xmlns:xlink="http://www.w3.org/1999/xlink">
	<defs/>
	<path d="M133,35c0,6.5514 2.30014,14.09959 0,21c-0.91641,2.74923 -3.40901,5.61352 -5,8c-0.78446,1.1767 -4.41421,3 -3,3c22.93562,0 45.7692,-2 69,-2c5.14717,0 24.37587,9.62413 26,8c5.03874,-5.03874 -2.82852,-13.9711 -4,-21c-0.30784,-1.84704 1.37346,-10.62654 0,-12c-0.2357,-0.2357 -0.66667,0 -1,0c-28.7634,0 -55.73689,-5 -85,-5" fill="none" stroke="black" stroke-linecap="round" stroke-width="5"/>
	<path d="M151,66c-9.52266,9.52266 -3.83594,40.01561 -6,53c-0.64237,3.85422 -3,22.10769 -3,19" fill="none" stroke="black" stroke-linecap="round" stroke-width="5"/>
	<path d="M207,72c0,9.79161 4.27323,60.15118 0,63c-3.36197,2.24132 -12.52204,2.10441 -17,3c-27.76907,5.55381 -53.52318,-22.49227 -79,-14c-10.20183,3.40061 -19.79547,14.79547 -27,22c-3.15399,3.15399 -21,10.84527 -21,15c0,4.99491 11.5293,13.02512 15,16c7.94097,6.80654 12.53205,18.53205 19,25c6.15815,6.15815 28.24581,6.44916 36,8c7.23639,1.44728 14.92936,8 22,8c1.05409,0 0.5286,-2.05719 1,-3c5.32837,-10.65673 7.29521,-22.4054 13,-33c5.06924,-9.41429 10.6926,-18.71205 16,-28c0.83201,-1.45601 11.31185,-14.68815 11,-15c-0.74536,-0.74536 -1.98646,0.71042 -3,1c-12.63754,3.61072 -25.00706,6.07512 -38,8c-5.87069,0.86973 -46.88844,2.88844 -49,5c-3.65908,3.65908 9.97189,-2.77695 15,-4c10.81033,-2.62954 21.9679,-3.56103 33,-5c4.40987,-0.5752 17.43955,-3.26115 13,-3c-50.79533,2.98796 -99.6317,13.28423 -150,20c-1.36231,0.18164 2.68641,-0.59582 4,-1c3.02244,-0.92998 6.11439,-1.70645 9,-3c6.80144,-3.04892 13.21453,-6.91569 20,-10c6.53663,-2.9712 14.92282,-13.07718 20,-8c1.85067,1.85067 -1.23186,8.21018 1,11c4.70047,5.87558 69.43993,-2 37,-2" fill="none" stroke="black" stroke-linecap="round" stroke-width="5"/>
	<path d="M201,141c0,32.33903 10.19849,66.79395 18,98c0.84498,3.37993 2.82358,5 -2,5" fill="none" stroke="black" stroke-linecap="round" stroke-width="5"/>
	<path d="M78,170c0,21.66312 -10.47313,43.52162 -13,65c-0.72551,6.1668 -4.82255,36.46764 -3,31" fill="none" stroke="black" stroke-linecap="round" stroke-width="5"/>
</svg>
