<?xml version="1.0" ?>
<svg baseProfile="full" height="300" version="1.1" viewBox="[0, 0, 300, 300]" width="300" xmlns="http://www.w3.org/2000/svg" xmlns:ev="http://www.w3.org/2001/xml-events" xmlns:xlink="http://www.w3.org/1999/xlink">
	<defs/>
	<path d="M169,100c-33.81826,0 -71.62065,10.86196 -84,48c-6.5589,19.67669 -0.92078,43.60388 -5,64c-0.37881,1.89403 0.79149,4 -2,4" fill="none" stroke="black" stroke-linecap="round" stroke-width="5"/>
	<path d="M247,121c0,25.08391 -2.53283,49.67173 0,75c0.54378,5.4378 6.36988,41.47954 3,28" fill="none" stroke="black" stroke-linecap="round" stroke-width="5"/>
	<path d="M244,113c9.24854,0 11.27021,-27.30639 7,-33c-25.4589,-33.9452 -62.63502,-11.72996 -78,19c-2.40372,4.80745 2.57416,5.57177 6,6c22.41318,2.80165 42.19801,13 66,13" fill="none" stroke="black" stroke-linecap="round" stroke-width="5"/>
	<path d="M168,108c0,9.7954 2.88679,38.11321 -4,45c-5.06062,5.06062 -28.93291,6.78658 -35,8c-10.78143,2.15629 -21.42809,4.97946 -32,8c-3.8543,1.10123 -8.22101,2.4884 -12,4c-1.38409,0.55364 -5.49071,2 -4,2c28.86301,0 63.91352,5.04324 90,-8c5.98219,-2.9911 -10,-16 -10,-16c0,0 8.7044,0.33914 13,1c14.49116,2.22941 52.83153,4.41577 64,10c2.25297,1.12648 -3.59004,5 -5,5c-3.48821,0 -13.57105,2.11421 -18,3c-5.75197,1.15039 -11.16514,2 -17,2c-11.7095,0 -22.59249,-2 -34,-2" fill="none" stroke="black" stroke-linecap="round" stroke-width="5"/>
</svg>
