<?xml version="1.0" ?>
<svg baseProfile="full" height="300" version="1.1" viewBox="[0, 0, 300, 300]" width="300" xmlns="http://www.w3.org/2000/svg" xmlns:ev="http://www.w3.org/2001/xml-events" xmlns:xlink="http://www.w3.org/1999/xlink">
	<defs/>
	<path d="M93,78c14.50024,-14.50024 32.06068,-2.97977 50,3c10.99762,3.66587 22.90848,-3 33,-3" fill="none" stroke="black" stroke-linecap="round" stroke-width="5"/>
	<path d="M175,83c0,2.03162 -0.69362,23.69362 -2,25c-17.52043,17.52043 -46.107,23.107 -65,42c-1.80134,1.80134 -4.50709,5 -7,5" fill="none" stroke="black" stroke-linecap="round" stroke-width="5"/>
	<path d="M89,100c-6.05639,6.05639 -74,30.91808 -74,45" fill="none" stroke="black" stroke-linecap="round" stroke-width="5"/>
	<path d="M174,111c0,5.62917 -1.64398,44.35602 -7,39" fill="none" stroke="black" stroke-linecap="round" stroke-width="5"/>
	<path d="M112,113c0,7.30162 3,14.69847 3,22" fill="none" stroke="black" stroke-linecap="round" stroke-width="5"/>
	<path d="M164,147c-3.24625,0 -10.0985,1 -15,1" fill="none" stroke="black" stroke-linecap="round" stroke-width="5"/>
	<path d="M113,133c14.10837,14.10837 46.28757,13.28757 59,26c1.76599,1.76599 -1.54689,3.77344 -2,4c-12.94688,6.47344 -33.60058,27.20116 -40,40c-1.59084,3.18169 -38.13053,-1.03263 -46,-3c-8.34351,-2.08588 -18.01898,-9.01898 -23,-14c-0.26471,-0.26471 0,-2.58824 0,-3c0,-1.49071 0.80743,-3.10557 2,-4c16.29901,-12.22426 40.50378,-18.75189 59,-28c3.3282,-1.6641 6.75672,-3.12164 3,-5c-0.42164,-0.21082 -0.53501,-0.9225 -1,-1c-6.21125,-1.03521 -16.86648,-1.53338 -23,0c-1.10297,0.27574 -32.70301,34.40602 -33,35c-0.21082,0.42164 -0.88567,0.54267 -1,1c-2.50639,10.02554 -2.6574,29.02779 1,40c1.90968,5.72904 -2.59513,18.40487 2,23c21.66258,21.66258 63.23012,-26.92329 90,-18c4.44985,1.48328 10.03748,13.04998 13,17c1.87637,2.50183 10.41544,13.58456 8,16c-7.49464,7.49464 -39.50067,7 -50,7c-0.61024,0 -3.61036,0.38964 -4,0c-4.8218,-4.8218 -2.91388,-13.02632 -4,-19c-1.23236,-6.77795 -6.51563,-17.45312 -4,-25c2.56137,-7.6841 11,-17.14383 11,-24" fill="none" stroke="black" stroke-linecap="round" stroke-width="5"/>
</svg>
