<?xml version="1.0" ?>
<svg baseProfile="full" height="300" version="1.1" viewBox="[0, 0, 300, 300]" width="300" xmlns="http://www.w3.org/2000/svg" xmlns:ev="http://www.w3.org/2001/xml-events" xmlns:xlink="http://www.w3.org/1999/xlink">
	<defs/>
	<path d="M133,35c0,6.5514 2.30014,14.09959 0,21c-0.91641,2.74923 -3.40901,5.61352 -5,8c-0.78446,1.1767 -4.41421,3 -3,3c22.93562,0 45.7692,-2 69,-2c5.14717,0 24.37587,9.62413 26,8c5.03874,-5.03874 -2.82852,-13.9711 -4,-21c-0.30784,-1.84704 1.37346,-10.62654 0,-12c-0.2357,-0.2357 -0.66667,0 -1,0c-28.7634,0 -55.73689,-5 -85,-5" fill="none" stroke="black" stroke-linecap="round" stroke-width="5"/>
	<path d="M151,66c-9.52266,9.52266 -3.83594,40.01561 -6,53c-0.64237,3.85422 -3,22.10769 -3,19" fill="none" stroke="black" stroke-linecap="round" stroke-width="5"/>
	<path d="M201,141c0,32.33903 10.19849,66.79395 18,98c0.84498,3.37993 2.82358,5 -2,5" fill="none" stroke="black" stroke-linecap="round" stroke-width="5"/>
	<path d="M78,170c0,21.66312 -10.47313,43.52162 -13,65c-0.72551,6.1668 -4.82255,36.46764 -3,31" fill="none" stroke="black" stroke-linecap="round" stroke-width="5"/>
	<path d="M127,210c3.15422,3.15422 21.07601,59.15202 19,55" fill="none" stroke="black" stroke-linecap="round" stroke-width="5"/>
</svg>
