<?xml version="1.0" ?>
<svg baseProfile="full" height="300" version="1.1" viewBox="[0, 0, 300, 300]" width="300" xmlns="http://www.w3.org/2000/svg" xmlns:ev="http://www.w3.org/2001/xml-events" xmlns:xlink="http://www.w3.org/1999/xlink">
	<defs/>
	<path d="M64,91c31.62571,0 81.72311,-49.27689 111,-20c4.40715,4.40715 10.76391,5.29174 13,12c11.98796,35.96388 -65,63.04343 -65,70" fill="none" stroke="black" stroke-linecap="round" stroke-width="5"/>
	<path d="M124,150c3.28295,0 3.20377,5.81507 4,9c4.90275,19.611 3.80771,50.34603 1,70c-1.07645,7.53513 -1.69868,0.36974 -4,-5" fill="none" stroke="black" stroke-linecap="round" stroke-width="5"/>
	<path d="M69,95c0,24.80322 -4.10481,51.1615 -1,76c0.91978,7.35823 5,16.24774 5,23c0,4.34613 1,17.34613 1,13" fill="none" stroke="black" stroke-linecap="round" stroke-width="5"/>
	<path d="M69,132c11.26617,11.26617 26.50478,16.12779 40,24c5.4299,3.16744 9.20856,7.12513 14,10c1.42915,0.85749 2.82149,4.17851 4,3c1.10268,-1.10268 2,-7.53885 2,-9" fill="none" stroke="black" stroke-linecap="round" stroke-width="5"/>
	<path d="M71,124c0,0.8891 23.9219,-7.34376 26,-8c14.189,-4.48074 75,-33.76916 75,0" fill="none" stroke="black" stroke-linecap="round" stroke-width="5"/>
	<path d="M186,80c26.90266,26.90266 14.45181,63.02754 -17,81c-11.86596,6.78055 -23.24348,15.12174 -35,21c-1.13532,0.56766 -4,2.38565 -4,0" fill="none" stroke="black" stroke-linecap="round" stroke-width="5"/>
	<path d="M190,140c0,18.75271 1.45025,37.40299 3,56c0.55029,6.60349 0.27057,13.43509 1,20c0.25227,2.27042 2,11.11283 2,10" fill="none" stroke="black" stroke-linecap="round" stroke-width="5"/>
	<path d="M95,102c0,2.16398 0.70127,17 5,17" fill="none" stroke="black" stroke-linecap="round" stroke-width="5"/>
	<path d="M111,94c1.01157,1.01157 9,13.71978 9,16" fill="none" stroke="black" stroke-linecap="round" stroke-width="5"/>
	<path d="M132,59c3.57305,0 2.74668,8.18003 4,11c1.97845,4.45152 9,14.03325 9,19" fill="none" stroke="black" stroke-linecap="round" stroke-width="5"/>
	<path d="M111,72c0,10.62082 3,20.73313 3,31c0,5.92308 -0.15275,11.23627 1,17c0.06537,0.32686 0.10541,1.31623 0,1c-0.56765,-1.70294 -0.7307,-3.7307 -2,-5" fill="none" stroke="black" stroke-linecap="round" stroke-width="5"/>
	<path d="M89,89c0,5.96408 -3.75602,17.24398 1,22" fill="none" stroke="black" stroke-linecap="round" stroke-width="5"/>
	<path d="M172,118c2.18646,4.37292 7,13.21536 7,18" fill="none" stroke="black" stroke-linecap="round" stroke-width="5"/>
	<path d="M158,59c0,16.36912 -11,33.96267 -11,52" fill="none" stroke="black" stroke-linecap="round" stroke-width="5"/>
	<path d="M170,75c0,10.99093 1,21.93371 1,33" fill="none" stroke="black" stroke-linecap="round" stroke-width="5"/>
	<path d="M191,89c2.56101,12.80504 8.29923,30.10231 4,43" fill="none" stroke="black" stroke-linecap="round" stroke-width="5"/>
</svg>
