<?xml version="1.0" ?>
<svg baseProfile="full" height="300" version="1.1" viewBox="[0, 0, 300, 300]" width="300" xmlns="http://www.w3.org/2000/svg" xmlns:ev="http://www.w3.org/2001/xml-events" xmlns:xlink="http://www.w3.org/1999/xlink">
	<defs/>
	<path d="M83,64c-4.78045,9.56089 0.07247,32.92753 -7,40" fill="none" stroke="black" stroke-linecap="round" stroke-width="5"/>
	<path d="M84,62c39.34769,0 77.77069,13 116,13" fill="none" stroke="black" stroke-linecap="round" stroke-width="5"/>
	<path d="M80,102c0,-2.14557 25.12478,-2 30,-2c27.17482,0 57.8186,3.60232 85,7c2.90473,0.36309 27,-1.79016 27,2" fill="none" stroke="black" stroke-linecap="round" stroke-width="5"/>
	<path d="M194,73c7.32499,0 49.12714,2.12714 52,5c3.53756,3.53756 -3.45389,15.90778 -5,19c-2.5802,5.1604 -10.77746,6.77746 -14,10" fill="none" stroke="black" stroke-linecap="round" stroke-width="5"/>
	<path d="M225,103c0,19.85398 -6.69159,33.38318 -15,50c-3.57627,7.15254 -2,29.85803 -2,37" fill="none" stroke="black" stroke-linecap="round" stroke-width="5"/>
	<path d="M85,98c0,17.8861 -5.27362,35.811 -3,54c1.36046,10.88365 5,23.19256 5,34" fill="none" stroke="black" stroke-linecap="round" stroke-width="5"/>
	<path d="M74,181c35.3787,0 78.58604,-7.60349 113,1c2.55587,0.63897 30,2.35934 30,3" fill="none" stroke="black" stroke-linecap="round" stroke-width="5"/>
	<path d="M74,181c0,12.4489 0.19201,33.80799 -9,43" fill="none" stroke="black" stroke-linecap="round" stroke-width="5"/>
	<path d="M73,221c19.8133,0 40.17238,-4.20307 60,-2c14.66152,1.62906 28.57737,5 43,5" fill="none" stroke="black" stroke-linecap="round" stroke-width="5"/>
	<path d="M211,192c0,16.60036 1,32.51129 1,49c0,5.70539 -4.73183,15.53635 -2,21c0.49592,0.99183 4.57516,1.84969 5,1c8.83402,-17.66805 -4,-48.90758 -4,-68" fill="none" stroke="black" stroke-linecap="round" stroke-width="5"/>
	<path d="M176,222c0,11.52912 34.52152,-10.01435 39,-13" fill="none" stroke="black" stroke-linecap="round" stroke-width="5"/>
	<path d="M180,226c0,14.09987 11,28.94221 11,45c0,0.77938 1,6 1,6c0,0 -15.49547,-6.24774 -17,-7c-1.78885,-0.89443 -0.28284,-4.0201 0,-6c1.85904,-13.01327 3,-25.7572 3,-39" fill="none" stroke="black" stroke-linecap="round" stroke-width="5"/>
	<path d="M71,228c35.10539,0 70.61423,2 106,2" fill="none" stroke="black" stroke-linecap="round" stroke-width="5"/>
	<path d="M71,220c0,17.0504 -6.63385,39.53539 -11,57c-0.43544,1.74176 1.57261,12.42739 0,14c-0.32728,0.32728 -9.14117,-5.14117 -10,-6c-0.2357,-0.2357 -0.2357,-0.7643 0,-1c3.49025,-3.49025 18,-55.65139 18,-64" fill="none" stroke="black" stroke-linecap="round" stroke-width="5"/>
</svg>
