<?xml version="1.0" ?>
<svg baseProfile="full" height="300" version="1.1" viewBox="[0, 0, 300, 300]" width="300" xmlns="http://www.w3.org/2000/svg" xmlns:ev="http://www.w3.org/2001/xml-events" xmlns:xlink="http://www.w3.org/1999/xlink">
	<defs/>
	<path d="M115,66c0,-25.54162 46.18401,-15.1264 59,-10c11.34103,4.53641 15.32622,20.65243 20,30" fill="none" stroke="black" stroke-linecap="round" stroke-width="5"/>
	<path d="M117,62c-1.52023,3.04047 1.04047,8.47977 -2,10c-13.52995,6.76498 -44.34875,9.86032 -53,25c-5.6876,9.95331 -7.06461,103.87079 -2,114" fill="none" stroke="black" stroke-linecap="round" stroke-width="5"/>
	<path d="M190,84c0,29.23219 -24.55748,21.07664 -41,43c-11.49346,15.32462 -18.41685,74.16629 -9,93" fill="none" stroke="black" stroke-linecap="round" stroke-width="5"/>
	<path d="M110,71c0,5.33586 5.20457,35.93181 5,36c-12.69332,4.23111 -26.06444,6.68815 -39,11c-5.36792,1.78931 -10.08684,2.36228 -15,4c-1.84391,0.61464 -6.73845,2.13077 -5,3c19.31195,9.65598 67.47052,-2.52948 84,14" fill="none" stroke="black" stroke-linecap="round" stroke-width="5"/>
	<path d="M140,139c11.2083,0 20.22331,-8 31,-8c4.26458,0 9.57707,-0.57707 12,-3c3.4398,-3.4398 -3.35237,-5.01428 -6,-7c-16.52155,-12.39116 -40.96911,-11 -61,-11" fill="none" stroke="black" stroke-linecap="round" stroke-width="5"/>
	<path d="M114,76c0,-3.09272 15.03705,7.03705 17,9c2.60146,2.60146 7.67353,22 9,22" fill="none" stroke="black" stroke-linecap="round" stroke-width="5"/>
	<path d="M188,85c0,-3.87377 -3.96857,-5 -8,-5c-15.37626,0 -24,20.48766 -24,34" fill="none" stroke="black" stroke-linecap="round" stroke-width="5"/>
	<path d="M121,117c0,-4.12298 -34.57179,0.42821 -34,1c4.19843,4.19843 28.94412,-2.29608 33,-5c0.27735,-0.1849 1.33333,0 1,0c-0.66667,0 -1.33333,0 -2,0c-1,0 -2,0 -3,0c-3.66667,0 -7.3384,-0.19272 -11,0c-0.43832,0.02307 -29.54082,3.45918 -25,8c0.29863,0.29863 46.58198,0 51,0c7.66742,0 27.03048,13.96952 35,6c1.74434,-1.74434 -2.45219,-2.67131 -3,-3c-10.52304,-6.31383 -23.8574,-8 -36,-8c-3.33333,0 -6.66667,0 -10,0c-1,0 -4,0 -3,0c8.38382,0 29.22289,-2.66566 35,6c0.83915,1.25872 4.77191,7.22809 3,9c-0.70711,0.70711 -2,0 -3,0c-10.32381,0 -69.38309,1.61691 -75,-4c-6.65187,-6.65187 6.32344,-6 9,-6c28.09733,0 55.55298,3 83,3c1.33333,0 3.05719,0.94281 4,0c0.91886,-0.91886 -0.44667,-3.44667 -1,-4c-10.06317,-10.06317 -34,-0.77712 -34,-16" fill="none" stroke="black" stroke-linecap="round" stroke-width="5"/>
	<path d="M147,93c4.28465,4.28465 0.27422,-21.54023 -1,-26c-0.73829,-2.58402 -2.09971,-8.90029 -4,-7c-2.23428,2.23428 -3.32174,25.83913 1,28c1.52023,0.76012 1.43794,-3.35772 1,-5c-2.06029,-7.7261 -5.50986,-21.26479 -10,-28c-0.26149,-0.39223 -0.66667,-1.33333 -1,-1c-3.00384,3.00384 -3.39116,11.73813 -4,16c-1.00604,7.04228 2.79248,-1.20752 0,-4c-0.74536,-0.74536 -1,1.94591 -1,3c0,8.83788 8.26291,-9.17136 14,-2c1.7249,2.15612 8.36839,28.63161 9,28c5.7685,-5.7685 2.10634,-16.0638 12,-22c1.35039,-0.81023 23.00565,-2.99435 17,-9c-4.42397,-4.42397 -46.012,0 -55,0c-1.69967,0 3.38755,-0.46252 5,-1c3.96232,-1.32077 13.95334,-3.04666 11,-6c-0.70479,-0.70479 -9.12234,-0.29255 -10,0c-1.6393,0.54643 -4.25127,3.50254 -5,5c-6.25709,12.51418 12.55847,8 16,8c2.33333,0 0,4.66667 0,7c0,4.86358 3.75862,12.03448 5,17c0.76696,3.06786 3,12.16228 3,9c0,-5.50022 -6.22275,-4.66825 -8,-10c-2.13725,-6.41174 -3.58174,-13.58174 -7,-17c-7.24975,-7.24975 11.87252,-14.87252 14,-17c5.4104,-5.4104 10.1317,-10.57887 20,-4c20.98525,13.99017 -23.7897,17.59871 -27,18c-1.52636,0.1908 -2.19684,-0.60632 -3,1c-3.71998,7.43995 5,16.78143 5,24" fill="none" stroke="black" stroke-linecap="round" stroke-width="5"/>
</svg>
