<?xml version="1.0" ?>
<svg baseProfile="full" height="300" version="1.1" viewBox="[0, 0, 300, 300]" width="300" xmlns="http://www.w3.org/2000/svg" xmlns:ev="http://www.w3.org/2001/xml-events" xmlns:xlink="http://www.w3.org/1999/xlink">
	<defs/>
	<path d="M37,131c22.57136,0 45.00686,-8 67,-8" fill="none" stroke="black" stroke-linecap="round" stroke-width="5"/>
	<path d="M105,123c22.69428,0 6.98658,45.98658 13,52c6.39382,6.39382 81.76636,7.70091 76,25c-4.53043,13.59128 -36.25813,11.65163 -48,14c-16.6355,3.3271 -44.01481,15.66173 -61,10c-7.09705,-2.36568 -14.10956,-12.55478 -21,-16c-3.8028,-1.9014 -12.5321,-4.0642 -14,-7c-1.24666,-2.49333 3.45176,-6.83882 5,-8c11.78007,-8.83505 57.52657,-8.52657 64,-15" fill="none" stroke="black" stroke-linecap="round" stroke-width="5"/>
	<path d="M189,147c-1.91733,0 -1,4.34308 -1,6c0,13.21745 -2,25.53905 -2,39" fill="none" stroke="black" stroke-linecap="round" stroke-width="5"/>
	<path d="M126,221c-36.89266,0 -49.94513,50.02743 -34,58c22.56576,11.28288 48.71809,1.09397 70,-6c9.14732,-3.04911 28.19826,-0.39651 33,-10c8.98658,-17.97316 -25.34166,-18 -35,-18c-7.3181,0 -21.46688,-5.26656 -28,-2c-12.2223,6.11115 -68.59065,30.20468 -83,23c-16.48968,-8.24484 10,-55.92614 10,-61" fill="none" stroke="black" stroke-linecap="round" stroke-width="5"/>
</svg>
