<?xml version="1.0" ?>
<svg baseProfile="full" height="300" version="1.1" viewBox="[0, 0, 300, 300]" width="300" xmlns="http://www.w3.org/2000/svg" xmlns:ev="http://www.w3.org/2001/xml-events" xmlns:xlink="http://www.w3.org/1999/xlink">
	<defs/>
	<path d="M37,131c22.57136,0 45.00686,-8 67,-8" fill="none" stroke="black" stroke-linecap="round" stroke-width="5"/>
	<path d="M95,168c4.72655,0 93.48432,-18.48432 96,-21c4.41425,-4.41425 -0.43297,-12.13406 2,-17c1.73162,-3.46323 7.09823,-27.90177 5,-30c-3.58025,-3.58025 -72.50312,-13.74844 -78,-11c-6.68262,3.34131 -12,31.46967 -12,37c0,0.41176 -0.26471,2.73529 0,3c7.86223,7.86223 68.14628,6.14628 78,16" fill="none" stroke="black" stroke-linecap="round" stroke-width="5"/>
	<path d="M105,123c22.69428,0 6.98658,45.98658 13,52c6.39382,6.39382 81.76636,7.70091 76,25c-4.53043,13.59128 -36.25813,11.65163 -48,14c-16.6355,3.3271 -44.01481,15.66173 -61,10c-7.09705,-2.36568 -14.10956,-12.55478 -21,-16c-3.8028,-1.9014 -12.5321,-4.0642 -14,-7c-1.24666,-2.49333 3.45176,-6.83882 5,-8c11.78007,-8.83505 57.52657,-8.52657 64,-15" fill="none" stroke="black" stroke-linecap="round" stroke-width="5"/>
	<path d="M189,147c-1.91733,0 -1,4.34308 -1,6c0,13.21745 -2,25.53905 -2,39" fill="none" stroke="black" stroke-linecap="round" stroke-width="5"/>
</svg>
