<?xml version="1.0" ?>
<svg baseProfile="full" height="300" version="1.1" viewBox="[0, 0, 300, 300]" width="300" xmlns="http://www.w3.org/2000/svg" xmlns:ev="http://www.w3.org/2001/xml-events" xmlns:xlink="http://www.w3.org/1999/xlink">
	<defs/>
	<path d="M37,131c22.57136,0 45.00686,-8 67,-8" fill="none" stroke="black" stroke-linecap="round" stroke-width="5"/>
	<path d="M95,168c4.72655,0 93.48432,-18.48432 96,-21c4.41425,-4.41425 -0.43297,-12.13406 2,-17c1.73162,-3.46323 7.09823,-27.90177 5,-30c-3.58025,-3.58025 -72.50312,-13.74844 -78,-11c-6.68262,3.34131 -12,31.46967 -12,37c0,0.41176 -0.26471,2.73529 0,3c7.86223,7.86223 68.14628,6.14628 78,16" fill="none" stroke="black" stroke-linecap="round" stroke-width="5"/>
	<path d="M189,147c-1.91733,0 -1,4.34308 -1,6c0,13.21745 -2,25.53905 -2,39" fill="none" stroke="black" stroke-linecap="round" stroke-width="5"/>
	<path d="M126,221c-36.89266,0 -49.94513,50.02743 -34,58c22.56576,11.28288 48.71809,1.09397 70,-6c9.14732,-3.04911 28.19826,-0.39651 33,-10c8.98658,-17.97316 -25.34166,-18 -35,-18c-7.3181,0 -21.46688,-5.26656 -28,-2c-12.2223,6.11115 -68.59065,30.20468 -83,23c-16.48968,-8.24484 10,-55.92614 10,-61" fill="none" stroke="black" stroke-linecap="round" stroke-width="5"/>
</svg>
