<?xml version="1.0" ?>
<svg baseProfile="full" height="300" version="1.1" viewBox="[0, 0, 300, 300]" width="300" xmlns="http://www.w3.org/2000/svg" xmlns:ev="http://www.w3.org/2001/xml-events" xmlns:xlink="http://www.w3.org/1999/xlink">
	<defs/>
	<path d="M115,66c0,-25.54162 46.18401,-15.1264 59,-10c11.34103,4.53641 15.32622,20.65243 20,30" fill="none" stroke="black" stroke-linecap="round" stroke-width="5"/>
	<path d="M117,62c-1.52023,3.04047 1.04047,8.47977 -2,10c-13.52995,6.76498 -44.34875,9.86032 -53,25c-5.6876,9.95331 -7.06461,103.87079 -2,114" fill="none" stroke="black" stroke-linecap="round" stroke-width="5"/>
	<path d="M190,84c0,29.23219 -24.55748,21.07664 -41,43c-11.49346,15.32462 -18.41685,74.16629 -9,93" fill="none" stroke="black" stroke-linecap="round" stroke-width="5"/>
	<path d="M187,94c0,14.56495 -3.30685,33.15888 -1,47c3.5353,21.21177 9,44.09248 9,65" fill="none" stroke="black" stroke-linecap="round" stroke-width="5"/>
	<path d="M110,71c0,5.33586 5.20457,35.93181 5,36c-12.69332,4.23111 -26.06444,6.68815 -39,11c-5.36792,1.78931 -10.08684,2.36228 -15,4c-1.84391,0.61464 -6.73845,2.13077 -5,3c19.31195,9.65598 67.47052,-2.52948 84,14" fill="none" stroke="black" stroke-linecap="round" stroke-width="5"/>
	<path d="M140,139c11.2083,0 20.22331,-8 31,-8c4.26458,0 9.57707,-0.57707 12,-3c3.4398,-3.4398 -3.35237,-5.01428 -6,-7c-16.52155,-12.39116 -40.96911,-11 -61,-11" fill="none" stroke="black" stroke-linecap="round" stroke-width="5"/>
	<path d="M114,76c0,-3.09272 15.03705,7.03705 17,9c2.60146,2.60146 7.67353,22 9,22" fill="none" stroke="black" stroke-linecap="round" stroke-width="5"/>
	<path d="M188,85c0,-3.87377 -3.96857,-5 -8,-5c-15.37626,0 -24,20.48766 -24,34" fill="none" stroke="black" stroke-linecap="round" stroke-width="5"/>
	<path d="M121,117c0,-4.12298 -34.57179,0.42821 -34,1c4.19843,4.19843 28.94412,-2.29608 33,-5c0.27735,-0.1849 1.33333,0 1,0c-0.66667,0 -1.33333,0 -2,0c-1,0 -2,0 -3,0c-3.66667,0 -7.3384,-0.19272 -11,0c-0.43832,0.02307 -29.54082,3.45918 -25,8c0.29863,0.29863 46.58198,0 51,0c7.66742,0 27.03048,13.96952 35,6c1.74434,-1.74434 -2.45219,-2.67131 -3,-3c-10.52304,-6.31383 -23.8574,-8 -36,-8c-3.33333,0 -6.66667,0 -10,0c-1,0 -4,0 -3,0c8.38382,0 29.22289,-2.66566 35,6c0.83915,1.25872 4.77191,7.22809 3,9c-0.70711,0.70711 -2,0 -3,0c-10.32381,0 -69.38309,1.61691 -75,-4c-6.65187,-6.65187 6.32344,-6 9,-6c28.09733,0 55.55298,3 83,3c1.33333,0 3.05719,0.94281 4,0c0.91886,-0.91886 -0.44667,-3.44667 -1,-4c-10.06317,-10.06317 -34,-0.77712 -34,-16" fill="none" stroke="black" stroke-linecap="round" stroke-width="5"/>
</svg>
