<?xml version="1.0" ?>
<svg baseProfile="full" height="300" version="1.1" viewBox="[0, 0, 300, 300]" width="300" xmlns="http://www.w3.org/2000/svg" xmlns:ev="http://www.w3.org/2001/xml-events" xmlns:xlink="http://www.w3.org/1999/xlink">
	<defs/>
	<path d="M45,161c5.70745,0 33.46463,-29.46463 39,-35c0.77189,-0.77189 9.84166,-6 11,-6c1.24447,0 11.07994,8.02665 14,9c8.48693,2.82898 28.5152,8.5152 36,16c6.85517,6.85517 -9.31692,28.31692 -13,32c-9.70221,9.70221 -11.11245,16.74164 -25,26c-1.20853,0.80568 -8.31535,-2.65768 -9,-3c-9.10892,-4.55446 -11.99062,-13.66041 -20,-19c-4.69295,-3.12863 -10.96708,-1.48354 -16,-4c-3.30374,-1.65187 -5.18784,-7.09392 -9,-9c-1.49071,-0.74536 -3,-2.33333 -3,-4" fill="none" stroke="black" stroke-linecap="round" stroke-width="5"/>
	<path d="M46,164c0,14.99666 2,29.36312 2,44c0,1.4955 -0.72523,4 1,4" fill="none" stroke="black" stroke-linecap="round" stroke-width="5"/>
	<path d="M109,200c1.22004,0 3,7.84619 3,10" fill="none" stroke="black" stroke-linecap="round" stroke-width="5"/>
	<path d="M148,148c0,23.28466 11,44.91742 11,68" fill="none" stroke="black" stroke-linecap="round" stroke-width="5"/>
	<path d="M146,146c0,-17.65161 14,-34.51427 14,-52c0,-1.43135 6.93376,-16.61325 5,-17c-12.56961,-2.51392 -24.80295,-2.45589 -37,-8c-10.94559,-4.97527 -22.46627,-13 -35,-13c-2.68162,0 4.18271,26.54324 2,32c-1.20532,3.0133 -11.22697,35 -5,35" fill="none" stroke="black" stroke-linecap="round" stroke-width="5"/>
	<path d="M91,58c-4.3696,0 -10.66432,1.33568 -14,-2c-2.01358,-2.01358 3.80211,-23.20141 5,-24c10.06445,-6.70963 41.48874,-6.83709 53,-3c2.46631,0.8221 8.32008,8.85606 11,11c8.65322,6.92258 29.26046,9.63023 40,15c2.65782,1.32891 -2.79044,10.95222 -3,12c-2.28828,11.44138 2.67436,23.33718 -10,17c-2.15274,-1.07637 -11,-9.63219 -11,-10" fill="none" stroke="black" stroke-linecap="round" stroke-width="5"/>
	<path d="M44,157c3.96548,0 3.98083,20.98083 7,24c3.25783,3.25783 2,-3 2,-3c0,0 0,3.68831 0,4c0,2.78112 7.21005,9.81507 10,14c4.63884,6.95826 41,10.68052 41,9" fill="none" stroke="black" stroke-linecap="round" stroke-width="5"/>
	<path d="M106,208c22.17337,0 38.47271,-26.41813 44,-43" fill="none" stroke="black" stroke-linecap="round" stroke-width="5"/>
</svg>
