<?xml version="1.0" ?>
<svg baseProfile="full" height="300" version="1.1" viewBox="[0, 0, 300, 300]" width="300" xmlns="http://www.w3.org/2000/svg" xmlns:ev="http://www.w3.org/2001/xml-events" xmlns:xlink="http://www.w3.org/1999/xlink">
	<defs/>
	<path d="M56,132c0,2.66667 0,0 0,0c4.15283,-4.15283 10.3122,-13.07805 18,-15c14.34284,-3.58571 28.21982,-14 43,-14" fill="none" stroke="black" stroke-linecap="round" stroke-width="5"/>
	<path d="M117,85c0,6.41851 -7.03221,29.72584 0,35c6.67585,5.00689 53.22207,0 64,0c1.66667,0 3.82149,1.17851 5,0c2.70912,-2.70912 3.09599,-15.90401 2,-17c-3.13528,-3.13528 -2.45381,-11.18072 -5,-15c-7.61284,-11.41926 -55.35989,-11.09341 -66,-4c-1.7254,1.15027 -3.18803,1 -5,1" fill="none" stroke="black" stroke-linecap="round" stroke-width="5"/>
	<path d="M189,113c0,21.51988 -24.5944,31.2972 -36,37c-3.41689,1.70845 -13,12.85975 -13,15" fill="none" stroke="black" stroke-linecap="round" stroke-width="5"/>
	<path d="M165,120c0,13.66667 0,27.33333 0,41" fill="none" stroke="black" stroke-linecap="round" stroke-width="5"/>
	<path d="M131,122c0,13.30885 -12,26.01573 -12,41" fill="none" stroke="black" stroke-linecap="round" stroke-width="5"/>
	<path d="M117,161c-5.53769,0 -16.19044,7.14283 -20,10c-10.10137,7.57603 -24.78498,6.56995 -31,19c-0.83826,1.67651 -0.22875,7 2,7c4.2251,0 18.26121,8.94591 21,11c1.45328,1.08996 7.14362,-0.3094 9,0c17.37886,2.89648 30.54209,12.38552 45,16c0.97014,0.24254 2.10557,0.44721 3,0c0.80497,-0.40248 -0.50341,-4.99319 0,-6c3.58198,-7.16397 25.18939,-52.62122 24,-55c-0.80277,-1.60555 -3.29706,1.43235 -5,2c-9.67626,3.22542 -54,3.56732 -54,-3" fill="none" stroke="black" stroke-linecap="round" stroke-width="5"/>
	<path d="M73,201c0,2.20824 -5.63748,5.18331 -7,7c-2.64622,3.52829 -1.36136,8.5295 -2,13c-1.8483,12.93813 1.1048,16.2096 6,26c0.49918,0.99835 3.43997,0.87993 2,-2c-0.32865,-0.6573 -0.87766,2.12234 0,3c2.78403,2.78403 4.1127,5.05635 8,7c10.01991,5.00995 38.42283,-21.21142 46,-25c9.82726,-4.91363 16.91598,2.5832 24,4c2.51426,0.50285 10.51942,1.51942 12,3c8.7041,8.7041 -24,59.39402 -24,40" fill="none" stroke="black" stroke-linecap="round" stroke-width="5"/>
</svg>
