<?xml version="1.0" ?>
<svg baseProfile="full" height="300" version="1.1" viewBox="[0, 0, 300, 300]" width="300" xmlns="http://www.w3.org/2000/svg" xmlns:ev="http://www.w3.org/2001/xml-events" xmlns:xlink="http://www.w3.org/1999/xlink">
	<defs/>
	<path d="M77,252c-2.83948,-2.83948 -20,-85.71775 -20,-95" fill="none" stroke="black" stroke-linecap="round" stroke-width="5"/>
	<path d="M169,244c-3.93067,0 -6.39674,-29.47558 -7,-34c-2.23888,-16.79157 -11.65186,-33.47706 -16,-50c-4.22566,-16.05751 0.31511,-32.05468 -5,-48" fill="none" stroke="black" stroke-linecap="round" stroke-width="5"/>
	<path d="M201,122c0,23.6089 8.51147,52.5803 12,77c0.85325,5.97277 1,40.97302 1,34" fill="none" stroke="black" stroke-linecap="round" stroke-width="5"/>
	<path d="M148,152c18.252,6.084 35.41361,1.2068 53,10c0.46921,0.2346 6,2 6,2c0,0 -5.33333,-1.33333 -8,-2c-18.44689,-4.61172 -47.69551,-2 -67,-2" fill="none" stroke="black" stroke-linecap="round" stroke-width="5"/>
	<path d="M59,167c6.97537,-3.48768 18.4988,-10.4988 24,-16" fill="none" stroke="black" stroke-linecap="round" stroke-width="5"/>
	<path d="M64,64c7.54556,-15.09112 133.43319,-31.10426 148,-22c26.20567,16.37854 -4.48439,52 -23,52" fill="none" stroke="black" stroke-linecap="round" stroke-width="5"/>
	<path d="M97,55c0,9.31937 0.48969,35.48969 7,42" fill="none" stroke="black" stroke-linecap="round" stroke-width="5"/>
	<path d="M121,66c0,4.50063 3,53.60943 3,41" fill="none" stroke="black" stroke-linecap="round" stroke-width="5"/>
	<path d="M143,57c0,7.43915 -2.84251,52 4,52" fill="none" stroke="black" stroke-linecap="round" stroke-width="5"/>
	<path d="M166,58c0,7.15386 -2.03292,45.96708 1,49" fill="none" stroke="black" stroke-linecap="round" stroke-width="5"/>
	<path d="M192,59c0.06445,1.0956 5.68694,59.21734 -2,40" fill="none" stroke="black" stroke-linecap="round" stroke-width="5"/>
</svg>
