<?xml version="1.0" ?>
<svg baseProfile="full" height="300" version="1.1" viewBox="[0, 0, 300, 300]" width="300" xmlns="http://www.w3.org/2000/svg" xmlns:ev="http://www.w3.org/2001/xml-events" xmlns:xlink="http://www.w3.org/1999/xlink">
	<defs/>
	<path d="M71,163c28.36968,-18.91312 45.69545,-33 81,-33c26.29806,0 33.80461,5.02306 39,31c2.39334,11.96669 -21.02927,20.00366 -29,21c-22.6244,2.82805 -88.43052,10.85422 -103,-11c-5.38969,-8.08453 16,-9.14802 16,-12" fill="none" stroke="black" stroke-linecap="round" stroke-width="5"/>
	<path d="M63,177c0,15.02391 5.31267,32.48843 8,47c0.66517,3.5919 5,28.48384 5,17" fill="none" stroke="black" stroke-linecap="round" stroke-width="5"/>
	<path d="M105,187c0,9.27193 2.86146,58.13854 12,49" fill="none" stroke="black" stroke-linecap="round" stroke-width="5"/>
	<path d="M141,189c0,7.77935 0.85381,45 14,45" fill="none" stroke="black" stroke-linecap="round" stroke-width="5"/>
	<path d="M181,179c-3.3374,3.3374 -4.83289,28 4,28" fill="none" stroke="black" stroke-linecap="round" stroke-width="5"/>
</svg>
