<?xml version="1.0" ?>
<svg baseProfile="full" height="300" version="1.1" viewBox="[0, 0, 300, 300]" width="300" xmlns="http://www.w3.org/2000/svg" xmlns:ev="http://www.w3.org/2001/xml-events" xmlns:xlink="http://www.w3.org/1999/xlink">
	<defs/>
	<path d="M134,143c0,-11.81831 -4,-23.04327 -4,-35c0,-30.84181 6.13608,-45 -29,-45c-4.22626,0 -14.24267,-5.75733 -18,-2" fill="none" stroke="black" stroke-linecap="round" stroke-width="5"/>
	<path d="M48,199c0,21.74452 -6.92709,42.74973 -6,65c0.08472,2.03332 1.86144,7 4,7" fill="none" stroke="black" stroke-linecap="round" stroke-width="5"/>
	<path d="M113,206c0,5.75926 -6.49469,15.47701 -8,22c-0.98389,4.26352 -2.2654,36.7962 1,27" fill="none" stroke="black" stroke-linecap="round" stroke-width="5"/>
	<path d="M151,171c0,21.3249 0.41555,42.80755 3,64c0.43303,3.55088 5,14.85555 5,20" fill="none" stroke="black" stroke-linecap="round" stroke-width="5"/>
	<path d="M84,212c-7.54805,7.54805 -2.72206,21.55587 1,29" fill="none" stroke="black" stroke-linecap="round" stroke-width="5"/>
</svg>
