<?xml version="1.0" ?>
<svg baseProfile="full" height="300" version="1.1" viewBox="[0, 0, 300, 300]" width="300" xmlns="http://www.w3.org/2000/svg" xmlns:ev="http://www.w3.org/2001/xml-events" xmlns:xlink="http://www.w3.org/1999/xlink">
	<defs/>
	<path d="M47,127c22.35067,-14.90045 29.8477,-25 60,-25c5.77736,0 14.77627,-1.48248 20,2c9.05771,6.03847 7,50.99508 7,63c0,6.52638 -1.76619,12.83097 -3,19c-0.4015,2.0075 -1,10.09945 -1,9" fill="none" stroke="black" stroke-linecap="round" stroke-width="5"/>
	<path d="M124,144c-4.43552,4.43552 -19.65268,6.46107 -26,9c-12.70134,5.08054 -38.23752,25.47503 -44,37c-5.14836,10.29672 25.60056,53 34,53c14.8261,0 52.98458,-24.61922 70,-31c1.61358,-0.60509 5.85351,-1.70702 7,-4c1.40633,-2.81267 -3.1722,-5.44108 -5,-8c-3.68562,-5.15987 -27.60964,-48 -33,-48" fill="none" stroke="black" stroke-linecap="round" stroke-width="5"/>
	<path d="M155,204c7.08197,-7.08197 6,-48.506 6,-60" fill="none" stroke="black" stroke-linecap="round" stroke-width="5"/>
	<path d="M161,153c0,-5.81384 2.44592,-31 -5,-31" fill="none" stroke="black" stroke-linecap="round" stroke-width="5"/>
	<path d="M128,71c-13.26319,0 -27.9325,-6.6135 -41,-4c-26.89754,5.37951 8.98665,68.39199 25,78c14.83454,8.90072 43.32477,-3.81197 62,-3c9.34635,0.40636 39.1391,4.8609 46,-2c6.69179,-6.69179 -7.34302,-30.9244 -9,-37c-2.1495,-7.88151 3.13057,-26.86943 -3,-33c-4.01322,-4.01322 -60.09227,-8.28112 -68,-9c-12.68612,-1.15328 -23.47214,-2.78397 -36,0c-4.4373,0.98607 -5.08352,2.02088 -9,3c-0.97415,0.24354 -5.41211,-1.41211 -4,0c1.41139,1.41139 5.09999,1.09999 7,3" fill="none" stroke="black" stroke-linecap="round" stroke-width="5"/>
	<path d="M163,131c-24.8406,8.2802 -68.52938,17.16804 -87,33c-13.9086,11.92166 -18.34302,12.10465 -2,23c4.32602,2.88402 9.64013,9 15,9" fill="none" stroke="black" stroke-linecap="round" stroke-width="5"/>
</svg>
