<?xml version="1.0" ?>
<svg baseProfile="full" height="300" version="1.1" viewBox="[0, 0, 300, 300]" width="300" xmlns="http://www.w3.org/2000/svg" xmlns:ev="http://www.w3.org/2001/xml-events" xmlns:xlink="http://www.w3.org/1999/xlink">
	<defs/>
	<path d="M97,71c5.55651,0 14.31558,-9.07224 19,-12c33.78024,-21.11265 64.38173,-29.61827 96,2c3.07315,3.07315 2.4553,9.13826 4,13c9.21138,23.02845 -6.91287,29.18465 -24,42c-3.65048,2.73786 -12.28623,20.47704 -15,25c-5.61355,9.35592 -3.14566,25.29132 -8,35c-0.15957,0.31915 -4.57447,0 -5,0c-3.67159,0 -30.03863,2.92275 -32,-1c-0.70143,-1.40286 0,-5.43967 0,-7c0,-17.77765 0.46872,-35.65642 -3,-53c-2.07118,-10.35592 -27.70515,-42.71794 -37,-39c-22.2561,8.90244 -40.61158,25.22316 -51,46c-4.77738,9.55475 -0.31912,21.91471 -2,32c-4.46754,26.80522 -11,55.1096 -11,82" fill="none" stroke="black" stroke-linecap="round" stroke-width="5"/>
	<path d="M219,100c-46.41191,0 -70.65244,-2.12807 -77,55c-1.27936,11.51421 1.43667,23.50667 0,35c-1.86872,14.94979 -10,28.57012 -10,44" fill="none" stroke="black" stroke-linecap="round" stroke-width="5"/>
	<path d="M174,180c0,27.04551 -5,53.50876 -5,80" fill="none" stroke="black" stroke-linecap="round" stroke-width="5"/>
	<path d="M47,208c0,7.11566 6.9389,59.0611 3,63" fill="none" stroke="black" stroke-linecap="round" stroke-width="5"/>
</svg>
