<?xml version="1.0" ?>
<svg baseProfile="full" height="300" version="1.1" viewBox="[0, 0, 300, 300]" width="300" xmlns="http://www.w3.org/2000/svg" xmlns:ev="http://www.w3.org/2001/xml-events" xmlns:xlink="http://www.w3.org/1999/xlink">
	<defs/>
	<path d="M115,50c15.24138,0 27.08833,8 42,8c28.3749,0 44.08991,18.54495 65,29c3.96308,1.98154 -5.42455,15.8491 -6,17c-1.75339,3.50677 1.05157,7.97421 -3,10c-8.24697,4.12348 -29.68181,-16.3409 -37,-20c-9.62492,-4.81246 -65.90011,-15.90011 -67,-17c-4.07943,-4.07943 5,-23.73383 5,-28" fill="none" stroke="black" stroke-linecap="round" stroke-width="5"/>
	<path d="M124,80c0,15.00309 3.2386,34.42628 0,49c-0.25412,1.14354 -13.35545,28 -8,28" fill="none" stroke="black" stroke-linecap="round" stroke-width="5"/>
	<path d="M144,216c0,17.60842 -7.75482,47.75482 -19,59" fill="none" stroke="black" stroke-linecap="round" stroke-width="5"/>
	<path d="M54,184c0,12.26361 0.96426,27.14296 -2,39c-1.74902,6.99609 -9,17.33417 -9,24" fill="none" stroke="black" stroke-linecap="round" stroke-width="5"/>
</svg>
