<?xml version="1.0" ?>
<svg baseProfile="full" height="300" version="1.1" viewBox="[0, 0, 300, 300]" width="300" xmlns="http://www.w3.org/2000/svg" xmlns:ev="http://www.w3.org/2001/xml-events" xmlns:xlink="http://www.w3.org/1999/xlink">
	<defs/>
	<path d="M165,183c0,16.45343 -5,33.22041 -5,50" fill="none" stroke="black" stroke-linecap="round" stroke-width="5"/>
	<path d="M82,156c0,22.93969 -1,46.3527 -1,69" fill="none" stroke="black" stroke-linecap="round" stroke-width="5"/>
	<path d="M200,64c4.23823,0 6.36387,29.81933 7,33c5.74462,28.72308 -2.84655,53.00517 -5,81c-0.3887,5.05304 -3,48.08793 -3,30" fill="none" stroke="black" stroke-linecap="round" stroke-width="5"/>
	<path d="M137,53c0,25.54362 -2,53.035 -2,78" fill="none" stroke="black" stroke-linecap="round" stroke-width="5"/>
	<path d="M131,73c1.69402,-1.69402 2.53062,-1.05831 5,0c17.70609,7.58832 60.10271,12.10271 72,24" fill="none" stroke="black" stroke-linecap="round" stroke-width="5"/>
	<path d="M140,103c25.30889,0 46.92895,22 73,22" fill="none" stroke="black" stroke-linecap="round" stroke-width="5"/>
</svg>
