<?xml version="1.0" ?>
<svg baseProfile="full" height="300" version="1.1" viewBox="[0, 0, 300, 300]" width="300" xmlns="http://www.w3.org/2000/svg" xmlns:ev="http://www.w3.org/2001/xml-events" xmlns:xlink="http://www.w3.org/1999/xlink">
	<defs/>
	<path d="M89,78c-4.94691,0 -21.53424,14.46576 -29,7c-3.38698,-3.38698 -3,-13.23132 -3,-19c0,-4.21723 -3.97851,-10.04299 -2,-14c10.34783,-20.69566 47.62712,-14 67,-14c13.28808,0 40.28015,-5.35993 53,1c10.4885,5.24425 48.09377,54.90623 41,62c-1.81754,1.81754 -7.53585,1 -11,1c-26.01914,0 -23.9205,-18.3364 -41,-32c-6.55004,-5.24003 -17.12495,-6.42499 -25,-8c-10.48937,-2.09787 -36.85423,-3.14577 -44,4c-3.42206,3.42206 -17.35735,14 -15,14" fill="none" stroke="black" stroke-linecap="round" stroke-width="5"/>
	<path d="M93,105c0,-14.36436 58.15976,-13.92012 66,-10c8.9298,4.4649 6,39.5611 6,36" fill="none" stroke="black" stroke-linecap="round" stroke-width="5"/>
	<path d="M180,93c0,2.2251 -1.11249,3.22498 -2,5c-8.01664,16.03328 -13.07085,27.21255 -19,45c-2.8876,8.6628 0.72695,21.5461 -3,29c-3.17092,6.34183 -1.09296,14.09296 -6,19c-7.60212,7.60212 -25.18769,12 -36,12c-4.26853,0 -19.78503,-4 -16,-4" fill="none" stroke="black" stroke-linecap="round" stroke-width="5"/>
	<path d="M155,177c0,14.31164 -67.18324,8.06108 -79,12c-6.65231,2.21744 -17.01877,24.32708 -6,28c7.34023,2.44674 19.64671,-9.70658 16,-17c-0.29814,-0.59628 -1.5286,0.4714 -2,0c-8.85826,-8.85826 -8.20732,9 -11,9" fill="none" stroke="black" stroke-linecap="round" stroke-width="5"/>
	<path d="M95,120c0,49.07103 -44.74817,35.74817 -62,53c-8.54938,8.54938 10,25.47145 10,4c0,-1.93443 -0.831,-4.831 -2,-6c-2.12962,-2.12962 -2,27.64032 -2,16" fill="none" stroke="black" stroke-linecap="round" stroke-width="5"/>
	<path d="M83,149c13.9761,0 29.51698,8.50566 43,13c5.58798,1.86266 26.74263,9.25737 25,11" fill="none" stroke="black" stroke-linecap="round" stroke-width="5"/>
	<path d="M40,170c8.26543,0 24.63399,11.63399 29,16c2.41923,2.41923 18.50558,5 12,5" fill="none" stroke="black" stroke-linecap="round" stroke-width="5"/>
	<path d="M160,139c0,16.72527 -5.29059,30.16235 -9,45c-3.35,13.39998 0,33.17209 0,47c0,12.06704 -3.35499,28.09667 7,35c2.14129,1.42752 7.67125,2.3425 9,5c0.33333,0.66667 -2,1.74536 -2,1" fill="none" stroke="black" stroke-linecap="round" stroke-width="5"/>
	<path d="M94,201c0,19.26214 1,43.03138 1,64c0,8.43472 -1.96934,12.96934 -6,17c-1.34816,1.34816 -5.27218,2 -2,2" fill="none" stroke="black" stroke-linecap="round" stroke-width="5"/>
	<path d="M45,172c0.91124,0 2.54525,5.63576 3,7c6.41324,19.23972 3.71204,47.57592 -5,65c-3.5462,7.09239 -12.09876,31 -11,31" fill="none" stroke="black" stroke-linecap="round" stroke-width="5"/>
</svg>
