<?xml version="1.0" ?>
<svg baseProfile="full" height="300" version="1.1" viewBox="[0, 0, 300, 300]" width="300" xmlns="http://www.w3.org/2000/svg" xmlns:ev="http://www.w3.org/2001/xml-events" xmlns:xlink="http://www.w3.org/1999/xlink">
	<defs/>
	<path d="M92,60c0,11.35529 4,25.00811 4,38c0,1.93442 -0.79355,8 1,8" fill="none" stroke="black" stroke-linecap="round" stroke-width="5"/>
	<path d="M93,62c31.91401,0 93.30841,-0.3458 120,13c0.29814,0.14907 0.85093,-0.29814 1,0c2.59082,5.18165 -5.15963,10.93272 -7,14c-4.05972,6.76619 3.15145,22.42428 -4,26c-18.79393,9.39697 -83.31432,-9 -106,-9" fill="none" stroke="black" stroke-linecap="round" stroke-width="5"/>
	<path d="M207,113c0,30.77371 -18.39218,95.82345 -9,124c3.04511,9.13534 22,34.44299 22,39" fill="none" stroke="black" stroke-linecap="round" stroke-width="5"/>
	<path d="M93,107c1.71538,0 1,23.74235 1,27c0,17.38846 2,35.83828 2,52" fill="none" stroke="black" stroke-linecap="round" stroke-width="5"/>
	<path d="M109,265c0,7.26715 9,20.08161 9,28" fill="none" stroke="black" stroke-linecap="round" stroke-width="5"/>
	<path d="M44,235c0,12.26753 -1,24.61503 -1,37" fill="none" stroke="black" stroke-linecap="round" stroke-width="5"/>
</svg>
