<?xml version="1.0" ?>
<svg baseProfile="full" height="300" version="1.1" viewBox="[0, 0, 300, 300]" width="300" xmlns="http://www.w3.org/2000/svg" xmlns:ev="http://www.w3.org/2001/xml-events" xmlns:xlink="http://www.w3.org/1999/xlink">
	<defs/>
	<path d="M125,98c-1.90064,0 -1,2.48546 -1,4c0,9.04898 -4.10681,31.33979 1,39c3.63624,5.45436 76.85041,14 89,14c1.50626,0 4.17946,0.64107 5,-1c2.57332,-5.14664 0.38797,-20.44814 -1,-26c-1.50638,-6.02551 1.31262,-23.68738 -3,-28c-2.04525,-2.04525 -83.41087,-5 -89,-5" fill="none" stroke="black" stroke-linecap="round" stroke-width="5"/>
	<path d="M220,152c-1.20185,0 -2,1.79815 -2,3c0,14.85894 3,27.20779 3,42" fill="none" stroke="black" stroke-linecap="round" stroke-width="5"/>
	<path d="M130,143c0,17.30691 1,34.57413 1,52" fill="none" stroke="black" stroke-linecap="round" stroke-width="5"/>
	<path d="M213,156c-22.62242,0 -54,4.39053 -54,31" fill="none" stroke="black" stroke-linecap="round" stroke-width="5"/>
	<path d="M124,143c-12.2386,12.2386 -45,-0.2874 -45,25" fill="none" stroke="black" stroke-linecap="round" stroke-width="5"/>
	<path d="M111,226c12.134,6.067 6.90478,46.90478 11,51c5.88875,5.88875 16.52976,-10.68651 20,-13c8.35666,-5.57111 64.81038,-39.09481 71,-36c3.38874,1.69437 4.71858,9.14823 7,12c12.29862,15.37328 30.76975,20.82017 11,34c-4.62322,3.08215 -8.40501,6.85125 -13,8c-2.72168,0.68042 -20.88527,12.11473 -23,10c-10.41565,-10.41565 -8.67941,-31.67941 -18,-41" fill="none" stroke="black" stroke-linecap="round" stroke-width="5"/>
</svg>
