<?xml version="1.0" ?>
<svg baseProfile="full" height="300" version="1.1" viewBox="[0, 0, 300, 300]" width="300" xmlns="http://www.w3.org/2000/svg" xmlns:ev="http://www.w3.org/2001/xml-events" xmlns:xlink="http://www.w3.org/1999/xlink">
	<defs/>
	<path d="M119,51c30.78293,0 60.97676,12 91,12" fill="none" stroke="black" stroke-linecap="round" stroke-width="5"/>
	<path d="M206,94c0,32.21038 -5,65.33461 -5,96" fill="none" stroke="black" stroke-linecap="round" stroke-width="5"/>
	<path d="M122,83c0,27.95552 -3,57.40415 -3,84" fill="none" stroke="black" stroke-linecap="round" stroke-width="5"/>
	<path d="M119,167c18.23578,0 34.74841,9.07098 52,14c0.88177,0.25194 25.57024,5.42976 25,6c-10.56664,10.56664 -46.12662,17.07597 -61,26c-6.67405,4.00443 -12.3003,8.3003 -18,14c-0.37087,0.37087 -4.88659,7.02835 -5,7c-8.842,-2.2105 -19.62922,-14.2167 -28,-19c-3.62405,-2.07089 -7.26163,-4.13081 -11,-6c-1.88562,-0.94281 -8.10819,-2 -6,-2c17.32056,0 48.18072,-27.18072 59,-38c0.15584,-0.15584 1.83983,-2.16017 1,-3c-0.84984,-0.84984 -2,1.33333 -3,2c-8.49777,5.66518 -14.58595,14.39063 -23,20c-10.2241,6.81607 -20.24134,9.24134 -28,17c-0.1,0.1 -1.33333,1.66667 -1,2c1.50923,1.50923 3.49077,-2.49077 5,-4c5.7638,-5.7638 12.48008,-10.11006 19,-15c4.49156,-3.36867 33,-15.62089 33,-23c0,-1.2443 -20.17348,7.85842 -22,9c-1.64821,1.03013 -3.26155,2.13077 -5,3c-9.55232,4.77616 -34.40219,16.80439 -39,26c-0.80834,1.61667 4.93908,3.36345 6,4c6.20924,3.72554 21.41874,13.83748 24,19c2.38016,4.76032 10.8389,14 17,14" fill="none" stroke="black" stroke-linecap="round" stroke-width="5"/>
	<path d="M112,238c11.8656,0 77.54632,-38.54632 87,-48" fill="none" stroke="black" stroke-linecap="round" stroke-width="5"/>
	<path d="M199,190c0,21.34255 6.76919,35.53838 16,54c1.77879,3.55759 8.24654,18.74885 12,20c1.92769,0.64256 5.12682,4 4,4" fill="none" stroke="black" stroke-linecap="round" stroke-width="5"/>
	<path d="M116,240c-4.39554,0 1.49098,17.45489 2,20c2.50384,12.51918 1,27.00887 1,40" fill="none" stroke="black" stroke-linecap="round" stroke-width="5"/>
	<path d="M71,205c0,11.18301 -9.74552,70 -18,70" fill="none" stroke="black" stroke-linecap="round" stroke-width="5"/>
	<path d="M152,223c7.63059,7.63059 13.93465,17.93465 20,24" fill="none" stroke="black" stroke-linecap="round" stroke-width="5"/>
</svg>
