<?xml version="1.0" ?>
<svg baseProfile="full" height="300" version="1.1" viewBox="[0, 0, 300, 300]" width="300" xmlns="http://www.w3.org/2000/svg" xmlns:ev="http://www.w3.org/2001/xml-events" xmlns:xlink="http://www.w3.org/1999/xlink">
	<defs/>
	<path d="M121,73c0,24.38404 1,48.62845 1,73" fill="none" stroke="black" stroke-linecap="round" stroke-width="5"/>
	<path d="M118,78c0,-0.4714 0.5286,-1 1,-1c13.23605,0 26.86816,-0.94546 40,1c16.51821,2.44714 32.05637,8.01879 47,13c0.94868,0.31623 2.55279,-0.89443 3,0c3.69159,7.38318 0,26.22176 0,34c0,4.00933 3.50216,29.49784 0,33c-0.82803,0.82803 -15.9525,0.99721 -16,1c-14.03976,0.82587 -35.1602,3.45995 -49,0c-7.96576,-1.99144 -18.19451,-12 -23,-12" fill="none" stroke="black" stroke-linecap="round" stroke-width="5"/>
	<path d="M121,147c0,13.97382 -39.16992,19.66015 -35,28c9.19805,18.3961 73.75288,55.24712 95,34c4.82509,-4.82509 8.86133,-16.72266 12,-23c3.83207,-7.66415 12,-17.62443 12,-26" fill="none" stroke="black" stroke-linecap="round" stroke-width="5"/>
	<path d="M205,153c0,19.79026 15,40.57681 15,61" fill="none" stroke="black" stroke-linecap="round" stroke-width="5"/>
	<path d="M163,215c0,18.53111 5,36.3166 5,55" fill="none" stroke="black" stroke-linecap="round" stroke-width="5"/>
	<path d="M98,189c0,-0.54975 -4.30777,-6.30777 -5,-7c-19.15765,-19.15765 -4.28606,25.71155 -3,36c0.24953,1.9962 -1.25323,14 1,14" fill="none" stroke="black" stroke-linecap="round" stroke-width="5"/>
</svg>
