<?xml version="1.0" ?>
<svg baseProfile="full" height="300" version="1.1" viewBox="[0, 0, 300, 300]" width="300" xmlns="http://www.w3.org/2000/svg" xmlns:ev="http://www.w3.org/2001/xml-events" xmlns:xlink="http://www.w3.org/1999/xlink">
	<defs/>
	<path d="M105,27c14.9989,0 30.93684,13.48947 46,16c10.1468,1.69113 19.81477,6.45369 30,9c12.91018,3.22755 38.07775,0.38338 27,17c-1.65109,2.47663 -1.2507,6.62535 -4,8c-3.94717,1.97358 -20.34002,-7.78001 -24,-9c-10.68002,-3.56001 -79.43771,-24.43771 -82,-27c-3.31338,-3.31338 6,-12.32131 6,-15" fill="none" stroke="black" stroke-linecap="round" stroke-width="5"/>
	<path d="M95,45c4.01009,0 15.11501,17.88499 11,22c-1.44641,1.44641 -7.16008,0.73715 -9,1c-23.49979,3.35711 -71,8.20131 -71,34c0,1.12396 -0.89621,7.10379 0,8c1.87195,1.87195 8.96244,-2.65415 10,-3c8.96317,-2.98772 70.43355,-25.8671 74,-33c0.48623,-0.97245 -1,-5.77319 -1,-8" fill="none" stroke="black" stroke-linecap="round" stroke-width="5"/>
	<path d="M26,109c0,8.23823 2.61178,91.61178 3,92c1.41421,1.41421 4,0 6,0c5.57016,0 26.39573,5.60427 31,1c0.4714,-0.4714 0,-1.33333 0,-2c0,-33.49821 -15,-66.06576 -15,-99" fill="none" stroke="black" stroke-linecap="round" stroke-width="5"/>
	<path d="M212,67c0,12.02574 3.00227,24.02722 4,36c2.0408,24.48959 -3,48.94694 -3,73c0,10.05547 3.4937,24 -8,24c-0.91888,0 -3.2055,1.7945 -4,1c-20.65517,-20.65517 1,-99.13633 1,-129" fill="none" stroke="black" stroke-linecap="round" stroke-width="5"/>
	<path d="M196,101c-12.04331,0 -26.05912,5.29416 -38,7c-7.12999,1.01857 -15.07369,1.02105 -22,3c-6.65231,1.90066 -14.04181,4 -21,4c-6.03121,0 -5.0535,11.9465 -2,15c2.12132,2.12132 6,0 9,0c8.69175,0 83,-8.85906 83,-21" fill="none" stroke="black" stroke-linecap="round" stroke-width="5"/>
	<path d="M109,131c0,0.74536 0.85382,1.26912 1,2c0.26149,1.30744 0,2.66667 0,4c0,21.79633 5,42.99774 5,65c0,0.81747 -0.70678,6.29322 0,7c1.17851,1.17851 3.3462,-0.20672 5,0c1.39775,0.17472 13.24515,3.75485 15,2c7.65903,-7.65903 -3,-68.4283 -3,-84" fill="none" stroke="black" stroke-linecap="round" stroke-width="5"/>
	<path d="M152,126c7.37863,0 6,37.01683 6,45" fill="none" stroke="black" stroke-linecap="round" stroke-width="5"/>
	<path d="M169,125c9.48676,9.48676 7,22.13979 7,36" fill="none" stroke="black" stroke-linecap="round" stroke-width="5"/>
	<path d="M144,132c9.84688,4.92344 11,25.56864 11,36" fill="none" stroke="black" stroke-linecap="round" stroke-width="5"/>
	<path d="M138,158c14.82676,0 38.03242,-13 59,-13" fill="none" stroke="black" stroke-linecap="round" stroke-width="5"/>
	<path d="M111,56c14.58842,14.58842 74.18051,26.18051 75,27c0.4714,0.4714 0,1.33333 0,2c0,9.07184 -6.62446,22.49782 -9,32c-3.37741,13.50963 -1.33156,29.66312 -7,41c-6.16976,12.33953 -62.08957,27.60695 -75,19c-10.99792,-7.33195 -36.88775,-16.33674 -31,-34c5.62657,-16.87972 36.74012,-27.23354 48,-46c7.75359,-12.92266 6,-23.60274 6,-38c0,-1.57991 0.70575,-3 -1,-3" fill="none" stroke="black" stroke-linecap="round" stroke-width="5"/>
	<path d="M74,94c0,11.66976 0,23.43434 0,35c0,1.33333 -0.56667,2 1,2" fill="none" stroke="black" stroke-linecap="round" stroke-width="5"/>
	<path d="M87,89c16.91694,0 4.47096,23.47096 11,30" fill="none" stroke="black" stroke-linecap="round" stroke-width="5"/>
	<path d="M59,102c0,1.82396 3.55492,3.32951 4,6c1.6424,9.85443 -0.10753,20.03227 1,30c0.15651,1.40859 0.65512,10 2,10" fill="none" stroke="black" stroke-linecap="round" stroke-width="5"/>
	<path d="M52,127c16.53481,0 40.1841,-28 52,-28" fill="none" stroke="black" stroke-linecap="round" stroke-width="5"/>
	<path d="M68,174c0,2.19248 1.63884,0.31942 3,1c7.27419,3.6371 42,12.55618 42,14c0,1.33333 0.94281,3.05719 0,4c-0.4714,0.4714 -1.34628,0.13074 -2,0c-15.781,-3.1562 -28.92241,-10 -45,-10" fill="none" stroke="black" stroke-linecap="round" stroke-width="5"/>
</svg>
