<?xml version="1.0" ?>
<svg baseProfile="full" height="300" version="1.1" viewBox="[0, 0, 300, 300]" width="300" xmlns="http://www.w3.org/2000/svg" xmlns:ev="http://www.w3.org/2001/xml-events" xmlns:xlink="http://www.w3.org/1999/xlink">
	<defs/>
	<path d="M60,120c2.80246,0 59.12291,-28.12291 64,-33c1.09843,-1.09843 3,0.36728 3,-2" fill="none" stroke="black" stroke-linecap="round" stroke-width="5"/>
	<path d="M124,88c0,-10.44128 -6.17821,-31.64358 -2,-40c4.6593,-9.3186 37.47094,-5.14709 46,-6c1.36755,-0.13675 2.63944,-0.80563 4,-1c2.26264,-0.32323 4.73736,-0.67677 7,-1c2.30988,-0.32998 4.68468,0.28941 7,0c1.93561,-0.24195 33.47851,-5.56447 35,-1c2.88186,8.64557 -2.13156,20.31555 -3,29c-1.17149,11.71485 -3.23563,30.23563 -11,38c-0.47056,0.47056 -4.45383,0.13654 -5,0c-30.67911,-7.66978 -56.57561,-19 -89,-19" fill="none" stroke="black" stroke-linecap="round" stroke-width="5"/>
	<path d="M197,107c-17.09242,0 -71.3011,28.6989 -53,47" fill="none" stroke="black" stroke-linecap="round" stroke-width="5"/>
	<path d="M63,119c-12.43061,0 3,29.08014 3,30" fill="none" stroke="black" stroke-linecap="round" stroke-width="5"/>
	<path d="M123,83c2.57396,0 3,29.29947 3,33c0,1.98118 1,11.38608 1,10" fill="none" stroke="black" stroke-linecap="round" stroke-width="5"/>
	<path d="M203,101c0,8 0,16 0,24c0,8 0,16 0,24c0,1.48452 0.90272,8 -1,8" fill="none" stroke="black" stroke-linecap="round" stroke-width="5"/>
	<path d="M125,125c0,17.26811 -42,54.86627 -42,62c0,3.01846 6.17373,-0.05985 9,1c9.02426,3.3841 18.56813,7.42802 28,9c3.93192,0.65532 18.6848,9.1576 21,8c9.71621,-4.8581 62,-47.45387 62,-57" fill="none" stroke="black" stroke-linecap="round" stroke-width="5"/>
</svg>
