<?xml version="1.0" ?>
<svg baseProfile="full" height="300" version="1.1" viewBox="[0, 0, 300, 300]" width="300" xmlns="http://www.w3.org/2000/svg" xmlns:ev="http://www.w3.org/2001/xml-events" xmlns:xlink="http://www.w3.org/1999/xlink">
	<defs/>
	<path d="M105,99c0,12.75947 -33,34.3182 -33,42c0,3.01846 5.98154,-1 9,-1c11.20204,0 20.00061,1.16677 31,3c7.24102,1.20684 14.81656,-0.5123 22,1c9.83236,2.06997 17.58601,8 28,8c0.36531,0 6,1 6,1c0,0 -0.74053,-1.96213 -1,-3c-2.83656,-11.34622 10.10544,-24.83068 16,-34c1.33453,-2.07594 17.02319,-26.97681 17,-27c-1.22603,-1.22603 -8.28233,0.28628 -10,0c-9.99983,-1.66664 -19.98207,-4.99641 -30,-7c-4.40205,-0.88041 -43.03782,-13.48109 -44,-13c-3.38708,1.69354 -10.46093,18.76822 -13,23c-4.37295,7.28824 -16,21.38795 -16,30" fill="none" stroke="black" stroke-linecap="round" stroke-width="5"/>
	<path d="M70,142c11.4737,0 8,70.32081 8,51" fill="none" stroke="black" stroke-linecap="round" stroke-width="5"/>
	<path d="M100,134c0,5.05858 1.91681,25.91681 6,30" fill="none" stroke="black" stroke-linecap="round" stroke-width="5"/>
	<path d="M160,150c3.18294,3.18294 2,93.03781 2,60" fill="none" stroke="black" stroke-linecap="round" stroke-width="5"/>
	<path d="M197,88c9.4123,31.37433 6.74371,60.20824 0,92c-0.95652,4.50929 -0.14662,21 -8,21" fill="none" stroke="black" stroke-linecap="round" stroke-width="5"/>
	<path d="M114,58c0,-2.63313 3.80087,-5.60174 5,-8c4.49148,-8.98296 8.47234,-23.60426 17,-30c22.82968,-17.12226 54.97263,-12.0821 64,15c3.76155,11.28465 14.60997,35.58505 7,47c-3.85101,5.77651 -7.61326,9.43646 -10,16c-0.49209,1.35325 -1.76957,8.23043 -4,6" fill="none" stroke="black" stroke-linecap="round" stroke-width="5"/>
	<path d="M201,76c-12.31405,0 -47.08314,33.77079 -64,38c-1.64893,0.41223 -4.05719,-0.41421 -5,1c-4.31679,6.47518 14.02544,31 19,31" fill="none" stroke="black" stroke-linecap="round" stroke-width="5"/>
</svg>
