<?xml version="1.0" ?>
<svg baseProfile="full" height="300" version="1.1" viewBox="[0, 0, 300, 300]" width="300" xmlns="http://www.w3.org/2000/svg" xmlns:ev="http://www.w3.org/2001/xml-events" xmlns:xlink="http://www.w3.org/1999/xlink">
	<defs/>
	<path d="M71,177c16.26432,0 77.13769,-3.41307 83,-21c1.50292,-4.50876 1.49379,-9.48138 3,-14c1.05502,-3.16505 1.29825,-16.70175 -1,-19c-6.99451,-6.99451 -22.05657,12.47172 -27,10c-6.75028,-3.37514 4.83525,-22.83525 7,-25c18.55015,-18.55015 114.19651,-26.01743 121,8c1.50015,7.50076 -0.76285,13.5257 -4,20c-12.65153,25.30306 -29.51306,3.23911 -43,-8c-9.86805,-8.22337 -22.04213,-14.42528 -33,-21c-9.12089,-5.47253 -23.42973,-7.8554 -30,2c-1.53448,2.30173 -3.28425,4.71575 -1,7" fill="none" stroke="black" stroke-linecap="round" stroke-width="5"/>
	<path d="M152,143c17.47164,0 39.83412,3.61137 56,9c3.53309,1.1777 5.78598,7 8,7" fill="none" stroke="black" stroke-linecap="round" stroke-width="5"/>
	<path d="M246,139c-5.44881,3.63254 -6.8137,11.76713 -11,17c-7.98234,9.97792 -30.29419,23.41177 -43,25c-23.88788,2.98598 -45.99444,10.24861 -69,16c-9.88827,2.47207 -22.32375,-2.22542 -32,1c-6.36798,2.12266 -12.18785,11.3757 -15,17c-6.41552,12.83105 -0.28652,23.57163 14,20c13.68577,-3.42144 6.96222,-27.98111 -7,-21c-9.99609,4.99804 -2.20939,21.08376 8,17c11.23107,-4.49243 0.31979,-17.31979 -4,-13c-5.56854,5.56854 1.48376,10.51624 5,7c2.16986,-2.16986 -3.50211,-8 -5,-8" fill="none" stroke="black" stroke-linecap="round" stroke-width="5"/>
	<path d="M66,178c-8.49189,8.49189 5.79688,13.60936 9,4c1.77977,-5.33932 -8.96632,-7.13474 -10,-3c-2.87359,11.49435 13.55183,4.03455 9,1c-9.44352,-6.29568 -15.29047,17.14523 -9,14c1.73295,-0.86648 3,-3.14049 3,-5" fill="none" stroke="black" stroke-linecap="round" stroke-width="5"/>
	<path d="M225,161c0,6.825 -25.16361,36.78865 -26,49c-1.38963,20.28853 -0.19417,40.69903 1,61c0.6926,11.77416 16,12.23831 16,22" fill="none" stroke="black" stroke-linecap="round" stroke-width="5"/>
	<path d="M110,237c0,9.67395 1.10741,99.32224 -4,84" fill="none" stroke="black" stroke-linecap="round" stroke-width="5"/>
	<path d="M58,226c4.47586,17.90344 1.08178,84.04089 5,86" fill="none" stroke="black" stroke-linecap="round" stroke-width="5"/>
	<path d="M59,218c17.41631,0 66.86329,40.28776 84,46c3.87138,1.29046 2.62588,-14.25076 7,-18c12.25212,-10.50182 29.11894,-11.08921 41,-20c7.54148,-5.65611 9.96709,-15.96709 16,-22c1.05409,-1.05409 -2.94591,-0.94591 -4,-2c-4.95809,-4.95809 1.67017,-17.32983 -3,-22c-2.16667,-2.16667 -33.60238,-3.92048 -39,-5c-21.37138,-4.27428 -85.14555,34.57278 -106,45" fill="none" stroke="black" stroke-linecap="round" stroke-width="5"/>
</svg>
