<?xml version="1.0" ?>
<svg baseProfile="full" height="300" version="1.1" viewBox="[0, 0, 300, 300]" width="300" xmlns="http://www.w3.org/2000/svg" xmlns:ev="http://www.w3.org/2001/xml-events" xmlns:xlink="http://www.w3.org/1999/xlink">
	<defs/>
	<path d="M53,127c2.71749,0 123.87217,-53.87217 125,-55" fill="none" stroke="black" stroke-linecap="round" stroke-width="5"/>
	<path d="M54,128c0,40.06978 5,83.53752 5,125" fill="none" stroke="black" stroke-linecap="round" stroke-width="5"/>
	<path d="M71,124c0,16.66667 0,33.33333 0,50" fill="none" stroke="black" stroke-linecap="round" stroke-width="5"/>
	<path d="M91,108c8.10317,8.10317 3,54.09387 3,69c0,0.4714 0.5286,1 1,1" fill="none" stroke="black" stroke-linecap="round" stroke-width="5"/>
	<path d="M117,104c0,24.17633 1,48.71864 1,73" fill="none" stroke="black" stroke-linecap="round" stroke-width="5"/>
	<path d="M62,150c1.38133,0 84,-44.62383 84,-50" fill="none" stroke="black" stroke-linecap="round" stroke-width="5"/>
	<path d="M58,184c9.98297,0 44.75248,4.49901 51,2c11.65511,-4.66205 15.29974,-16.59948 20,-26c1.3776,-2.7552 20.33151,-18.77535 25,-25c13.58266,-18.11022 3.85369,-47.85369 20,-64c1.20185,-1.20185 3.33333,-0.66667 5,-1c6.32616,-1.26523 74.41672,-0.58328 78,3c4.73025,4.73025 -9,23.90483 -9,29" fill="none" stroke="black" stroke-linecap="round" stroke-width="5"/>
	<path d="M154,201c15.09167,-15.09167 89,-77.49777 89,-101" fill="none" stroke="black" stroke-linecap="round" stroke-width="5"/>
	<path d="M171,185c8.31086,0 17.64908,48.29815 22,57" fill="none" stroke="black" stroke-linecap="round" stroke-width="5"/>
	<path d="M195,167c9.83681,14.75521 14,38.22256 14,56" fill="none" stroke="black" stroke-linecap="round" stroke-width="5"/>
	<path d="M218,138c0,23.84722 18.57451,69.29804 25,95" fill="none" stroke="black" stroke-linecap="round" stroke-width="5"/>
	<path d="M183,200c9.84085,-9.84085 16.34305,-21.9041 26,-32c3.73469,-3.90445 63.73344,-52 66,-52" fill="none" stroke="black" stroke-linecap="round" stroke-width="5"/>
	<path d="M206,215c12.64289,-18.96434 27.2919,-36.57714 44,-52c2.72584,-2.51616 24,-15.12978 24,-20" fill="none" stroke="black" stroke-linecap="round" stroke-width="5"/>
	<path d="M61,215c18.16868,0 121.87007,16.56497 129,13c1.07497,-0.53748 2.15016,-1.15016 3,-2c17.20722,-17.20722 43.70258,-33.70258 58,-48c1.58114,-1.58114 6,-0.76393 6,-3c0,-3.26576 -11.98978,-6.74361 -14,-8c-3.49828,-2.18642 -8.61047,-8 -13,-8" fill="none" stroke="black" stroke-linecap="round" stroke-width="5"/>
	<path d="M57,189c12.0516,-12.0516 106.51061,15.48939 128,-6" fill="none" stroke="black" stroke-linecap="round" stroke-width="5"/>
</svg>
