<?xml version="1.0" ?>
<svg baseProfile="full" height="300" version="1.1" viewBox="[0, 0, 300, 300]" width="300" xmlns="http://www.w3.org/2000/svg" xmlns:ev="http://www.w3.org/2001/xml-events" xmlns:xlink="http://www.w3.org/1999/xlink">
	<defs/>
	<path d="M97,122c-10.3196,20.6392 -34.35682,33.03523 -47,52c-0.46454,0.69681 35.56713,0.06951 38,0c17.7499,-0.50714 78.09201,5.636 92,1c0.17032,-0.05677 3.69569,-20.8805 5,-23c1.33754,-2.1735 17.0034,-25.9966 14,-29c-4.33701,-4.33701 -101.79507,1.20493 -103,0c-3.58524,-3.58524 4.14622,-28.73108 5,-33c4.78327,-23.91633 11.83062,-72.10383 43,-76c21.94864,-2.74358 30.07365,28.19639 36,44c13.3832,35.68855 16.18057,60.1066 19,93c0.57218,6.67544 1.08454,13.36292 2,20c0.80315,5.82282 6,64.38359 6,39" fill="none" stroke="black" stroke-linecap="round" stroke-width="5"/>
	<path d="M176,177c0,18.28149 5,36.56142 5,55" fill="none" stroke="black" stroke-linecap="round" stroke-width="5"/>
	<path d="M146,174c0,6.09974 -1,11.91158 -1,18c0,1.25476 -1,9.98777 -1,8" fill="none" stroke="black" stroke-linecap="round" stroke-width="5"/>
</svg>
