<?xml version="1.0" ?>
<svg baseProfile="full" height="300" version="1.1" viewBox="[0, 0, 300, 300]" width="300" xmlns="http://www.w3.org/2000/svg" xmlns:ev="http://www.w3.org/2001/xml-events" xmlns:xlink="http://www.w3.org/1999/xlink">
	<defs/>
	<path d="M70,142c11.4737,0 8,70.32081 8,51" fill="none" stroke="black" stroke-linecap="round" stroke-width="5"/>
	<path d="M100,134c0,5.05858 1.91681,25.91681 6,30" fill="none" stroke="black" stroke-linecap="round" stroke-width="5"/>
	<path d="M160,150c3.18294,3.18294 2,93.03781 2,60" fill="none" stroke="black" stroke-linecap="round" stroke-width="5"/>
	<path d="M197,88c9.4123,31.37433 6.74371,60.20824 0,92c-0.95652,4.50929 -0.14662,21 -8,21" fill="none" stroke="black" stroke-linecap="round" stroke-width="5"/>
	<path d="M114,58c0,-2.63313 3.80087,-5.60174 5,-8c4.49148,-8.98296 8.47234,-23.60426 17,-30c22.82968,-17.12226 54.97263,-12.0821 64,15c3.76155,11.28465 14.60997,35.58505 7,47c-3.85101,5.77651 -7.61326,9.43646 -10,16c-0.49209,1.35325 -1.76957,8.23043 -4,6" fill="none" stroke="black" stroke-linecap="round" stroke-width="5"/>
	<path d="M121,45c-5.15561,0 -20.46889,19.33567 -23,22c-10.89303,11.46635 -23.08955,21.88674 -36,31c-4.3058,3.03939 -13,3.72954 -13,9c0,1.66667 3.57085,-0.85749 5,0c8.39088,5.03453 21,19.75446 21,30" fill="none" stroke="black" stroke-linecap="round" stroke-width="5"/>
	<path d="M201,76c-12.31405,0 -47.08314,33.77079 -64,38c-1.64893,0.41223 -4.05719,-0.41421 -5,1c-4.31679,6.47518 14.02544,31 19,31" fill="none" stroke="black" stroke-linecap="round" stroke-width="5"/>
</svg>
