<?xml version="1.0" ?>
<svg baseProfile="full" height="300" version="1.1" viewBox="[0, 0, 300, 300]" width="300" xmlns="http://www.w3.org/2000/svg" xmlns:ev="http://www.w3.org/2001/xml-events" xmlns:xlink="http://www.w3.org/1999/xlink">
	<defs/>
	<path d="M205,165c0,3.22658 -9.74978,4.74978 -12,7c-3.44353,3.44353 -9.52552,12.76276 -14,15c-3.79379,1.89689 -8.19802,-0.26733 -12,1c-3.12358,1.04119 -15.58835,19 -16,19" fill="none" stroke="black" stroke-linecap="round" stroke-width="5"/>
	<path d="M151,207c-10.17794,0 -54,-24.8114 -54,-32" fill="none" stroke="black" stroke-linecap="round" stroke-width="5"/>
	<path d="M97,173c0,-12.45332 49,-28.01251 49,-45" fill="none" stroke="black" stroke-linecap="round" stroke-width="5"/>
	<path d="M147,128c9.90755,0 50,24.68154 50,32" fill="none" stroke="black" stroke-linecap="round" stroke-width="5"/>
	<path d="M205,163c-2.62047,-2.62047 -1,-59.6854 -1,-69" fill="none" stroke="black" stroke-linecap="round" stroke-width="5"/>
	<path d="M147,128c0,-14.66667 0,-29.33333 0,-44" fill="none" stroke="black" stroke-linecap="round" stroke-width="5"/>
	<path d="M207,99c-10.33537,0 -21.61688,-0.61688 -27,-6c-6.26051,-6.26051 -27.4623,1.5377 -33,-4c-8.94156,-8.94156 -9.95342,-21.95342 -10,-22c-2.76891,-2.76891 4.92077,-7.92077 7,-10c1,-1 -1,-5 0,-6c1.72123,-1.72123 55.63749,2.81923 58,5c13.51914,12.47921 28.87428,27.12572 13,43c-2.46591,2.46591 -11.05518,-2 -13,-2" fill="none" stroke="black" stroke-linecap="round" stroke-width="5"/>
	<path d="M93,176c0,2.56118 -1.79861,17.20139 0,19c5.71337,5.71337 16.15797,8.07898 24,12c8.56646,4.28323 26.59845,20.70078 38,15c4.99055,-2.49527 20.69832,-5.39664 23,-10c1.07777,-2.15555 5.64692,-7.82346 8,-9c13.58026,-6.79013 19,-19.56111 19,-37" fill="none" stroke="black" stroke-linecap="round" stroke-width="5"/>
	<path d="M153,224c1.89561,0 1,7.14422 1,9c0,23.85636 -5.47127,44.47127 -19,58" fill="none" stroke="black" stroke-linecap="round" stroke-width="5"/>
	<path d="M141,227c0,4.29829 -0.83592,25.83592 -4,29c-5.00771,5.00771 -27.93516,35 -6,35" fill="none" stroke="black" stroke-linecap="round" stroke-width="5"/>
	<path d="M103,206c0,23.00956 -3.32857,35.08877 -18,55c-1.16973,1.5875 -4.23982,7 -7,7" fill="none" stroke="black" stroke-linecap="round" stroke-width="5"/>
	<path d="M198,196c0,19.44053 0.63832,37.93649 2,57c0.02741,0.38378 0.2255,3.88725 0,4c-2.95727,1.47863 -7.25707,-4.08569 -10,-5c-7.93599,-2.64533 -4,-32.02815 -4,-43" fill="none" stroke="black" stroke-linecap="round" stroke-width="5"/>
	<path d="M157,225c0,2.62332 -0.27567,4.72433 1,6c5.58559,5.58559 11,8.1719 11,-5c0,-1.66428 0.77613,-6 -1,-6" fill="none" stroke="black" stroke-linecap="round" stroke-width="5"/>
	<path d="M181,162c0,6.20285 -11.24157,13.12079 -17,16" fill="none" stroke="black" stroke-linecap="round" stroke-width="5"/>
	<path d="M160,182c-0.66667,0.66667 -1.33333,1.33333 -2,2" fill="none" stroke="black" stroke-linecap="round" stroke-width="5"/>
	<path d="M156,186c-15.34457,7.67228 7.97994,-15.96656 11,-21c0.61835,-1.03058 3.19176,-2.84455 2,-3c-8.26334,-1.07783 -18.89339,5.67043 -25,0c-1.00486,-0.93309 10.57908,-16.28418 17,-15c1.03362,0.20672 -0.41529,2.12294 -1,3c-5.58469,8.37703 -14.01312,12.67542 -22,18c-0.27735,0.1849 -0.2,1.26667 0,1c7.40165,-9.86886 27.97038,-22.94076 32,-31c1.66667,-3.33333 -6.96739,2.83385 -10,5c-4.82937,3.44955 -9.44074,7.20061 -14,11c-7.09448,5.91207 -12.87186,12.62331 -21,17c-3.58251,1.92904 -12.87711,4.12289 -10,7c0.4714,0.4714 1.42834,0.343 2,0c5.97611,-3.58567 25.13314,-12.86686 30,-8c2.88775,2.88775 -6.71162,14.42325 -6,13c2.97709,-5.95418 15.94336,-12.95469 21,-17c2.2391,-1.79128 9.86744,-5 7,-5c-1.63709,0 -0.76569,2.60948 -1,3c-5.13834,8.5639 -20.39676,23.69838 -29,28c-0.29814,0.14907 0,-0.66667 0,-1c0,-8.21524 9.93201,-17.63683 13,-25c0.65372,-1.56893 2.69967,-5 1,-5c-7.90504,0 -26.07819,6.05213 -32,10c-2,1.33333 2.30033,-4.30033 4,-6c4.44722,-4.44722 13.18733,-15.62534 16,-10c2.65312,5.30624 -6.10572,12.10572 -9,15c-1,1 -4.1767,3.78446 -3,3c3.05541,-2.03694 5.06052,-5.79539 8,-8c4.90518,-3.67888 11.29112,-5.07593 16,-9c0.72429,-0.60357 1.57836,-2.84327 2,-2c2.74161,5.48322 -8.18155,15.71181 -11,19c-1.69428,1.97666 -5,8.60342 -5,6c0,-5.25619 20.62743,-15.07282 24,-17c4.66667,-2.66667 10.19942,-4.19942 14,-8c0.2357,-0.2357 0,-1.33333 0,-1c0,5.50468 -20.86951,19.88137 -21,20c-4.36969,3.97244 -18.52003,21 -25,21c-0.56744,0 1.58261,-5.34411 2,-6c5.10225,-8.01782 13,-16.92619 13,-27" fill="none" stroke="black" stroke-linecap="round" stroke-width="5"/>
	<path d="M209,70c-44.1563,0 1.85905,26 8,26" fill="none" stroke="black" stroke-linecap="round" stroke-width="5"/>
	<path d="M144,59c0,4.76168 8.54956,17.27478 12,19c0.29814,0.14907 1.33287,-0.01752 1,0c-6.66577,0.35083 -13.33333,0.66667 -20,1" fill="none" stroke="black" stroke-linecap="round" stroke-width="5"/>
</svg>
