<?xml version="1.0" ?>
<svg baseProfile="full" height="300" version="1.1" viewBox="[0, 0, 300, 300]" width="300" xmlns="http://www.w3.org/2000/svg" xmlns:ev="http://www.w3.org/2001/xml-events" xmlns:xlink="http://www.w3.org/1999/xlink">
	<defs/>
	<path d="M80,193c0,13.57455 1,30.00586 1,42" fill="none" stroke="black" stroke-linecap="round" stroke-width="5"/>
	<path d="M125,225c0,7.66667 0,15.33333 0,23" fill="none" stroke="black" stroke-linecap="round" stroke-width="5"/>
	<path d="M181,199c0,13.34291 -1,26.55694 -1,40" fill="none" stroke="black" stroke-linecap="round" stroke-width="5"/>
	<path d="M182,194c0,-26.00103 2.9408,-55.0592 -17,-75c-6.49687,-6.49687 -18.35392,-8.07078 -28,-10c-28.56662,-5.71332 -21,29.85015 -21,48" fill="none" stroke="black" stroke-linecap="round" stroke-width="5"/>
	<path d="M168,161c-38.92291,0 -40,47.63416 -40,77" fill="none" stroke="black" stroke-linecap="round" stroke-width="5"/>
	<path d="M117,138c-2.79225,0 -10.61262,8.74175 -14,11c-25.81777,17.21185 -26,37.99564 -26,69" fill="none" stroke="black" stroke-linecap="round" stroke-width="5"/>
</svg>
