<?xml version="1.0" ?>
<svg baseProfile="full" height="300" version="1.1" viewBox="[0, 0, 300, 300]" width="300" xmlns="http://www.w3.org/2000/svg" xmlns:ev="http://www.w3.org/2001/xml-events" xmlns:xlink="http://www.w3.org/1999/xlink">
	<defs/>
	<path d="M130,51c0,12.30897 -10.5649,35.87019 -5,47c13.96208,27.92415 93.35032,18.24838 98,-5c1.66152,-8.30761 3.30925,-31.31503 -4,-37c-14.97894,-11.65028 -53.71906,-8.28512 -72,-6c-5.10963,0.6387 -11.45145,-1.88714 -15,-1c-1.74146,0.43536 -3.20495,2 -5,2" fill="none" stroke="black" stroke-linecap="round" stroke-width="5"/>
	<path d="M122,92c-9.61221,0 -82,13.10392 -82,25" fill="none" stroke="black" stroke-linecap="round" stroke-width="5"/>
	<path d="M214,107c-29.61139,0 -56.28316,19.28316 -76,39" fill="none" stroke="black" stroke-linecap="round" stroke-width="5"/>
	<path d="M215,98c0,5.15773 3.30413,84.69587 -1,89c-3.42321,3.42321 -19.47864,6.80343 -25,10c-6.63832,3.84324 -45,25 -45,25c0,0 -0.38536,2.77073 -1,4c-4.10637,8.21275 -5,16.70989 -5,26c0,4.45606 -1.52513,17.47487 2,21" fill="none" stroke="black" stroke-linecap="round" stroke-width="5"/>
	<path d="M108,176c34.66689,0 69.52371,1 104,1" fill="none" stroke="black" stroke-linecap="round" stroke-width="5"/>
	<path d="M54,223c39.71235,0 78.52919,8 118,8" fill="none" stroke="black" stroke-linecap="round" stroke-width="5"/>
</svg>
