<?xml version="1.0" ?>
<svg baseProfile="full" height="300" version="1.1" viewBox="[0, 0, 300, 300]" width="300" xmlns="http://www.w3.org/2000/svg" xmlns:ev="http://www.w3.org/2001/xml-events" xmlns:xlink="http://www.w3.org/1999/xlink">
	<defs/>
	<path d="M88,46c0,29.48509 0.56918,58.75657 5,88c1.3221,8.72588 3.48783,17.30504 5,26c0.69482,3.99521 2,16.05518 2,12" fill="none" stroke="black" stroke-linecap="round" stroke-width="5"/>
	<path d="M156,151c0,-26.63948 -2.37939,-54.81656 -7,-81c-1.04973,-5.94846 -6,-13.31845 -6,-18" fill="none" stroke="black" stroke-linecap="round" stroke-width="5"/>
	<path d="M70,48c8.10271,0 118.07033,-1.92967 122,2c2.63523,2.63523 -7.36477,-2.36477 -10,-5c-7.91176,-7.91176 -18.15335,-13.87113 -25,-23c-0.27226,-0.36301 -2,-3 -2,-3c0,0 -3.14684,2.94105 -5,4c-9.42746,5.38712 -19.78091,7.59364 -30,11c-8.9081,2.96937 -24.2388,8.25373 -34,5c-0.00967,-0.00322 -13,-5.53401 -13,-4c0,4.98451 4,14.54429 4,19" fill="none" stroke="black" stroke-linecap="round" stroke-width="5"/>
	<path d="M157,127c0,4.91626 3.68046,34.68046 -5,26" fill="none" stroke="black" stroke-linecap="round" stroke-width="5"/>
	<path d="M152,153c-14.20823,7.10412 -23.76565,20.94141 -40,25c-3.5283,0.88208 -31,6.6515 -31,7" fill="none" stroke="black" stroke-linecap="round" stroke-width="5"/>
	<path d="M81,185c0,11 0,22 0,33c0,4.28149 1.88737,18.88737 -1,16" fill="none" stroke="black" stroke-linecap="round" stroke-width="5"/>
	<path d="M80,234c12.64929,0 78.95131,4.04869 88,-5c7.63007,-7.63007 -14.89872,-57.98715 -16,-69c-0.16434,-1.64338 -0.30047,-10 -3,-10" fill="none" stroke="black" stroke-linecap="round" stroke-width="5"/>
	<path d="M97,232c-2.44075,0 -1,2.00407 -1,7c0,7.7842 -2.33349,77.16675 -10,81c-0.66667,0.33333 -1.25464,-1 -2,-1" fill="none" stroke="black" stroke-linecap="round" stroke-width="5"/>
	<path d="M118,234c0,23.66667 0,47.33333 0,71" fill="none" stroke="black" stroke-linecap="round" stroke-width="5"/>
	<path d="M162,236c0,10.66667 0,21.33333 0,32" fill="none" stroke="black" stroke-linecap="round" stroke-width="5"/>
	<path d="M160,159c0,29.18131 32.48942,59.78307 47,83c1.78184,2.85094 10.42694,22 14,22" fill="none" stroke="black" stroke-linecap="round" stroke-width="5"/>
</svg>
