<?xml version="1.0" ?>
<svg baseProfile="full" height="300" version="1.1" viewBox="[0, 0, 300, 300]" width="300" xmlns="http://www.w3.org/2000/svg" xmlns:ev="http://www.w3.org/2001/xml-events" xmlns:xlink="http://www.w3.org/1999/xlink">
	<defs/>
	<path d="M88,46c0,29.48509 0.56918,58.75657 5,88c1.3221,8.72588 3.48783,17.30504 5,26c0.69482,3.99521 2,16.05518 2,12" fill="none" stroke="black" stroke-linecap="round" stroke-width="5"/>
	<path d="M156,151c0,-26.63948 -2.37939,-54.81656 -7,-81c-1.04973,-5.94846 -6,-13.31845 -6,-18" fill="none" stroke="black" stroke-linecap="round" stroke-width="5"/>
	<path d="M70,48c8.10271,0 118.07033,-1.92967 122,2c2.63523,2.63523 -7.36477,-2.36477 -10,-5c-7.91176,-7.91176 -18.15335,-13.87113 -25,-23c-0.27226,-0.36301 -2,-3 -2,-3c0,0 -3.14684,2.94105 -5,4c-9.42746,5.38712 -19.78091,7.59364 -30,11c-8.9081,2.96937 -24.2388,8.25373 -34,5c-0.00967,-0.00322 -13,-5.53401 -13,-4c0,4.98451 4,14.54429 4,19" fill="none" stroke="black" stroke-linecap="round" stroke-width="5"/>
	<path d="M157,127c0,4.91626 3.68046,34.68046 -5,26" fill="none" stroke="black" stroke-linecap="round" stroke-width="5"/>
	<path d="M152,153c-14.20823,7.10412 -23.76565,20.94141 -40,25c-3.5283,0.88208 -31,6.6515 -31,7" fill="none" stroke="black" stroke-linecap="round" stroke-width="5"/>
	<path d="M81,185c0,11 0,22 0,33c0,4.28149 1.88737,18.88737 -1,16" fill="none" stroke="black" stroke-linecap="round" stroke-width="5"/>
	<path d="M80,234c12.64929,0 78.95131,4.04869 88,-5c7.63007,-7.63007 -14.89872,-57.98715 -16,-69c-0.16434,-1.64338 -0.30047,-10 -3,-10" fill="none" stroke="black" stroke-linecap="round" stroke-width="5"/>
	<path d="M97,232c-2.44075,0 -1,2.00407 -1,7c0,7.7842 -2.33349,77.16675 -10,81c-0.66667,0.33333 -1.25464,-1 -2,-1" fill="none" stroke="black" stroke-linecap="round" stroke-width="5"/>
	<path d="M118,234c0,23.66667 0,47.33333 0,71" fill="none" stroke="black" stroke-linecap="round" stroke-width="5"/>
	<path d="M160,159c0,29.18131 32.48942,59.78307 47,83c1.78184,2.85094 10.42694,22 14,22" fill="none" stroke="black" stroke-linecap="round" stroke-width="5"/>
	<path d="M77,32c7.57165,0 17.69105,1.82724 25,0c9.64349,-2.41087 24.79459,-14.6027 36,-9c3.76064,1.88032 11.8157,6 15,6c1.08362,0 8.00917,1.99083 8,2c-0.70711,0.70711 -2.01005,0.14142 -3,0c-17.28639,-2.46948 -32.92899,-6.20473 -51,-5c-15.18719,1.01248 -15.54122,2.74962 -24,10c-1.97666,1.69428 -4.15911,3.15911 -6,5c-1.17851,1.17851 -5.17851,4.17851 -4,3c5.89341,-5.89341 82.03083,-8.96917 85,-6c0.19691,0.19691 6,2.50902 6,3c0,0.08691 -21.28861,-1.87776 -23,-2c-15.61258,-1.11518 -31.29514,-1 -47,-1c-2.33333,0 -7,0 -7,0c0,0 12.07787,2.35496 18,4c17.36282,4.82301 51.04865,8.52432 66,16c0.31565,0.15782 3.78369,0.21631 4,0c0.26471,-0.26471 0,-2.58824 0,-3c0,-1.71475 -11.07658,-29.15317 -13,-33c-0.06824,-0.13648 -2,-7 -2,-7c0,0 -22.02717,-2.79457 -26,-2c-17.7508,3.55016 -33.63387,5.31694 -49,13c-4.33733,2.16867 -5.91257,-4.54372 -9,-3c-1.94166,0.97083 -7.62441,8.62441 -9,10c-1.83817,1.83817 3.35321,23.35321 5,25c2.20734,2.20734 15.50603,0 19,0c27.32842,0 56.48653,7 83,7" fill="none" stroke="black" stroke-linecap="round" stroke-width="5"/>
</svg>
