<?xml version="1.0" ?>
<svg baseProfile="full" height="300" version="1.1" viewBox="[0, 0, 300, 300]" width="300" xmlns="http://www.w3.org/2000/svg" xmlns:ev="http://www.w3.org/2001/xml-events" xmlns:xlink="http://www.w3.org/1999/xlink">
	<defs/>
	<path d="M23,118c0,-14.2497 62.56987,-54.43013 75,-42c9.55499,9.55499 7,31.09114 7,45c0,10.29154 1.10944,19.78112 -3,28" fill="none" stroke="black" stroke-linecap="round" stroke-width="5"/>
	<path d="M158,156c8.057,-8.057 59.65911,-58.67044 71,-53c5.90927,2.95463 6.2836,72.7164 4,75c-3.11798,3.11798 -45.0693,-6.17822 -50,-7c-15.30934,-2.55156 -36.01067,-1.00534 -50,-8c-9.52697,-4.76348 -29.80426,-21.09787 -42,-15c-12.83323,6.41661 -18.15653,29.31305 -24,41c-2.8018,5.6036 -13,14.64991 -13,21c0,0.27481 5.42557,1.71278 6,2c11.5056,5.7528 30.13639,8.85607 43,11c5.26794,0.87799 10.67403,1.23915 16,2c19.48195,2.78314 70.43687,18.78156 88,10c11.60358,-5.80179 14.76002,-33.80011 17,-45c1.29595,-6.47977 7,-13.48704 7,-19" fill="none" stroke="black" stroke-linecap="round" stroke-width="5"/>
	<path d="M55,212c0,7.78498 -1.89486,49.10514 1,52c2.75836,2.75836 8.3115,5.3115 11,8c1.37837,1.37837 5.97975,5.01013 10,3c11.72064,-5.86032 16.18694,-18.18694 24,-26c21.04981,-21.04981 61.73891,-22.08703 89,-13c9.89374,3.29791 29.02743,3.02743 36,10c9.97652,9.97652 3.10192,36.79616 -2,47c-0.19263,0.38525 -4.55225,0 -5,0c-7.6367,0 -27.81972,3.59014 -35,0c-1.19257,-0.59628 0,-2.66667 0,-4c0,-9.09225 -4.07154,-30.85692 0,-39c2.78029,-5.56058 9,-13.14605 9,-21" fill="none" stroke="black" stroke-linecap="round" stroke-width="5"/>
</svg>
