<?xml version="1.0" ?>
<svg baseProfile="full" height="300" version="1.1" viewBox="[0, 0, 300, 300]" width="300" xmlns="http://www.w3.org/2000/svg" xmlns:ev="http://www.w3.org/2001/xml-events" xmlns:xlink="http://www.w3.org/1999/xlink">
	<defs/>
	<path d="M108,41c-21.10466,0 -11.36041,46.55836 -9,56c4.93672,19.74688 121.26786,36.6607 125,18c2.79151,-13.95754 13.90499,-34.28502 9,-49c-2.68362,-8.05085 -12.32769,-13.12288 -20,-16c-14.00381,-5.25143 -35.31552,-15.22816 -51,-10c-6.12666,2.04222 -19.80577,4.39808 -27,2c-9.42875,-3.14292 -18.67094,-4 -29,-4" fill="none" stroke="black" stroke-linecap="round" stroke-width="5"/>
	<path d="M23,118c0,-14.2497 62.56987,-54.43013 75,-42c9.55499,9.55499 7,31.09114 7,45c0,10.29154 1.10944,19.78112 -3,28" fill="none" stroke="black" stroke-linecap="round" stroke-width="5"/>
	<path d="M55,212c0,7.78498 -1.89486,49.10514 1,52c2.75836,2.75836 8.3115,5.3115 11,8c1.37837,1.37837 5.97975,5.01013 10,3c11.72064,-5.86032 16.18694,-18.18694 24,-26c21.04981,-21.04981 61.73891,-22.08703 89,-13c9.89374,3.29791 29.02743,3.02743 36,10c9.97652,9.97652 3.10192,36.79616 -2,47c-0.19263,0.38525 -4.55225,0 -5,0c-7.6367,0 -27.81972,3.59014 -35,0c-1.19257,-0.59628 0,-2.66667 0,-4c0,-9.09225 -4.07154,-30.85692 0,-39c2.78029,-5.56058 9,-13.14605 9,-21" fill="none" stroke="black" stroke-linecap="round" stroke-width="5"/>
</svg>
