<?xml version="1.0" ?>
<svg baseProfile="full" height="300" version="1.1" viewBox="[0, 0, 300, 300]" width="300" xmlns="http://www.w3.org/2000/svg" xmlns:ev="http://www.w3.org/2001/xml-events" xmlns:xlink="http://www.w3.org/1999/xlink">
	<defs/>
	<path d="M126,38c6.60303,0 15.64146,-1.58963 22,0c15.63174,3.90793 47.75506,24 59,24c0.74536,0 2,0.25464 2,1c0,31.12335 -42.31818,12.95455 -63,10c-3.59433,-0.51348 -20.39113,0.60887 -23,-2c-2.64433,-2.64433 -2.92271,-12.36474 -5,-16c-10.53417,-18.4348 4.04746,-16 19,-16" fill="none" stroke="black" stroke-linecap="round" stroke-width="5"/>
	<path d="M189,86c0,10.93882 -13.57619,20.15238 -18,29c-2.79899,5.59798 1.35027,15.92379 0,22c-6.19636,27.88364 11.60393,54.00655 26,78c1.88413,3.14022 5.90975,8.72925 7,12c0.38708,1.16125 0.54643,9 2,9c1.74274,0 -1.63826,-8.63826 -2,-9c-2.14779,-2.14779 -31.76058,-55.04233 -33,-60c-3.58659,-14.34637 6.04421,-50.61054 11,-63c4.00631,-10.01577 13,-18.18737 13,-29" fill="none" stroke="black" stroke-linecap="round" stroke-width="5"/>
	<path d="M123,70c0,9.16312 -11.26842,19.89474 -14,29c-1.46273,4.87575 1.19915,13.60169 -1,18c-0.50676,1.01352 -3.00539,7.4973 -2,8c1.49565,0.74782 5.3424,0.66848 7,1c18.42003,3.68401 2.20915,-13.48803 8,-27c5.11466,-11.9342 10,-14.65062 10,-27" fill="none" stroke="black" stroke-linecap="round" stroke-width="5"/>
	<path d="M163,139c-19.69817,0 -43.70326,-26.09891 -62,-20c-15.31571,5.10524 -31.73383,18.36692 -47,26c-3.2335,1.61675 -10.44353,0.44353 -13,3c-3.46605,3.46605 2.24494,10.24494 4,12c17.4472,17.4472 38.78427,35.88796 66,32c29.21783,-4.17398 44.55461,-35.55461 61,-52" fill="none" stroke="black" stroke-linecap="round" stroke-width="5"/>
	<path d="M106,194c0,1.97099 3.15517,2.4655 4,5c4.36875,13.10626 1.69213,39.61574 -4,51c-0.45449,0.90898 -1,9 -1,9c0,0 1.8995,-6.69849 3,-10c7.02538,-21.07614 2,-36.09865 2,-58" fill="none" stroke="black" stroke-linecap="round" stroke-width="5"/>
</svg>
