<?xml version="1.0" ?>
<svg baseProfile="full" height="300" version="1.1" viewBox="[0, 0, 300, 300]" width="300" xmlns="http://www.w3.org/2000/svg" xmlns:ev="http://www.w3.org/2001/xml-events" xmlns:xlink="http://www.w3.org/1999/xlink">
	<defs/>
	<path d="M121,75c0,-34.72161 62.38456,-33.61544 78,-18c6.22082,6.22082 16.82581,15.65807 25,25c2.70999,3.09713 25.08702,23.91298 16,33c-0.42758,0.42758 -24.07169,-8.15699 -31,-4c-4.37118,2.62271 -11.80526,23 -15,23" fill="none" stroke="black" stroke-linecap="round" stroke-width="5"/>
	<path d="M118,73c0,1.66236 7.25535,1.12767 9,2c9.61045,4.80523 17.04781,8.03187 26,14c18.25208,12.16805 12.38367,33.38367 16,37c1.83866,1.83866 28.01872,1 25,1" fill="none" stroke="black" stroke-linecap="round" stroke-width="5"/>
	<path d="M110,106c4.39988,4.39988 15.36344,8.59086 21,10c25.67202,6.41801 71.97757,-4.02243 90,14c0.73955,0.73955 4.89082,3.21835 4,5c-10.54114,21.08227 -64.79028,25.29636 -88,34c-1.9553,0.73324 -27.59289,13.67852 -28,13c-6.26429,-10.44049 -13.27177,-22.27177 -22,-31c-0.72526,-0.72526 -3.46167,-2.30749 -3,-3c6.22194,-9.33291 31.76168,-27.76168 41,-37" fill="none" stroke="black" stroke-linecap="round" stroke-width="5"/>
	<path d="M124,70c-11.57613,0 -20.90034,5.17526 -30,12c-36.84293,27.6322 -10,62.25152 -10,103c0,13.66667 0,27.33333 0,41c0,2.37046 1.34286,24.68572 -2,18" fill="none" stroke="black" stroke-linecap="round" stroke-width="5"/>
	<path d="M236,109c-10.85346,0 -22.84957,-3.64513 -35,0c-59.18384,17.75515 -45,93.07075 -45,141" fill="none" stroke="black" stroke-linecap="round" stroke-width="5"/>
</svg>
