<?xml version="1.0" ?>
<svg baseProfile="full" height="300" version="1.1" viewBox="[0, 0, 300, 300]" width="300" xmlns="http://www.w3.org/2000/svg" xmlns:ev="http://www.w3.org/2001/xml-events" xmlns:xlink="http://www.w3.org/1999/xlink">
	<defs/>
	<path d="M153,125c0,-10.05296 -12.5526,-76.4474 -9,-80c1.99558,-1.99558 4.57319,18.86595 5,21c2.57073,12.85363 -0.21721,39.78279 9,49" fill="none" stroke="black" stroke-linecap="round" stroke-width="5"/>
	<path d="M206,144c-7.51859,0 -7,-46.79299 -7,-55c0,-6.57792 -6.89819,-34.10181 -1,-40c0.69685,-0.69685 1.79079,1.58158 2,2c4.87621,9.75242 6,28.25617 6,39c0,29.65496 4,59.63045 4,89c0,8.17793 1,15.87924 1,24c0,1.66667 0,5 0,5c0,0 -3.4169,-4.54225 -4,-6c-6.23537,-15.58843 -9,-37.57836 -9,-54" fill="none" stroke="black" stroke-linecap="round" stroke-width="5"/>
	<path d="M153,169c0,16.9312 3,32.43954 3,49c0,1.33333 0.94281,3.05719 0,4c-1.20185,1.20185 -1,-3.30033 -1,-5c0,-5.66667 0,-11.33333 0,-17c0,-14.44205 1,-28.59181 1,-43" fill="none" stroke="black" stroke-linecap="round" stroke-width="5"/>
	<path d="M98,142c0,19.96186 -11.42002,56.57998 6,74c0.2357,0.2357 0,-0.66667 0,-1c0,-7.66667 0,-15.33333 0,-23c0,-17.49867 8,-32.73903 8,-50" fill="none" stroke="black" stroke-linecap="round" stroke-width="5"/>
	<path d="M150,57c11.39087,-5.69543 27.54708,-5.72646 39,0c3.98398,1.99199 14.15317,11 14,11" fill="none" stroke="black" stroke-linecap="round" stroke-width="5"/>
	<path d="M156,67c-6.8409,0 11.80115,-2 15,-2c13.58852,0 20.97995,0.97995 29,9" fill="none" stroke="black" stroke-linecap="round" stroke-width="5"/>
	<path d="M152,85c21.24962,0 37.02513,-1.97487 50,11" fill="none" stroke="black" stroke-linecap="round" stroke-width="5"/>
	<path d="M154,91c7.87802,0 23.66256,-4.66872 31,-1c3.32354,1.66177 12.5303,8 17,8c2.94444,0 -0.77778,1 -2,1" fill="none" stroke="black" stroke-linecap="round" stroke-width="5"/>
	<path d="M158,106c15.97894,0 33.78583,-3.21417 44,7c0.52705,0.52705 -0.25464,2 -1,2" fill="none" stroke="black" stroke-linecap="round" stroke-width="5"/>
	<path d="M161,111c10.53348,0 44,-1.79774 44,10" fill="none" stroke="black" stroke-linecap="round" stroke-width="5"/>
	<path d="M156,189c20.40003,0 43.54186,-6.16256 63,-12c10.27143,-3.08143 5.58091,-6 -1,-6" fill="none" stroke="black" stroke-linecap="round" stroke-width="5"/>
	<path d="M161,199c8.32586,0 49,-4.02305 49,-8" fill="none" stroke="black" stroke-linecap="round" stroke-width="5"/>
	<path d="M98,170c15.38288,0 30.46929,5.22346 46,6c2.13094,0.10655 34.53663,0 24,0" fill="none" stroke="black" stroke-linecap="round" stroke-width="5"/>
	<path d="M105,187c15.59143,0 30.63265,1.43877 46,4c3.31005,0.55167 35.41478,3 24,3" fill="none" stroke="black" stroke-linecap="round" stroke-width="5"/>
</svg>
