<?xml version="1.0" ?>
<svg baseProfile="full" height="300" version="1.1" viewBox="[0, 0, 300, 300]" width="300" xmlns="http://www.w3.org/2000/svg" xmlns:ev="http://www.w3.org/2001/xml-events" xmlns:xlink="http://www.w3.org/1999/xlink">
	<defs/>
	<path d="M127,65c8.83952,0 18.56903,6.99263 27,9c19.15259,4.56014 49.89047,16 69,16" fill="none" stroke="black" stroke-linecap="round" stroke-width="5"/>
	<path d="M221,89c0,28.92264 0,58.93666 0,88c0,10.33333 0,20.66667 0,31c0,3.68179 -1,14.68179 -1,11" fill="none" stroke="black" stroke-linecap="round" stroke-width="5"/>
	<path d="M213,134c-26.80987,0 -56.82528,15.41264 -80,27c-11.42782,5.71391 -36.81027,0.64559 -49,2c-2.83058,0.31451 5.29815,2.09938 8,3c5.61553,1.87184 4.9404,11.23179 6,16c3.11643,14.02395 16.17649,54.64702 9,69" fill="none" stroke="black" stroke-linecap="round" stroke-width="5"/>
	<path d="M111,215c35.68761,0 72.56439,-7.3911 107,-16c2.89611,-0.72403 25,-4.7748 25,-5" fill="none" stroke="black" stroke-linecap="round" stroke-width="5"/>
	<path d="M128,60c0,6.96743 6.00903,21.08124 7,30c1.58769,14.28921 0,29.70224 0,44c0,4.66667 -1.47573,9.57281 0,14c0.21082,0.63246 1.40372,-0.29814 2,0c10.58567,5.29283 22.08914,10.78176 33,16c25.03541,11.97346 47.28519,27.6426 72,40c12.67546,6.33773 3.68553,0.34277 -1,-2" fill="none" stroke="black" stroke-linecap="round" stroke-width="5"/>
	<path d="M138,141c-7.08902,0 -75.55707,10.55707 -82,17c-0.4714,0.4714 1.33333,0 2,0c4.68924,0 7.51458,37.54375 10,45c2.32091,6.96274 -0.76471,29.52942 3,22" fill="none" stroke="black" stroke-linecap="round" stroke-width="5"/>
	<path d="M72,150c0,12.36537 29.36381,22.7956 37,29c4.66772,3.79252 19.10087,27 24,27" fill="none" stroke="black" stroke-linecap="round" stroke-width="5"/>
</svg>
