<?xml version="1.0" ?>
<svg baseProfile="full" height="300" version="1.1" viewBox="[0, 0, 300, 300]" width="300" xmlns="http://www.w3.org/2000/svg" xmlns:ev="http://www.w3.org/2001/xml-events" xmlns:xlink="http://www.w3.org/1999/xlink">
	<defs/>
	<path d="M204,129c-7.73705,0 -70.82837,7.34326 -66,17c1.41313,2.82626 2.7698,62.46041 1,66c-3.49268,6.98536 -6.75552,13.51104 -10,20c-0.91676,1.83351 -1.65516,8 -3,8" fill="none" stroke="black" stroke-linecap="round" stroke-width="5"/>
	<path d="M203,132c13.06011,0 10,46.9542 10,57c0,7.9763 -1,14.83683 -1,23c0,3.66667 3.66667,11 0,11c-2.43274,0 -2,-6.53217 -2,-8" fill="none" stroke="black" stroke-linecap="round" stroke-width="5"/>
	<path d="M195,167c-29.70029,0 -68.38054,18 -93,18c-0.84553,0 -3.47967,0.52033 -4,0c-8.44143,-8.44143 -14.02115,-23.04231 -19,-33c-0.82396,-1.64792 16.75702,-0.68926 18,-1c14.31691,-3.57923 20.59504,-10.59917 35,-13c1.5064,-0.25107 13.36575,-1.81712 7,-5" fill="none" stroke="black" stroke-linecap="round" stroke-width="5"/>
	<path d="M122,112c-7.30422,-7.30422 -55.07478,-21.77565 -61,-4c-2.0648,6.19439 2.56415,6.69245 4,11c1.05409,3.16228 0,6.66667 0,10c0,29.75973 3,62.46388 3,90" fill="none" stroke="black" stroke-linecap="round" stroke-width="5"/>
	<path d="M86,149c-9.25325,0 -29.5789,5 -11,5" fill="none" stroke="black" stroke-linecap="round" stroke-width="5"/>
</svg>
