<?xml version="1.0" ?>
<svg baseProfile="full" height="300" version="1.1" viewBox="[0, 0, 300, 300]" width="300" xmlns="http://www.w3.org/2000/svg" xmlns:ev="http://www.w3.org/2001/xml-events" xmlns:xlink="http://www.w3.org/1999/xlink">
	<defs/>
	<path d="M46,84c18.57359,0 36.7428,-16.60406 54,-24c32.14911,-13.77819 94.8497,-19.3006 113,17c16.72241,33.44482 -29.30253,50.10084 -50,57c-3.16638,1.05546 -26.03883,-0.92233 -27,1c-6.3117,12.6234 3,86.96921 3,108" fill="none" stroke="black" stroke-linecap="round" stroke-width="5"/>
	<path d="M44,85c0,47.02595 16,95.66393 16,142" fill="none" stroke="black" stroke-linecap="round" stroke-width="5"/>
	<path d="M55,162c13.15508,0 25.09945,-10.02841 39,-14c13.54572,-3.87021 91.96209,-6.51896 101,-2c0.60409,0.30204 1,6.19413 1,7c0,23.40465 -37.49881,48 -62,48c-1.69958,0 -10,4.04781 -10,1" fill="none" stroke="black" stroke-linecap="round" stroke-width="5"/>
	<path d="M205,240c0,-7.4443 -10.50511,-20.03066 -12,-29c-2.9129,-17.47739 -7.07125,-34.64127 -9,-52c-2.01913,-18.17219 8,-33.48189 8,-50" fill="none" stroke="black" stroke-linecap="round" stroke-width="5"/>
	<path d="M53,124c10.63891,0 20.83976,-9.45994 31,-12c16.77428,-4.19357 96.34419,-8.77054 108,-1c2.60011,1.73341 6.10293,3.55146 9,5c6.25776,3.12888 -9.74157,23.61236 -10,24c-13.33594,20.00391 -35.28685,40 -61,40" fill="none" stroke="black" stroke-linecap="round" stroke-width="5"/>
	<path d="M136,49c0,20.66667 0,41.33333 0,62c0,4.02768 3.2758,-7.36003 5,-11c5.82724,-12.30195 7.67948,-27.03845 12,-40c0.20295,-0.60886 1,-5 1,-5c0,0 1.63672,5.27538 2,8c0.79564,5.96732 0.90873,46.30291 6,48c5.52351,1.84117 13.32856,-25.98283 15,-32c1.19027,-4.28498 -0.14466,-16.14466 3,-13c5.75542,5.75542 5.90693,18.89507 7,26c0.66667,4.33333 2,17.38432 2,13c0,-14.30885 5.2394,-27.91519 7,-42c0.63246,-5.05964 2.66082,9.91227 3,15c0.76139,11.4209 -2.11386,28.77228 3,39c1.22927,2.45855 1.58203,-5.28323 2,-8c0.76197,-4.95283 0.70574,-9.99755 1,-15c0.19574,-3.32758 0,-13.33333 0,-10c0,8 0,16 0,24" fill="none" stroke="black" stroke-linecap="round" stroke-width="5"/>
	<path d="M58,69c5.2893,13.22324 11.49211,26.96845 15,41c0.99887,3.99549 5,35.9671 5,23" fill="none" stroke="black" stroke-linecap="round" stroke-width="5"/>
	<path d="M84,71c0,8 0,16 0,24c0,3.33333 0,13.33333 0,10" fill="none" stroke="black" stroke-linecap="round" stroke-width="5"/>
	<path d="M94,68c0,17.27403 1,34.67028 1,52" fill="none" stroke="black" stroke-linecap="round" stroke-width="5"/>
</svg>
