<?xml version="1.0" ?>
<svg baseProfile="full" height="300" version="1.1" viewBox="[0, 0, 300, 300]" width="300" xmlns="http://www.w3.org/2000/svg" xmlns:ev="http://www.w3.org/2001/xml-events" xmlns:xlink="http://www.w3.org/1999/xlink">
	<defs/>
	<path d="M80,147c17.02126,0 -7.20321,35.49198 -15,16c-1.1928,-2.98199 0,-8.76533 0,-12c0,-2.99861 -1.31806,-10.68194 1,-13c5.91548,-5.91548 17.91387,-16.82775 21,-23c4.84209,-9.68419 70,-5.43586 70,-45" fill="none" stroke="black" stroke-linecap="round" stroke-width="5"/>
	<path d="M187,154c0,37.26573 -37.90836,28.1806 -21,0c7.76094,-12.9349 24.29053,-11.86036 35,-19c13.75779,-9.17186 24,-34.78841 24,-51" fill="none" stroke="black" stroke-linecap="round" stroke-width="5"/>
	<path d="M229,97c0,-23.32483 -43.02153,-24 -60,-24c-7.27863,0 -13.8915,0.9845 -21,2c-2.81938,0.40277 -8,5.848 -8,3c0,-3.52826 -0.10012,-7.69964 1,-11c1.96154,-5.88462 7.25606,-7.57682 12,-9c7.561,-2.2683 14.55186,-6.51729 22,-9c15.61165,-5.20388 50.91701,12.87552 59,25c7.45043,11.17564 -8,24.10435 -8,31" fill="none" stroke="black" stroke-linecap="round" stroke-width="5"/>
	<path d="M159,75c0,9.80379 2.98861,66.02277 -1,74c-4.14925,8.29849 -25.37791,15.91861 -33,21c-0.43977,0.29318 -6.32463,-0.48695 -4,3c4.8596,7.2894 27.34618,12.24616 33,13c7.93485,1.05798 34.88346,12.07769 44,6c7.89329,-5.26219 36.54966,-24.90067 30,-38c-0.74536,-1.49071 -3.33333,0 -5,0c-10.64578,0 -18.98176,-3 -30,-3c-11,0 -22,0 -33,0" fill="none" stroke="black" stroke-linecap="round" stroke-width="5"/>
	<path d="M104,117c8.48095,25.44286 23,79.84614 23,107" fill="none" stroke="black" stroke-linecap="round" stroke-width="5"/>
	<path d="M189,192c0,8 0,16 0,24c0,8.73694 1,17.23377 1,26c0,5.20761 1.63466,23.3841 3,7c2.70358,-32.44291 0,-66.48577 0,-99" fill="none" stroke="black" stroke-linecap="round" stroke-width="5"/>
	<path d="M159,112c6.71629,0 61,-12.98287 61,1" fill="none" stroke="black" stroke-linecap="round" stroke-width="5"/>
</svg>
