<?xml version="1.0" ?>
<svg baseProfile="full" height="300" version="1.1" viewBox="[0, 0, 300, 300]" width="300" xmlns="http://www.w3.org/2000/svg" xmlns:ev="http://www.w3.org/2001/xml-events" xmlns:xlink="http://www.w3.org/1999/xlink">
	<defs/>
	<path d="M59,108c28.51651,0 51.93727,-24 80,-24" fill="none" stroke="black" stroke-linecap="round" stroke-width="5"/>
	<path d="M140,145c3.23104,0 9.55893,-15.6692 14,-19c14.67391,-11.00543 38.29547,-25.45909 56,-29c1.46176,-0.29235 -2.75965,1.1731 -4,2c-8.57552,5.71701 -14.82378,13.82378 -22,21c-12.30683,12.30683 -35.95127,20 -53,20c-0.33333,0 0.67662,0.08085 1,0c8.02803,-2.00701 15.04298,-8.94174 22,-13c9.56721,-5.58087 24.22014,-21 35,-21" fill="none" stroke="black" stroke-linecap="round" stroke-width="5"/>
	<path d="M53,107c0,5 0,10 0,15c0,1.33333 0,5.33333 0,4c0,-20.98844 13.30837,-23 31,-23" fill="none" stroke="black" stroke-linecap="round" stroke-width="5"/>
	<path d="M136,58c0,3.81353 2.45961,41.45961 5,44c1.93992,1.93992 15.74751,3.52159 19,5c10.8969,4.95314 23.76076,7 36,7c1.66667,0 3.33333,0 5,0c1.33333,0 2.66667,0 4,0c3.08758,0 29.09398,1.81205 30,0c0.85556,-1.71112 -3,-17.32088 -3,-20c0,-39.15443 -7.22939,-36 -47,-36c-15.99433,0 -31.97355,1 -48,1" fill="none" stroke="black" stroke-linecap="round" stroke-width="5"/>
	<path d="M140,132c-10.87938,10.87938 -20.78007,16.65559 -34,24c-4.20613,2.33674 -13.48501,6.65667 -17,9c-1.38675,0.9245 -5.17851,1.82149 -4,3c0.84984,0.84984 2.15016,1.15016 3,2c2.43199,2.43199 70.58555,22.40413 72,22c9.60252,-2.74358 19.56094,-5.85365 29,-9c12.88807,-4.29602 24.03237,-10.10971 37,-14c2.72789,-0.81837 5.29815,-2.09938 8,-3c2.12132,-0.70711 4.08259,-1.84955 6,-3c2.17682,-1.30609 9.53859,-3 7,-3c-8.8517,0 -82.59699,-25.73133 -89,-30" fill="none" stroke="black" stroke-linecap="round" stroke-width="5"/>
	<path d="M157,195c3.623,0 1.51884,3.03767 3,6c5.68559,11.37118 11.12488,73.08325 17,77c0.7216,0.48107 5.61524,-1.82045 6,-2c4.05257,-1.8912 8.1297,-3.7593 12,-6c14.6172,-8.46259 43.17204,-12.17204 54,-23c1.33333,-1.33333 4.84327,-2.31345 4,-4c-3.9989,-7.9978 -21.89136,-7.05075 -29,-11c-3.21923,-1.78846 -57.95967,-20.36022 -60,-19c-10.22963,6.81975 -47.73421,30.54684 -55,32c-0.73088,0.14618 -1.33333,1.33333 -2,1c-1.49071,-0.74536 0,-3.33333 0,-5c0,-13.7641 1.27694,-32.16919 -3,-45c-3.94079,-11.82236 -12,-17.3325 -12,-31" fill="none" stroke="black" stroke-linecap="round" stroke-width="5"/>
	<path d="M228,111c0,17 0,34 0,51" fill="none" stroke="black" stroke-linecap="round" stroke-width="5"/>
	<path d="M175,114c0,-33.35083 -11.1401,-30 -38,-30" fill="none" stroke="black" stroke-linecap="round" stroke-width="5"/>
</svg>
