<?xml version="1.0" ?>
<svg baseProfile="full" height="300" version="1.1" viewBox="[0, 0, 300, 300]" width="300" xmlns="http://www.w3.org/2000/svg" xmlns:ev="http://www.w3.org/2001/xml-events" xmlns:xlink="http://www.w3.org/1999/xlink">
	<defs/>
	<path d="M54,154c0,36.05602 1,69.75357 1,105c0,0.41176 -0.26471,2.73529 0,3c0.79929,0.79929 5.82109,0 7,0c12.65184,0 60.41619,-30.10405 80,-35c12.37328,-3.09332 63.2008,32.4016 66,38c0.34096,0.68193 3.99746,5.00254 2,7c-9.63881,9.63881 -26.83751,1.91875 -37,7c-5.08098,2.54049 -16.48359,5.48359 -20,9c-2.75201,2.75201 -15.73421,5.18355 -19,6c-2.15543,0.53886 -14.27967,4.72033 -17,2c-5.15012,-5.15012 1,-75.79661 1,-86c0,-4.46453 3.41795,-24.58205 1,-27c-0.46828,-0.46828 -38.92592,-20.23148 -42,-21c-5.52038,-1.3801 -20.26385,2.4723 -23,-3c-0.15782,-0.31565 -0.21631,-3.78369 0,-4c12.69629,-12.69629 46.697,-14.697 50,-18c8.21525,-8.21525 42.5462,-22 56,-22c0.33333,0 0.70186,-0.14907 1,0c10.47355,5.23677 28.67447,32.34894 34,43c0.69514,1.39028 5.09164,1.81672 4,4c-3.66579,7.33157 -81,10.60609 -81,22" fill="none" stroke="black" stroke-linecap="round" stroke-width="5"/>
	<path d="M199,160c0,-23 0,-46 0,-69" fill="none" stroke="black" stroke-linecap="round" stroke-width="5"/>
	<path d="M129,72c0,5.92424 24.23109,13.41036 29,15c10.46993,3.48998 52.55911,17.72045 64,12c1.59743,-0.79871 4,-19.183 4,-21c0,-3.15105 7.71026,-9.43461 4,-15c-0.87099,-1.30648 -13.21574,-17.21574 -15,-19c-0.05727,-0.05727 -4.95381,-1 -5,-1c-10.10618,0 -87.99405,-5.00595 -89,-4c-3.88934,3.88934 -10.45513,32 4,32c1.41126,0 3,-0.671 3,1" fill="none" stroke="black" stroke-linecap="round" stroke-width="5"/>
	<path d="M215,93c0,20.58148 -104,36.27561 -104,49" fill="none" stroke="black" stroke-linecap="round" stroke-width="5"/>
	<path d="M136,75c-15.62061,0 -28.76261,10.10008 -41,19c-14.34857,10.43533 -39.63067,13.63067 -49,23c-0.78247,0.78247 -4.1094,3.8906 -3,5c0.53336,0.53336 7.09478,0.30174 8,0c12.78612,-4.26204 26.37252,-13.02939 37,-21c10.75465,-8.06599 30.56439,-11.78219 43,-18c1.5358,-0.7679 6,-1.83584 6,-3" fill="none" stroke="black" stroke-linecap="round" stroke-width="5"/>
</svg>
