<?xml version="1.0" ?>
<svg baseProfile="full" height="300" version="1.1" viewBox="[0, 0, 300, 300]" width="300" xmlns="http://www.w3.org/2000/svg" xmlns:ev="http://www.w3.org/2001/xml-events" xmlns:xlink="http://www.w3.org/1999/xlink">
	<defs/>
	<path d="M65,181c0,27.64011 -2,56.65298 -2,83" fill="none" stroke="black" stroke-linecap="round" stroke-width="5"/>
	<path d="M167,208c8.18349,16.36698 -3,50.28285 -3,68" fill="none" stroke="black" stroke-linecap="round" stroke-width="5"/>
	<path d="M257,267c0,-0.55342 -20.90773,-32.63093 -23,-41c-4.20591,-16.82366 1.40113,-108.19775 0,-111c-1.64569,-3.29138 -10.26631,-11.13316 -14,-13c-29.38011,-14.69005 -67.15248,-9 -100,-9c-9.64115,0 -18.38242,0.38242 -23,5c-0.41594,0.41594 -4.55197,5.44803 -2,8c15.55421,15.55421 117.55162,1.55162 130,14c5.10167,5.10167 -5,27.53728 -5,34c0,18.53567 -6.36093,52.27814 2,69c7.11633,14.23266 19.55506,45 35,45" fill="none" stroke="black" stroke-linecap="round" stroke-width="5"/>
	<path d="M164,272c18.65274,0 6.74868,-20.24605 11,-33c1.39868,-4.19605 5.71158,-29.28842 2,-33c-1.01344,-1.01344 -8.40759,0 -10,0" fill="none" stroke="black" stroke-linecap="round" stroke-width="5"/>
	<path d="M69,185c1.43233,0 8.08839,-0.91161 9,0c0.8271,0.8271 0.13646,9.65885 0,10c-8.14567,20.36416 -8,39.39212 -8,63c0,2.35702 -2.64298,5 -5,5" fill="none" stroke="black" stroke-linecap="round" stroke-width="5"/>
	<path d="M75,186c14.09423,0 91.27595,31.72405 97,26c7.10835,-7.10835 12.00463,-16.33642 22,-23c9.40152,-6.26768 16.44088,-10.22044 26,-15c0.42164,-0.21082 1,-0.5286 1,-1" fill="none" stroke="black" stroke-linecap="round" stroke-width="5"/>
	<path d="M129,130c-12.25024,0 -32.78486,10.78486 -40,18c-0.23156,0.23156 -3.66769,1.88923 -4,2c-9.47007,3.15669 -50,4.80473 -50,17c0,1.12233 -2.85247,8.14753 -1,10c2.66067,2.66067 10.87154,-1.62385 12,-2c5.21428,-1.73809 8.76536,-9.88268 15,-13c15.03173,-7.51586 41.54385,-8.77193 58,-17c0.42164,-0.21082 0.5286,-1 1,-1c0.78854,0 7,-2.519 7,-3" fill="none" stroke="black" stroke-linecap="round" stroke-width="5"/>
	<path d="M225,137c-6.8269,0 -89.28038,40.28038 -94,45c-1.56674,1.56674 -4,2.89293 -4,5c0,1.11076 -0.70711,6.29289 0,7c0.91161,0.91161 7.56767,0 9,0c3.95825,0 67.12996,-42 81,-42" fill="none" stroke="black" stroke-linecap="round" stroke-width="5"/>
	<path d="M214,173c-30.08483,-3.30199 -59.73451,-12 -90,-12" fill="none" stroke="black" stroke-linecap="round" stroke-width="5"/>
	<path d="M78,182c12.38621,0 30.78482,-10.39241 42,-16c1.4485,-0.72425 4,1.2733 4,-1" fill="none" stroke="black" stroke-linecap="round" stroke-width="5"/>
</svg>
