<?xml version="1.0" ?>
<svg baseProfile="full" height="300" version="1.1" viewBox="[0, 0, 300, 300]" width="300" xmlns="http://www.w3.org/2000/svg" xmlns:ev="http://www.w3.org/2001/xml-events" xmlns:xlink="http://www.w3.org/1999/xlink">
	<defs/>
	<path d="M199,160c0,-23 0,-46 0,-69" fill="none" stroke="black" stroke-linecap="round" stroke-width="5"/>
	<path d="M155,116c0,-9.76365 -2,-20.70167 -2,-32" fill="none" stroke="black" stroke-linecap="round" stroke-width="5"/>
	<path d="M129,72c0,5.92424 24.23109,13.41036 29,15c10.46993,3.48998 52.55911,17.72045 64,12c1.59743,-0.79871 4,-19.183 4,-21c0,-3.15105 7.71026,-9.43461 4,-15c-0.87099,-1.30648 -13.21574,-17.21574 -15,-19c-0.05727,-0.05727 -4.95381,-1 -5,-1c-10.10618,0 -87.99405,-5.00595 -89,-4c-3.88934,3.88934 -10.45513,32 4,32c1.41126,0 3,-0.671 3,1" fill="none" stroke="black" stroke-linecap="round" stroke-width="5"/>
	<path d="M215,93c0,20.58148 -104,36.27561 -104,49" fill="none" stroke="black" stroke-linecap="round" stroke-width="5"/>
	<path d="M136,75c-15.62061,0 -28.76261,10.10008 -41,19c-14.34857,10.43533 -39.63067,13.63067 -49,23c-0.78247,0.78247 -4.1094,3.8906 -3,5c0.53336,0.53336 7.09478,0.30174 8,0c12.78612,-4.26204 26.37252,-13.02939 37,-21c10.75465,-8.06599 30.56439,-11.78219 43,-18c1.5358,-0.7679 6,-1.83584 6,-3" fill="none" stroke="black" stroke-linecap="round" stroke-width="5"/>
</svg>
