<?xml version="1.0" ?>
<svg baseProfile="full" height="300" version="1.1" viewBox="[0, 0, 300, 300]" width="300" xmlns="http://www.w3.org/2000/svg" xmlns:ev="http://www.w3.org/2001/xml-events" xmlns:xlink="http://www.w3.org/1999/xlink">
	<defs/>
	<path d="M60,173c0,20.55322 -7,38.28211 -7,57" fill="none" stroke="black" stroke-linecap="round" stroke-width="5"/>
	<path d="M141,190c0,22 0,44 0,66" fill="none" stroke="black" stroke-linecap="round" stroke-width="5"/>
	<path d="M143,89c0,23.99178 -9,45.12045 -9,69" fill="none" stroke="black" stroke-linecap="round" stroke-width="5"/>
	<path d="M143,104c8.69907,0 19.8955,4.44775 27,8c8.18836,4.09418 29.45286,3 39,3" fill="none" stroke="black" stroke-linecap="round" stroke-width="5"/>
	<path d="M138,124c4.43998,0 55.33588,19.16794 61,22c1.02301,0.51151 5,2.49888 5,3" fill="none" stroke="black" stroke-linecap="round" stroke-width="5"/>
	<path d="M135,157c23.72054,0 48.16862,22 69,22" fill="none" stroke="black" stroke-linecap="round" stroke-width="5"/>
	<path d="M142,191c20.33333,0 40.66667,0 61,0" fill="none" stroke="black" stroke-linecap="round" stroke-width="5"/>
	<path d="M58,169c2.74591,2.74591 63.95773,22 73,22c1.45186,0 7,0.9705 7,2" fill="none" stroke="black" stroke-linecap="round" stroke-width="5"/>
	<path d="M62,168c0,-2.44067 2.34027,-1.72338 4,-2c16.0627,-2.67712 30.32015,-4 47,-4c8.08269,0 13.4761,-1 21,-1" fill="none" stroke="black" stroke-linecap="round" stroke-width="5"/>
	<path d="M59,193c30.92139,0 54.07536,24 78,24" fill="none" stroke="black" stroke-linecap="round" stroke-width="5"/>
	<path d="M51,210c8.52387,0 70.26648,9.26648 75,14c1.60127,1.60127 6.78637,5 10,5" fill="none" stroke="black" stroke-linecap="round" stroke-width="5"/>
	<path d="M142,216c3.56034,0 8.18294,-3.23659 12,-4c14.55261,-2.91052 32.686,1 46,1" fill="none" stroke="black" stroke-linecap="round" stroke-width="5"/>
	<path d="M141,230c0,1.92879 1.92739,2 4,2c18.03846,0 38.91402,-1 55,-1" fill="none" stroke="black" stroke-linecap="round" stroke-width="5"/>
</svg>
