<?xml version="1.0" ?>
<svg baseProfile="full" height="300" version="1.1" viewBox="[0, 0, 300, 300]" width="300" xmlns="http://www.w3.org/2000/svg" xmlns:ev="http://www.w3.org/2001/xml-events" xmlns:xlink="http://www.w3.org/1999/xlink">
	<defs/>
	<path d="M66,137c0,34.56321 3,69.57569 3,103" fill="none" stroke="black" stroke-linecap="round" stroke-width="5"/>
	<path d="M67,139c7.25733,-14.51466 48.07804,-12.07804 59,-23" fill="none" stroke="black" stroke-linecap="round" stroke-width="5"/>
	<path d="M137,164c0,19.4761 2.74393,40.79252 0,60c-2.37713,16.63992 -7,31.93472 -7,49" fill="none" stroke="black" stroke-linecap="round" stroke-width="5"/>
	<path d="M141,164c11.5484,-11.5484 31.32739,-25 46,-25" fill="none" stroke="black" stroke-linecap="round" stroke-width="5"/>
	<path d="M183,135c0,-5.66667 0,-11.33333 0,-17" fill="none" stroke="black" stroke-linecap="round" stroke-width="5"/>
	<path d="M122,115c0,-2.18718 1.19734,-20 2,-20" fill="none" stroke="black" stroke-linecap="round" stroke-width="5"/>
	<path d="M137,101c0,17.68179 2.10081,40.89919 -9,52c-7.59925,7.59925 -19.87442,14.93721 -30,20c-4.27582,2.13791 -7.0974,-3.9513 -11,-2c-2.66886,1.33443 -5.64386,10.28772 -7,13c-2.44959,4.89917 7.49482,7.98964 9,11c0.33333,0.66667 0.33333,1.66667 1,2c0.29814,0.14907 0.7643,-0.2357 1,0c1.81462,1.81462 30.43166,22.56834 34,19c2.99052,-2.99052 8.8328,-9.0836 15,-6c5.46648,2.73324 15.26411,9.36795 24,5c5.79851,-2.89926 13.88639,-7.77277 17,-14c10.38388,-20.76775 13,-46.86314 13,-70c0,-0.33333 0.27735,-0.8151 0,-1c-4.91987,-3.27991 -8.83505,-4.83505 -12,-8c-9.07635,-9.07635 -34.92009,-13.16804 -47,-18c-1.61087,-0.64435 -3,1.11013 -3,-1" fill="none" stroke="black" stroke-linecap="round" stroke-width="5"/>
	<path d="M72,203c11.83358,2.9584 55.49117,33.98233 61,45" fill="none" stroke="black" stroke-linecap="round" stroke-width="5"/>
	<path d="M196,112c0,32.6402 -1,66.74592 -1,99c0,9.20435 -3.0758,24.22741 -6,33c-1.68984,5.06952 1,21.34374 1,16" fill="none" stroke="black" stroke-linecap="round" stroke-width="5"/>
	<path d="M191,218c-15.65579,0 -35.33385,22 -52,22" fill="none" stroke="black" stroke-linecap="round" stroke-width="5"/>
	<path d="M191,210c0,-6.43098 -8.72477,-13.86239 -13,-16" fill="none" stroke="black" stroke-linecap="round" stroke-width="5"/>
	<path d="M72,190c4.3773,0 8.98356,-1 13,-1" fill="none" stroke="black" stroke-linecap="round" stroke-width="5"/>
	<path d="M87,130c0,15.61079 9,29.77729 9,44" fill="none" stroke="black" stroke-linecap="round" stroke-width="5"/>
	<path d="M103,125c0,12.88573 12,22.89747 12,35" fill="none" stroke="black" stroke-linecap="round" stroke-width="5"/>
	<path d="M121,118c0,12.16279 5,21.09867 5,32" fill="none" stroke="black" stroke-linecap="round" stroke-width="5"/>
	<path d="M70,158c19.83694,0 50.05819,-13.05819 63,-26" fill="none" stroke="black" stroke-linecap="round" stroke-width="5"/>
	<path d="M151,152c0,26.47491 -1,52.43206 -1,79" fill="none" stroke="black" stroke-linecap="round" stroke-width="5"/>
	<path d="M160,145c7.39473,7.39473 5,67.38234 5,82" fill="none" stroke="black" stroke-linecap="round" stroke-width="5"/>
	<path d="M174,141c0,27.34786 4,55.69011 4,81" fill="none" stroke="black" stroke-linecap="round" stroke-width="5"/>
	<path d="M140,201c19.77704,0 36.54918,-5.54918 49,-18" fill="none" stroke="black" stroke-linecap="round" stroke-width="5"/>
</svg>
