<?xml version="1.0" ?>
<svg baseProfile="full" height="300" version="1.1" viewBox="[0, 0, 300, 300]" width="300" xmlns="http://www.w3.org/2000/svg" xmlns:ev="http://www.w3.org/2001/xml-events" xmlns:xlink="http://www.w3.org/1999/xlink">
	<defs/>
	<path d="M209,123c-6.56045,0 -27.96975,30.72731 -35,36c-20.5608,15.4206 -52.53997,7.53997 -74,29c-16.48282,16.48282 12.78093,39.21907 21,31c3.62375,-3.62375 5.92349,-16.07651 2,-20c-7.71415,-7.71415 -20.46388,8 -3,8" fill="none" stroke="black" stroke-linecap="round" stroke-width="5"/>
	<path d="M130,111c-9.01337,3.00446 -17.55322,18.60184 -27,24c-15.87777,9.07301 -88.31596,24.36808 -73,55c0.27509,0.55017 8.03507,5 9,5c3.65219,0 10.41515,4.58485 14,1c5.9357,-5.9357 -1.14868,-21.85132 -10,-13" fill="none" stroke="black" stroke-linecap="round" stroke-width="5"/>
	<path d="M52,160c7.57795,0 9,21.02879 9,26c0,28.00484 -8,53.14118 -8,81" fill="none" stroke="black" stroke-linecap="round" stroke-width="5"/>
	<path d="M131,171c0,4.85197 -7.05138,14.05138 -10,17c-1.41421,1.41421 0,4 0,6c0,10.0756 3.79975,17.79975 8,22c0.94281,0.94281 0,2.66667 0,4c0,6.98387 -20.38164,39 1,39" fill="none" stroke="black" stroke-linecap="round" stroke-width="5"/>
	<path d="M89,164c14.91991,0 25.8825,30.18625 51,26c12.66228,-2.11038 50,-20.72488 50,-32c0,-1.93608 4.13506,-5.86494 3,-7c-1.94884,-1.94884 -9.31592,-1.46318 -12,-2c-16.50941,-3.30188 -32.52114,-15.17371 -50,-21c-0.92131,-0.3071 -1.87038,-1.37654 -3,-1c-8.29284,2.76428 -36.44005,27.45984 -34,36c0.52719,1.84517 3.00042,6 5,6" fill="none" stroke="black" stroke-linecap="round" stroke-width="5"/>
	<path d="M129,124c9.45475,-18.9095 16,-51.33813 16,-72" fill="none" stroke="black" stroke-linecap="round" stroke-width="5"/>
	<path d="M144,57c0,-16.2011 43.96445,-11.05333 52,1c15.0526,22.5789 12,48.75572 12,72" fill="none" stroke="black" stroke-linecap="round" stroke-width="5"/>
	<path d="M141,51c0,-9.9914 4.67383,-24.7053 15,-27c49.34193,-10.96487 42.15329,19.03832 70,26c13.55996,3.38999 48.03725,-21.96275 37,-33c-13.07525,-13.07525 -142.48433,-22.27351 -154,-5c-23.42964,35.14446 29.78497,23 43,23" fill="none" stroke="black" stroke-linecap="round" stroke-width="5"/>
	<path d="M230,41c0,20.102 -18.65826,70.29132 -23,92c-2.29917,11.49583 9.2149,58.7851 4,64c-2.40623,2.40623 -8.24513,3.24513 -10,5c-7.16254,7.16254 -1,33.86084 -1,43c0,6.23254 1.45564,5.27819 -1,-7" fill="none" stroke="black" stroke-linecap="round" stroke-width="5"/>
</svg>
