<?xml version="1.0" ?>
<svg baseProfile="full" height="300" version="1.1" viewBox="[0, 0, 300, 300]" width="300" xmlns="http://www.w3.org/2000/svg" xmlns:ev="http://www.w3.org/2001/xml-events" xmlns:xlink="http://www.w3.org/1999/xlink">
	<defs/>
	<path d="M76,159c0,20.27542 8.17443,50.88394 9,74c0.64782,18.13894 -1.7768,36.95082 1,55c0.18275,1.18787 0.79815,3 2,3" fill="none" stroke="black" stroke-linecap="round" stroke-width="5"/>
	<path d="M124,169c0,14.82775 3.15375,20.30687 5,36c2.17402,18.47913 -1,38.32824 -1,57" fill="none" stroke="black" stroke-linecap="round" stroke-width="5"/>
	<path d="M188,145c-7.54402,0 -10.95581,29.04012 -12,34c-7.04077,33.44365 -8.71106,63.86681 2,96" fill="none" stroke="black" stroke-linecap="round" stroke-width="5"/>
	<path d="M208,146c19.98175,29.97263 22,73.75957 22,109" fill="none" stroke="black" stroke-linecap="round" stroke-width="5"/>
	<path d="M204,129c-0.33333,-0.33333 -0.85093,-0.55279 -1,-1c-0.55629,-1.66887 0.99677,-100.99677 3,-103c4.55217,-4.55217 12.13284,4.35031 18,7c16.53936,7.46939 35.54653,14.27327 51,22c4.8074,2.4037 -5.37384,9.31042 -8,14c-4.80943,8.58826 -8.81898,17.63066 -14,26c-3.67598,5.93813 -19.5141,44.2163 -25,45c-13.06017,1.86574 -26.81438,1 -40,1" fill="none" stroke="black" stroke-linecap="round" stroke-width="5"/>
</svg>
