<?xml version="1.0" ?>
<svg baseProfile="full" height="300" version="1.1" viewBox="[0, 0, 300, 300]" width="300" xmlns="http://www.w3.org/2000/svg" xmlns:ev="http://www.w3.org/2001/xml-events" xmlns:xlink="http://www.w3.org/1999/xlink">
	<defs/>
	<path d="M49,100c0,4.92161 8.74882,-4.52014 13,-7c11.5299,-6.72578 20.613,-18.11986 32,-23c27.49507,-11.7836 58.32531,1 87,1" fill="none" stroke="black" stroke-linecap="round" stroke-width="5"/>
	<path d="M125,102c0,-4.31295 6.41974,-72.41974 10,-76c2.04425,-2.04425 37.39328,1.63933 41,2c9.03543,0.90354 20.669,-0.777 29,2c10.50908,3.50303 37.59119,-8.40881 46,0c8.28696,8.28696 -4.0967,38.29011 -7,47c-1.59918,4.79754 -2.9405,25.9405 -6,29c-4.06298,4.06298 -95.66517,0 -116,0" fill="none" stroke="black" stroke-linecap="round" stroke-width="5"/>
	<path d="M204,109c0.74536,0 1,1.25464 1,2c0,23.47718 -2,48.54036 -2,71" fill="none" stroke="black" stroke-linecap="round" stroke-width="5"/>
	<path d="M147,106c0,19 0,38 0,57" fill="none" stroke="black" stroke-linecap="round" stroke-width="5"/>
	<path d="M103,233c0,2.25322 -25.12774,-3.38451 -28,-4c-12.97717,-2.78082 -28.93409,-0.02197 -41,4c-0.70711,0.2357 -1.47295,0.47295 -2,1c-1.66667,1.66667 0.48869,4.69911 1,7c3.51397,15.81288 -7.0537,38.9463 4,50c8.05647,8.05647 35.35197,0.41201 45,-2c7.91601,-1.979 96.63201,-9 113,-9" fill="none" stroke="black" stroke-linecap="round" stroke-width="5"/>
</svg>
