<?xml version="1.0" ?>
<svg baseProfile="full" height="300" version="1.1" viewBox="[0, 0, 300, 300]" width="300" xmlns="http://www.w3.org/2000/svg" xmlns:ev="http://www.w3.org/2001/xml-events" xmlns:xlink="http://www.w3.org/1999/xlink">
	<defs/>
	<path d="M49,100c0,4.92161 8.74882,-4.52014 13,-7c11.5299,-6.72578 20.613,-18.11986 32,-23c27.49507,-11.7836 58.32531,1 87,1" fill="none" stroke="black" stroke-linecap="round" stroke-width="5"/>
	<path d="M125,102c0,-4.31295 6.41974,-72.41974 10,-76c2.04425,-2.04425 37.39328,1.63933 41,2c9.03543,0.90354 20.669,-0.777 29,2c10.50908,3.50303 37.59119,-8.40881 46,0c8.28696,8.28696 -4.0967,38.29011 -7,47c-1.59918,4.79754 -2.9405,25.9405 -6,29c-4.06298,4.06298 -95.66517,0 -116,0" fill="none" stroke="black" stroke-linecap="round" stroke-width="5"/>
	<path d="M204,109c0.74536,0 1,1.25464 1,2c0,23.47718 -2,48.54036 -2,71" fill="none" stroke="black" stroke-linecap="round" stroke-width="5"/>
	<path d="M147,106c0,19 0,38 0,57" fill="none" stroke="black" stroke-linecap="round" stroke-width="5"/>
	<path d="M147,161c-26.5602,0 -47.47728,-1.26136 -68,9c-1.75653,0.87827 -20,-0.67786 -20,0c0,6.10049 8.52495,18.78743 12,24c4.41163,6.61745 -8.13061,23.86939 -2,30c9.97825,9.97825 49.42521,7.37767 60,7c1.96881,-0.07031 75.10064,-6.10064 78,-9c2.12132,-2.12132 -0.53666,-6.04839 0,-9c1.4878,-8.18289 6.85299,-21.44104 4,-30c-0.85708,-2.57123 -6.27018,-3.13509 -8,-4c-5.95296,-2.97648 -1.67615,-23.67615 -7,-29c-5.72852,-5.72852 -54.41842,9 -66,9" fill="none" stroke="black" stroke-linecap="round" stroke-width="5"/>
</svg>
