<?xml version="1.0" ?>
<svg baseProfile="full" height="300" version="1.1" viewBox="[0, 0, 300, 300]" width="300" xmlns="http://www.w3.org/2000/svg" xmlns:ev="http://www.w3.org/2001/xml-events" xmlns:xlink="http://www.w3.org/1999/xlink">
	<defs/>
	<path d="M86,107c-2.00444,0 -1,4.71171 -1,6c0,15.70645 -3,31.16403 -3,47c0,5.97924 -0.44081,12.23677 1,18c0.39551,1.58206 0.62104,6 2,6" fill="none" stroke="black" stroke-linecap="round" stroke-width="5"/>
	<path d="M142,79c0,27.02348 -3,54.3201 -3,81" fill="none" stroke="black" stroke-linecap="round" stroke-width="5"/>
	<path d="M179,86c0,6.3814 7.97252,85.94505 10,90" fill="none" stroke="black" stroke-linecap="round" stroke-width="5"/>
	<path d="M151,104c-7.31309,14.62618 -11,63.83561 -11,84c0,3.33333 0,10 0,10c0,0 3,-6.54279 3,-8" fill="none" stroke="black" stroke-linecap="round" stroke-width="5"/>
	<path d="M144,66c0,-11.97818 21.92729,-30.2553 28,-39c0.83281,-1.19925 17.50503,-27.6338 20,-32c2.52441,-4.41772 4.40216,-16.59784 8,-13c12.3298,12.3298 22.86661,35.73323 30,50c1.79505,3.59011 -5.43039,5.91646 -8,9c-1.25091,1.5011 -44,54.58663 -44,55" fill="none" stroke="black" stroke-linecap="round" stroke-width="5"/>
</svg>
