<?xml version="1.0" ?>
<svg baseProfile="full" height="300" version="1.1" viewBox="[0, 0, 300, 300]" width="300" xmlns="http://www.w3.org/2000/svg" xmlns:ev="http://www.w3.org/2001/xml-events" xmlns:xlink="http://www.w3.org/1999/xlink">
	<defs/>
	<path d="M74,67c-6.05255,6.05255 -19.28357,11.56715 -23,19c-14.1951,28.39021 -34.79439,49.97194 -42,86c-8.39063,41.95313 11,83.8673 11,122" fill="none" stroke="black" stroke-linecap="round" stroke-width="5"/>
	<path d="M219,50c49.23308,0 53.67536,138.70145 64,180c2.93182,11.72729 -2.68838,50.31162 4,57c2.29874,2.29874 -1,29.91313 -1,17" fill="none" stroke="black" stroke-linecap="round" stroke-width="5"/>
	<path d="M117,129c0,3.83645 -20.31499,29.85831 -24,36c-17.94978,29.91629 -10,64.55057 -10,96c0,5.08634 -3.45829,27.54171 0,31c1.75339,1.75339 13.4046,-0.7341 15,-1" fill="none" stroke="black" stroke-linecap="round" stroke-width="5"/>
	<path d="M198,77c0,11.86027 18.80038,35.60077 26,50c18.73426,37.46853 31.37282,83.11846 44,121c2.68061,8.04183 5.92517,50 -3,50" fill="none" stroke="black" stroke-linecap="round" stroke-width="5"/>
	<path d="M119,129c0,14.30658 8.19678,34.78712 12,50c1.86739,7.46957 1.67277,28.67277 6,33c7.17372,7.17372 61.96529,-0.42361 73,-2c5.84448,-0.83493 30.74824,4.25176 35,0c17.03724,-17.03724 0.70083,-77.29917 -12,-90c-3.33417,-3.33417 -26.25436,5.52544 -31,6c-29.2165,2.92165 -56.90211,14 -85,14" fill="none" stroke="black" stroke-linecap="round" stroke-width="5"/>
</svg>
