<?xml version="1.0" ?>
<svg baseProfile="full" height="300" version="1.1" viewBox="[0, 0, 300, 300]" width="300" xmlns="http://www.w3.org/2000/svg" xmlns:ev="http://www.w3.org/2001/xml-events" xmlns:xlink="http://www.w3.org/1999/xlink">
	<defs/>
	<path d="M46,173c0,10.58772 -5.45728,22.91457 -10,32c-6.97754,13.95508 -12,56.34533 -12,72" fill="none" stroke="black" stroke-linecap="round" stroke-width="5"/>
	<path d="M110,174c0,17.2004 3.89306,41.21389 -5,59c-2.01964,4.03929 2,69.14356 2,82" fill="none" stroke="black" stroke-linecap="round" stroke-width="5"/>
	<path d="M46,174c-17.44408,0 -42.27999,-31.72001 -30,-44c4.23722,-4.23722 13.6989,-7.34945 19,-10c14.69864,-7.34932 66.69502,6 84,6c4.56217,0 25.8281,-3.1719 29,0c3.62574,3.62574 1.56045,8.68135 3,13c9.39506,28.18517 -32.18352,33 -51,33" fill="none" stroke="black" stroke-linecap="round" stroke-width="5"/>
	<path d="M31,118c0,16.71344 6,34.48125 6,49" fill="none" stroke="black" stroke-linecap="round" stroke-width="5"/>
	<path d="M52,115c0,11.31456 -5.42138,31.26414 -9,42c-1.71297,5.13891 -1,11.45208 -1,17c0,0.59121 3,4.86764 3,2" fill="none" stroke="black" stroke-linecap="round" stroke-width="5"/>
	<path d="M72,120c0,10.43898 -24,49.82016 -24,57" fill="none" stroke="black" stroke-linecap="round" stroke-width="5"/>
	<path d="M100,118c0,13.15331 0.11663,26.30024 -2,39c-1.0371,6.22261 3,20.14764 3,17" fill="none" stroke="black" stroke-linecap="round" stroke-width="5"/>
	<path d="M117,119c0,13.66667 0,27.33333 0,41c0,3.1004 0,18.602 0,15" fill="none" stroke="black" stroke-linecap="round" stroke-width="5"/>
	<path d="M126,125c4.86364,0 6,30.94972 6,36" fill="none" stroke="black" stroke-linecap="round" stroke-width="5"/>
	<path d="M15,140c0,-1.671 1.58874,-1 3,-1c15.42192,0 33.59113,4 46,4" fill="none" stroke="black" stroke-linecap="round" stroke-width="5"/>
	<path d="M17,147c17.11601,0 35.03001,10 54,10" fill="none" stroke="black" stroke-linecap="round" stroke-width="5"/>
	<path d="M104,147c15.39099,0 40.19506,8.80494 54,-5" fill="none" stroke="black" stroke-linecap="round" stroke-width="5"/>
	<path d="M114,136c17.8707,0 35.68798,-5 53,-5c0.4714,0 1,-0.5286 1,-1" fill="none" stroke="black" stroke-linecap="round" stroke-width="5"/>
</svg>
