<?xml version="1.0" ?>
<svg baseProfile="full" height="300" version="1.1" viewBox="[0, 0, 300, 300]" width="300" xmlns="http://www.w3.org/2000/svg" xmlns:ev="http://www.w3.org/2001/xml-events" xmlns:xlink="http://www.w3.org/1999/xlink">
	<defs/>
	<path d="M49,162c0,12.65732 -6.54842,24.74208 -9,37c-4.83621,24.18105 -5,46.66312 -5,71" fill="none" stroke="black" stroke-linecap="round" stroke-width="5"/>
	<path d="M180,164c0,21.68426 -3.8033,48.21318 -9,69c-5.46275,21.85102 3,59.77464 3,83" fill="none" stroke="black" stroke-linecap="round" stroke-width="5"/>
	<path d="M39,205c3.79317,0 8.86477,3.17295 13,4c31.71985,6.34397 84.02117,2 118,2" fill="none" stroke="black" stroke-linecap="round" stroke-width="5"/>
	<path d="M49,156c0,-15.84384 0,-33.08476 0,-50" fill="none" stroke="black" stroke-linecap="round" stroke-width="5"/>
	<path d="M181,174c0,-36.42651 1,-78.45418 1,-112" fill="none" stroke="black" stroke-linecap="round" stroke-width="5"/>
	<path d="M49,79c0,-9.66667 0,-19.33333 0,-29" fill="none" stroke="black" stroke-linecap="round" stroke-width="5"/>
	<path d="M56,64c10.64025,0 22.97225,-2.32408 34,-6c2.14128,-0.71376 74.26925,-2.73075 75,-2c2.96551,2.96551 5,16.97524 5,21" fill="none" stroke="black" stroke-linecap="round" stroke-width="5"/>
	<path d="M59,61c0,7.52427 3,13.10654 3,18" fill="none" stroke="black" stroke-linecap="round" stroke-width="5"/>
</svg>
