<?xml version="1.0" ?>
<svg baseProfile="full" height="300" version="1.1" viewBox="[0, 0, 300, 300]" width="300" xmlns="http://www.w3.org/2000/svg" xmlns:ev="http://www.w3.org/2001/xml-events" xmlns:xlink="http://www.w3.org/1999/xlink">
	<defs/>
	<path d="M74,38c-1.34715,0 -1.36797,1.73594 -2,3c-2.89729,5.79457 -17.91533,54.08467 -12,60c1.22264,1.22264 8.98339,1 10,1c32.15514,0 63.93703,-2 97,-2c4.95468,0 27.75801,1.36299 30,-2c4.57406,-6.86109 7,-24.7078 7,-33c0,-1.58704 2.97745,-18.01128 1,-19c-11.12831,-5.56416 -37.57536,0.62123 -50,0c-28.83271,-1.44164 -57.26889,-6 -86,-6" fill="none" stroke="black" stroke-linecap="round" stroke-width="5"/>
	<path d="M60,68c-38.56907,0 -63.94485,61 -33,61" fill="none" stroke="black" stroke-linecap="round" stroke-width="5"/>
	<path d="M207,71c4.23484,0 8.95148,7.9903 14,9c61.73163,12.34633 37.50417,112.75209 -4,92" fill="none" stroke="black" stroke-linecap="round" stroke-width="5"/>
	<path d="M65,97c0,23.00296 -11.82348,35.26478 2,56c1.82057,2.73085 6.20809,9 10,9" fill="none" stroke="black" stroke-linecap="round" stroke-width="5"/>
	<path d="M190,96c0,14.57132 11.87599,44.24802 4,60c-1.86699,3.73398 -3.14235,11.14235 -6,14c-0.91624,0.91624 -7,0.55532 -7,2" fill="none" stroke="black" stroke-linecap="round" stroke-width="5"/>
	<path d="M73,141c0,56.94769 31.77493,31 73,31c5.71469,0 34.06767,0.06767 38,4c0.1,0.1 2.9,0.1 3,0c4.54872,-4.54872 5.44599,-18.78398 7,-25c5.17978,-20.71911 -82.33307,-0.16654 -96,-7c-4.41053,-2.20526 -25.82465,-7.35069 -28,-3" fill="none" stroke="black" stroke-linecap="round" stroke-width="5"/>
	<path d="M186,175c0,28.8258 -10.80719,59.96406 -5,89c1.73608,8.68041 5,13.90482 5,23" fill="none" stroke="black" stroke-linecap="round" stroke-width="5"/>
</svg>
