<?xml version="1.0" ?>
<svg baseProfile="full" height="300" version="1.1" viewBox="[0, 0, 300, 300]" width="300" xmlns="http://www.w3.org/2000/svg" xmlns:ev="http://www.w3.org/2001/xml-events" xmlns:xlink="http://www.w3.org/1999/xlink">
	<defs/>
	<path d="M134,170c0,-11.11221 -0.45777,-28.45777 -9,-37c-7.97518,-7.97518 -29.94213,-8.94213 -40,-19c-5.51356,-5.51356 -8.92637,-15.92637 -14,-21c-8.8784,-8.8784 11.46076,-32.82025 18,-35c31.33024,-10.44341 71.56009,-49.14664 111,-36c15.45542,5.15181 21.97182,24.08453 16,42c-3.84397,11.53192 -21.07705,35.07705 -27,41c-11.39016,11.39016 9.038,36.92401 2,51c-5.34269,10.68538 -13.37696,13.18848 -25,19c-0.39473,0.19737 -6,0 -6,0c0,0 6.52834,2 2,2" fill="none" stroke="black" stroke-linecap="round" stroke-width="5"/>
	<path d="M74,67c-6.05255,6.05255 -19.28357,11.56715 -23,19c-14.1951,28.39021 -34.79439,49.97194 -42,86c-8.39063,41.95313 11,83.8673 11,122" fill="none" stroke="black" stroke-linecap="round" stroke-width="5"/>
	<path d="M219,50c49.23308,0 53.67536,138.70145 64,180c2.93182,11.72729 -2.68838,50.31162 4,57c2.29874,2.29874 -1,29.91313 -1,17" fill="none" stroke="black" stroke-linecap="round" stroke-width="5"/>
	<path d="M198,77c0,11.86027 18.80038,35.60077 26,50c18.73426,37.46853 31.37282,83.11846 44,121c2.68061,8.04183 5.92517,50 -3,50" fill="none" stroke="black" stroke-linecap="round" stroke-width="5"/>
	<path d="M119,129c0,14.30658 8.19678,34.78712 12,50c1.86739,7.46957 1.67277,28.67277 6,33c7.17372,7.17372 61.96529,-0.42361 73,-2c5.84448,-0.83493 30.74824,4.25176 35,0c17.03724,-17.03724 0.70083,-77.29917 -12,-90c-3.33417,-3.33417 -26.25436,5.52544 -31,6c-29.2165,2.92165 -56.90211,14 -85,14" fill="none" stroke="black" stroke-linecap="round" stroke-width="5"/>
</svg>
