<?xml version="1.0" ?>
<svg baseProfile="full" height="300" version="1.1" viewBox="[0, 0, 300, 300]" width="300" xmlns="http://www.w3.org/2000/svg" xmlns:ev="http://www.w3.org/2001/xml-events" xmlns:xlink="http://www.w3.org/1999/xlink">
	<defs/>
	<path d="M95,62c15.83726,0 30.86945,6.26679 47,7c6.81261,0.30966 41.62117,-5.75766 46,3c6.96857,13.93714 -13.02785,39.05569 -19,51c-4.21401,8.42802 -7.29619,22.29619 -14,29c-0.2357,0.2357 -0.66667,0 -1,0c-23.70565,0 -51.60356,-8.32071 -75,-13c-1.17121,-0.23424 -6.61065,-0.83196 -7,-2c-4.54479,-13.63438 23.31085,-61.6217 30,-75" fill="none" stroke="black" stroke-linecap="round" stroke-width="5"/>
	<path d="M72,138c-5.68197,0 -40.37707,33.50826 -42,40c-0.42762,1.71048 -3.62415,2.7517 -3,4c1.32279,2.64559 53.20389,38.3731 57,40c7.28777,3.12333 21.63722,6.09069 30,4c12.43533,-3.10883 42.64124,-72.32062 46,-74" fill="none" stroke="black" stroke-linecap="round" stroke-width="5"/>
	<path d="M85,76c0,26.06782 -23.41141,42.27427 -44,56c-2.01496,1.34331 -23,14 -23,14c0,0 6.92259,-7.79632 11,-11c18.86833,-14.82511 38.27381,-17.12857 54,-36c0.68275,-0.8193 15.67746,-13.32254 15,-14c-1.49071,-1.49071 -4.0426,1.21704 -6,2c-21.2654,8.50616 -32.93575,25.08484 -52,37c-5.58485,3.49053 -12.88415,7.55366 -19,10c-3.87793,1.55117 -14.96232,7.32077 -11,6c8.94988,-2.98329 19.28175,-10.89729 28,-15c8.49283,-3.99663 17.88414,-7.36237 26,-12c10.51086,-6.00621 23.0658,-12.0658 31,-20" fill="none" stroke="black" stroke-linecap="round" stroke-width="5"/>
	<path d="M181,128c16.41899,32.83797 17,78.1507 17,115" fill="none" stroke="black" stroke-linecap="round" stroke-width="5"/>
	<path d="M190,184c-14.38094,0 -28.44732,-2 -42,-2" fill="none" stroke="black" stroke-linecap="round" stroke-width="5"/>
	<path d="M114,220c0,10.91327 15,38.91954 15,56" fill="none" stroke="black" stroke-linecap="round" stroke-width="5"/>
	<path d="M154,176c0,3.65741 -22.85053,36.55158 -26,46c-1.72234,5.16701 -8.48593,2.94371 -10,9c-3.44863,13.7945 4,25.46913 4,38" fill="none" stroke="black" stroke-linecap="round" stroke-width="5"/>
	<path d="M8,137c0,15.73483 9.65795,34.60563 12,51c3.943,27.60101 6,57.45486 6,85" fill="none" stroke="black" stroke-linecap="round" stroke-width="5"/>
	<path d="M24,214c0,-2.06627 22.29793,-1 25,-1c20.42297,0 16.31843,17 36,17c6.53892,0 23.9681,-3.0319 29,2" fill="none" stroke="black" stroke-linecap="round" stroke-width="5"/>
	<path d="M180,128c0,17.48543 -4.93987,34.4098 -14,48c-0.30544,0.45816 -4.06587,5.93413 -5,5c-8.92542,-8.92542 13,-26.30152 13,-34" fill="none" stroke="black" stroke-linecap="round" stroke-width="5"/>
	<path d="M77,90c-4.60126,0 -11.43048,13.87667 -15,17c-18.12249,15.85717 -41.6271,15.2542 -52,36" fill="none" stroke="black" stroke-linecap="round" stroke-width="5"/>
</svg>
