<?xml version="1.0" ?>
<svg baseProfile="full" height="300" version="1.1" viewBox="[0, 0, 300, 300]" width="300" xmlns="http://www.w3.org/2000/svg" xmlns:ev="http://www.w3.org/2001/xml-events" xmlns:xlink="http://www.w3.org/1999/xlink">
	<defs/>
	<path d="M71,91c7.9896,0 27.86777,-14.03549 39,-16c13.76267,-2.42871 28.13788,-3.73981 42,-5c6.04161,-0.54924 56.51347,-10.48653 60,-7c18.4171,18.4171 6,54.89171 6,77" fill="none" stroke="black" stroke-linecap="round" stroke-width="5"/>
	<path d="M79,93c-5.70911,11.41822 -42,57.8027 -42,59" fill="none" stroke="black" stroke-linecap="round" stroke-width="5"/>
	<path d="M214,138c1.20185,1.20185 0.0198,3.64026 -1,5c-12.97152,17.29536 -33.48011,29.48011 -48,44" fill="none" stroke="black" stroke-linecap="round" stroke-width="5"/>
	<path d="M73,166c8.12868,-16.25736 71.816,-37.184 80,-29c3.8659,3.8659 3.03621,11.18104 4,16c0.95993,4.79964 2.92095,14.19763 1,19c-22.94607,57.36518 -27.84059,36.07971 -70,15c-8.53189,-4.26595 -10.82202,-20 -21,-20" fill="none" stroke="black" stroke-linecap="round" stroke-width="5"/>
	<path d="M56,124c12.02503,0 17.73601,29.73601 26,38" fill="none" stroke="black" stroke-linecap="round" stroke-width="5"/>
	<path d="M72,110c9.93299,9.93299 16.73567,25.47133 23,38" fill="none" stroke="black" stroke-linecap="round" stroke-width="5"/>
	<path d="M157,179c8.34979,0 22,25.95781 22,33" fill="none" stroke="black" stroke-linecap="round" stroke-width="5"/>
	<path d="M166,169c12.79573,0 25.28663,26.57326 30,36c0.61344,1.22688 2.25244,6 3,6" fill="none" stroke="black" stroke-linecap="round" stroke-width="5"/>
	<path d="M53,161c0,13.30577 11.09853,32.65325 14,46c5.24135,24.1102 9,50.20219 9,75c0,8.00651 0,-7.0892 0,-9" fill="none" stroke="black" stroke-linecap="round" stroke-width="5"/>
	<path d="M42,149c3.00054,0 4.69615,27.58203 5,29c7.10436,33.15368 14,68.40553 14,102" fill="none" stroke="black" stroke-linecap="round" stroke-width="5"/>
	<path d="M137,198c13.65916,0 24,65.15854 24,79" fill="none" stroke="black" stroke-linecap="round" stroke-width="5"/>
	<path d="M150,197c0,16.51349 7.36594,35.84242 9,53c0.96578,10.14066 2.74907,19.99252 4,30c0.16538,1.32304 0,5.33333 0,4" fill="none" stroke="black" stroke-linecap="round" stroke-width="5"/>
	<path d="M160,231c0,-17.52949 23.81163,-17.81163 33,-27" fill="none" stroke="black" stroke-linecap="round" stroke-width="5"/>
	<path d="M55,178c0,-12.57724 35.33234,-15.33234 42,-22" fill="none" stroke="black" stroke-linecap="round" stroke-width="5"/>
	<path d="M117,89c2.35702,0 0.7246,4.65912 1,7c1.96932,16.7392 8.63596,74.63596 19,85" fill="none" stroke="black" stroke-linecap="round" stroke-width="5"/>
	<path d="M143,94c-6.0799,18.23969 -2,43.04395 -2,62" fill="none" stroke="black" stroke-linecap="round" stroke-width="5"/>
	<path d="M191,79c0,11.22989 -30.69551,44.69551 -40,54" fill="none" stroke="black" stroke-linecap="round" stroke-width="5"/>
	<path d="M214,107c-19.49578,9.74789 -37.56561,25.56561 -53,41" fill="none" stroke="black" stroke-linecap="round" stroke-width="5"/>
</svg>
