<?xml version="1.0" ?>
<svg baseProfile="full" height="300" version="1.1" viewBox="[0, 0, 300, 300]" width="300" xmlns="http://www.w3.org/2000/svg" xmlns:ev="http://www.w3.org/2001/xml-events" xmlns:xlink="http://www.w3.org/1999/xlink">
	<defs/>
	<path d="M88,138c-2.79939,0 -59.23666,40.47333 -61,44c-2.26314,4.52627 1,12.23533 1,17" fill="none" stroke="black" stroke-linecap="round" stroke-width="5"/>
	<path d="M202,140c7.41338,0 -7.54929,22.54929 -10,25c-1.17851,1.17851 -3.25464,1.50929 -4,3c-4.48565,8.97129 -17.26823,17.0243 -24,26c-5.39448,7.19264 -3.14994,13.59974 -5,21c-0.45825,1.83301 -4.98019,8.01981 -3,10c1.22748,1.22748 3.96269,-0.03731 6,2" fill="none" stroke="black" stroke-linecap="round" stroke-width="5"/>
	<path d="M29,229c0,7.74448 -6.02844,22.94311 -2,31c2.68776,5.37551 85.16281,16.4593 99,13c1.64893,-0.41223 0.63129,-3.3408 1,-5c1.93159,-8.69214 25.25582,-63.74418 19,-70c-6.3578,-6.3578 -26.71334,-4.07926 -35,-5c-45.47359,-5.05262 -62.66117,0.32234 -84,43" fill="none" stroke="black" stroke-linecap="round" stroke-width="5"/>
	<path d="M30,262c0,4.02066 -2.43243,21.56757 0,24c3.07437,3.07437 72.37319,-20.31341 89,-12c6.92301,3.46151 14.16376,16.32752 18,24c0.29814,0.59628 0.4714,1.5286 0,2c-2.93237,2.93237 -22.17323,0 -27,0c-14.42801,0 -21.50134,-10.10705 -37,-9c-13.57398,0.96957 -45.56152,9.15772 -53,-2" fill="none" stroke="black" stroke-linecap="round" stroke-width="5"/>
</svg>
