<?xml version="1.0" ?>
<svg baseProfile="full" height="300" version="1.1" viewBox="[0, 0, 300, 300]" width="300" xmlns="http://www.w3.org/2000/svg" xmlns:ev="http://www.w3.org/2001/xml-events" xmlns:xlink="http://www.w3.org/1999/xlink">
	<defs/>
	<path d="M37,287c0,-43.44416 -37.01268,-66.77971 -5,-118c20.35703,-32.57125 44.6164,-52.3082 78,-69c12.37269,-6.18634 27.37378,-9.37378 37,-19" fill="none" stroke="black" stroke-linecap="round" stroke-width="5"/>
	<path d="M225,289c0,-6.33706 -25.39363,-30.66497 -28,-45c-7.83224,-43.07734 1.54592,-99.32755 41,-123c7.61866,-4.5712 13.49772,-15.24886 21,-19" fill="none" stroke="black" stroke-linecap="round" stroke-width="5"/>
	<path d="M230,122c0,-10.10181 34.23432,-47.1716 39,-71c1.68175,-8.40874 3.90595,-36.09405 -3,-43c-20.07799,-20.07799 -80.50142,0.70198 -95,21c-2.41765,3.3847 -8.05606,9.11212 -10,13c-7.71264,15.42527 23.16085,72.83915 -2,98" fill="none" stroke="black" stroke-linecap="round" stroke-width="5"/>
	<path d="M228,117c-18.28387,18.28387 -53,13.65536 -53,42" fill="none" stroke="black" stroke-linecap="round" stroke-width="5"/>
	<path d="M162,130c0,2.88237 -6.03486,18.03486 -8,20" fill="none" stroke="black" stroke-linecap="round" stroke-width="5"/>
	<path d="M76,151c0,12.34876 -47.80914,82.12904 -56,100c-1.84375,4.02273 -14.24748,24.75252 -9,30c2.46791,2.46791 19.55396,-4.60238 23,-5c28.56083,-3.29548 57.26584,-2 86,-2c22,0 44,0 66,0c0.10398,0 29.87657,2.37029 30,2c3.79307,-11.3792 -2.67317,-28.56085 -3,-40c-0.53232,-18.63121 0,-37.35575 0,-56c0,-1.33333 1.19257,-3.40372 0,-4c-8.34799,-4.17399 -18.72703,1.05977 -28,0c-35.30355,-4.03469 -68.04966,-14 -104,-14" fill="none" stroke="black" stroke-linecap="round" stroke-width="5"/>
	<path d="M122,269c7.84935,0 -2.06668,35 6,35" fill="none" stroke="black" stroke-linecap="round" stroke-width="5"/>
	<path d="M211,278c5.47617,0 29,36.82397 29,42" fill="none" stroke="black" stroke-linecap="round" stroke-width="5"/>
</svg>
