<?xml version="1.0" ?>
<svg baseProfile="full" height="300" version="1.1" viewBox="[0, 0, 300, 300]" width="300" xmlns="http://www.w3.org/2000/svg" xmlns:ev="http://www.w3.org/2001/xml-events" xmlns:xlink="http://www.w3.org/1999/xlink">
	<defs/>
	<path d="M87,66c-5.70828,5.70828 1,26.01076 1,33c0,6.66839 0.38937,48.38937 5,53c2.52717,2.52717 9.24719,-1.60674 12,-2c13.98071,-1.99724 29.8933,0 44,0c6.40959,0 44.36729,1.94907 47,-2c8.36193,-12.54289 8,-29.63577 8,-44c0,-15.96934 -6,-31.93828 -6,-48c0,-3.33333 2.35702,-7.64298 0,-10c-4.09016,-4.09016 -24.72453,-1 -30,-1c-25.33333,0 -50.66667,0 -76,0c-0.60406,0 -7.70044,-0.59911 -8,0c-2.35865,4.71729 -2.70763,8.43855 1,14c3.92004,5.88006 -0.99005,8.00995 5,14" fill="none" stroke="black" stroke-linecap="round" stroke-width="5"/>
	<path d="M88,138c-2.79939,0 -59.23666,40.47333 -61,44c-2.26314,4.52627 1,12.23533 1,17" fill="none" stroke="black" stroke-linecap="round" stroke-width="5"/>
	<path d="M29,229c0,7.74448 -6.02844,22.94311 -2,31c2.68776,5.37551 85.16281,16.4593 99,13c1.64893,-0.41223 0.63129,-3.3408 1,-5c1.93159,-8.69214 25.25582,-63.74418 19,-70c-6.3578,-6.3578 -26.71334,-4.07926 -35,-5c-45.47359,-5.05262 -62.66117,0.32234 -84,43" fill="none" stroke="black" stroke-linecap="round" stroke-width="5"/>
	<path d="M30,262c0,4.02066 -2.43243,21.56757 0,24c3.07437,3.07437 72.37319,-20.31341 89,-12c6.92301,3.46151 14.16376,16.32752 18,24c0.29814,0.59628 0.4714,1.5286 0,2c-2.93237,2.93237 -22.17323,0 -27,0c-14.42801,0 -21.50134,-10.10705 -37,-9c-13.57398,0.96957 -45.56152,9.15772 -53,-2" fill="none" stroke="black" stroke-linecap="round" stroke-width="5"/>
</svg>
