<?xml version="1.0" ?>
<svg baseProfile="full" height="300" version="1.1" viewBox="[0, 0, 300, 300]" width="300" xmlns="http://www.w3.org/2000/svg" xmlns:ev="http://www.w3.org/2001/xml-events" xmlns:xlink="http://www.w3.org/1999/xlink">
	<defs/>
	<path d="M60,146c0,-17.47749 21.32865,12.50703 17,19c-11.25795,16.88693 -31.17531,5.64937 -38,-8c-14.73961,-29.47923 27.88904,-22.72226 41,-26c28.95611,-7.23903 50.24985,-60.50031 37,-87" fill="none" stroke="black" stroke-linecap="round" stroke-width="5"/>
	<path d="M120,54c0,12.47657 -57.26687,24.86806 -51,-19c3.33831,-23.36815 37.66541,-22.04726 55,-27c25.78068,-7.36591 88.46381,24.97587 111,40c6.0808,4.05387 11.72992,20.45984 14,25c11.47501,22.95001 -56,16.70611 -56,0c0,-1.0605 6,4.26919 6,6c0,8.17984 -0.56237,16.09305 -2,24c-2.09845,11.54147 -17.99596,61.99596 -25,69c-5.51504,5.51504 12.6801,0.12006 17,3c4.74932,3.16621 14.58586,20.41414 9,26c-6.99556,6.99556 -32.12107,16.62631 -43,13c-6.11485,-2.03828 -5.81874,-26.39375 -1,-28c5.16478,-1.72159 12.08093,1 17,1" fill="none" stroke="black" stroke-linecap="round" stroke-width="5"/>
	<path d="M114,59c10.5903,-5.29515 87,2.42447 87,21" fill="none" stroke="black" stroke-linecap="round" stroke-width="5"/>
	<path d="M120,100c8.39118,0 73,-0.13102 73,17" fill="none" stroke="black" stroke-linecap="round" stroke-width="5"/>
	<path d="M125,102c-3.41353,0 -6.90109,-1 -10,-1" fill="none" stroke="black" stroke-linecap="round" stroke-width="5"/>
</svg>
