<?xml version="1.0" ?>
<svg baseProfile="full" height="300" version="1.1" viewBox="[0, 0, 300, 300]" width="300" xmlns="http://www.w3.org/2000/svg" xmlns:ev="http://www.w3.org/2001/xml-events" xmlns:xlink="http://www.w3.org/1999/xlink">
	<defs/>
	<path d="M259,155c0,31 0,62 0,93" fill="none" stroke="black" stroke-linecap="round" stroke-width="5"/>
	<path d="M171,152c0,14.96296 71.18251,9 83,9" fill="none" stroke="black" stroke-linecap="round" stroke-width="5"/>
	<path d="M192,249c24.41558,0 49.30943,2 74,2" fill="none" stroke="black" stroke-linecap="round" stroke-width="5"/>
	<path d="M196,163c0,12.89401 8.80132,28.20528 12,41c3.30151,13.20606 1,29.36792 1,43" fill="none" stroke="black" stroke-linecap="round" stroke-width="5"/>
	<path d="M227,155c10.35694,20.71388 7,62.31321 7,87" fill="none" stroke="black" stroke-linecap="round" stroke-width="5"/>
	<path d="M249,158c-2.08876,0 -0.74054,6.57297 -1,8c-3.47355,19.10455 -5.93968,47.30162 -2,67c0.83427,4.17137 4,8.86348 4,13" fill="none" stroke="black" stroke-linecap="round" stroke-width="5"/>
	<path d="M178,201c41.73239,0 82.63993,-4 124,-4" fill="none" stroke="black" stroke-linecap="round" stroke-width="5"/>
</svg>
