<?xml version="1.0" ?>
<svg baseProfile="full" height="300" version="1.1" viewBox="[0, 0, 300, 300]" width="300" xmlns="http://www.w3.org/2000/svg" xmlns:ev="http://www.w3.org/2001/xml-events" xmlns:xlink="http://www.w3.org/1999/xlink">
	<defs/>
	<path d="M78,90c50.64251,0 104.32847,4 155,4" fill="none" stroke="black" stroke-linecap="round" stroke-width="5"/>
	<path d="M83,103c27.08211,0 122.02269,13.48865 137,6" fill="none" stroke="black" stroke-linecap="round" stroke-width="5"/>
	<path d="M233,105c-23.8475,23.8475 -16.66166,65.32333 -31,94c-4.38009,8.76018 -4.21831,20.82746 -9,28c-0.35122,0.52683 -2.65132,3.34868 -2,4c0.4714,0.4714 1.33333,0 2,0c4.94592,0 28.1922,3.8078 32,0c25.9824,-25.9824 15.39177,-70.74241 20,-103c1.70937,-11.96558 4.11598,-22.46391 7,-34c0.25565,-1.02262 1.74536,-2.25464 1,-3c-0.91026,-0.91026 -8.41307,0 -10,0" fill="none" stroke="black" stroke-linecap="round" stroke-width="5"/>
</svg>
