<?xml version="1.0" ?>
<svg baseProfile="full" height="300" version="1.1" viewBox="[0, 0, 300, 300]" width="300" xmlns="http://www.w3.org/2000/svg" xmlns:ev="http://www.w3.org/2001/xml-events" xmlns:xlink="http://www.w3.org/1999/xlink">
	<defs/>
	<path d="M83,103c27.08211,0 122.02269,13.48865 137,6" fill="none" stroke="black" stroke-linecap="round" stroke-width="5"/>
	<path d="M85,99c-2.96592,0 -3.83559,27.50676 -5,31c-10.7645,32.29349 -18.4057,69.81141 -32,97c-0.29814,0.59628 0.5547,1.6302 0,2c-1.57518,1.05012 -18.26184,-3.63092 -21,-5c-1.19257,-0.59628 -0.42164,-2.73509 0,-4c3.22922,-9.68765 7.54468,-21.81277 9,-32c0.14907,-1.0435 0.60852,-2.0213 1,-3c13.09706,-32.74266 40,-60.79463 40,-97" fill="none" stroke="black" stroke-linecap="round" stroke-width="5"/>
	<path d="M233,105c-23.8475,23.8475 -16.66166,65.32333 -31,94c-4.38009,8.76018 -4.21831,20.82746 -9,28c-0.35122,0.52683 -2.65132,3.34868 -2,4c0.4714,0.4714 1.33333,0 2,0c4.94592,0 28.1922,3.8078 32,0c25.9824,-25.9824 15.39177,-70.74241 20,-103c1.70937,-11.96558 4.11598,-22.46391 7,-34c0.25565,-1.02262 1.74536,-2.25464 1,-3c-0.91026,-0.91026 -8.41307,0 -10,0" fill="none" stroke="black" stroke-linecap="round" stroke-width="5"/>
</svg>
