<?xml version="1.0" ?>
<svg baseProfile="full" height="300" version="1.1" viewBox="[0, 0, 300, 300]" width="300" xmlns="http://www.w3.org/2000/svg" xmlns:ev="http://www.w3.org/2001/xml-events" xmlns:xlink="http://www.w3.org/1999/xlink">
	<defs/>
	<path d="M80,40c4.12066,12.36199 -0.83755,33.74368 6,44c1.10756,1.66135 46.8511,1 54,1c12.72254,0 25.34529,0.05456 38,-1c1.99309,-0.16609 5.10557,1.78885 6,0c7.64185,-15.28371 10.92099,-46.70864 -13,-45c-12.33699,0.88121 -24.58522,1 -37,1c-16.41042,0 -31.79915,2 -48,2" fill="none" stroke="black" stroke-linecap="round" stroke-width="5"/>
	<path d="M181,80c-7.9038,15.80761 -2,63.10376 -2,83" fill="none" stroke="black" stroke-linecap="round" stroke-width="5"/>
	<path d="M84,167c1.59521,0 1.57309,4.29235 2,6c3.49634,13.98534 1.76822,57.23178 -7,66c-0.53244,0.53244 -1.66651,6 -3,6c-0.86909,0 0.94542,-13.29695 -10,-6c-9.07169,6.0478 5.93601,7.20201 7,8c1.33333,1 2.82149,4.17851 4,3c1.86788,-1.86788 -0.58663,-7 -3,-7c-5.65994,0 3,-2.76323 3,0c0,2.22636 -4.70963,0.70963 -4,0c1.2693,-1.2693 1.64796,3.2398 2,5c0.32686,1.6343 4,1.33333 4,3" fill="none" stroke="black" stroke-linecap="round" stroke-width="5"/>
	<path d="M93,171c18.20967,0 49.16104,5.94632 67,0c3.48786,-1.16262 27.00145,-11.99711 29,-8c3.19646,6.39291 -0.22536,20.78878 -2,27c-5.86235,20.51823 6.70031,44.39754 4,66c-0.31806,2.5445 -1.98013,3 -4,3c-10.38408,0 -2.71826,-9.15477 -1,-4c3.0546,9.16379 -5.51685,4 -3,4" fill="none" stroke="black" stroke-linecap="round" stroke-width="5"/>
	<path d="M91,219c6.12528,6.12528 3.56424,17.56424 9,23c0.16684,0.16684 0.08201,-11.91799 6,-6c0.52705,0.52705 1.47295,0.47295 2,1c0.74536,0.74536 -1.94591,1 -3,1c-0.67252,0 -9,8.25972 -9,0" fill="none" stroke="black" stroke-linecap="round" stroke-width="5"/>
</svg>
