<?xml version="1.0" ?>
<svg baseProfile="full" height="300" version="1.1" viewBox="[0, 0, 300, 300]" width="300" xmlns="http://www.w3.org/2000/svg" xmlns:ev="http://www.w3.org/2001/xml-events" xmlns:xlink="http://www.w3.org/1999/xlink">
	<defs/>
	<path d="M78,90c50.64251,0 104.32847,4 155,4" fill="none" stroke="black" stroke-linecap="round" stroke-width="5"/>
	<path d="M83,103c27.08211,0 122.02269,13.48865 137,6" fill="none" stroke="black" stroke-linecap="round" stroke-width="5"/>
	<path d="M85,99c-2.96592,0 -3.83559,27.50676 -5,31c-10.7645,32.29349 -18.4057,69.81141 -32,97c-0.29814,0.59628 0.5547,1.6302 0,2c-1.57518,1.05012 -18.26184,-3.63092 -21,-5c-1.19257,-0.59628 -0.42164,-2.73509 0,-4c3.22922,-9.68765 7.54468,-21.81277 9,-32c0.14907,-1.0435 0.60852,-2.0213 1,-3c13.09706,-32.74266 40,-60.79463 40,-97" fill="none" stroke="black" stroke-linecap="round" stroke-width="5"/>
</svg>
