<?xml version="1.0" ?>
<svg baseProfile="full" height="300" version="1.1" viewBox="[0, 0, 300, 300]" width="300" xmlns="http://www.w3.org/2000/svg" xmlns:ev="http://www.w3.org/2001/xml-events" xmlns:xlink="http://www.w3.org/1999/xlink">
	<defs/>
	<path d="M73,105c0,27.52622 5.47253,57.83518 10,85c1.45607,8.73642 3.26133,17.30664 5,26c0.47592,2.37958 2,9.4267 2,7c0,-35.6148 -12.98684,-73.90785 -18,-109c-1.89336,-13.25351 -3.21354,-31 -6,-31c-5.42627,0 2.10793,10.64756 3,16c3.7101,22.2606 5.81026,44.67179 9,67c1.40479,9.83351 1.61277,19.2894 3,29c0.04714,0.32998 0,1.33333 0,1c0,-19.02402 -2.90314,-38.12824 -5,-57c-0.51666,-4.64994 -1,-9.32144 -1,-14c0,-1.33333 -0.18856,-5.31993 0,-4c3.08081,21.56567 9.41321,42.47926 13,64c0.39181,2.35086 5,65.42454 5,39" fill="none" stroke="black" stroke-linecap="round" stroke-width="5"/>
	<path d="M82,186c22.08371,0 52.79716,6.89858 71,16c8.07836,4.03918 56.93065,-13.12304 67,-16c9.24527,-2.64151 36.14231,-8.28461 40,-16c6.999,-13.998 -7,-55.30713 -7,-74c0,-13.37481 1,-27.99892 1,-42c0,-0.66667 0,-2 0,-2c0,0 10.85741,36.66793 12,42c7.54957,35.23132 1,67.63007 1,103c0,10.61985 -0.9044,21.52581 1,32c0.59926,3.29592 1,6.65004 1,10c0,2.35702 2.66667,8.66667 1,7c-6.76223,-6.76223 -7.36131,-28.9099 -8,-37c-2.05269,-26.0007 2.45825,-52.18838 0,-78c-1.74817,-18.35579 -9,-36.74319 -9,-55c0,-4.14271 1.32053,-11.0384 0,-15c-0.14612,-0.43835 -2.20816,-3.39592 -1,-4c2.35098,-1.17549 28.46178,8.23089 12,0c-26.76457,-13.38228 -54.21123,-27.15842 -78,-45c-7.29645,-5.47234 -19.24755,-6.24755 -25,-12c-5.62086,-5.62086 -29.74929,5.89972 -35,8c-1.33417,0.53367 -7.09605,0.09605 -8,1c-4.90821,4.90821 3.24772,20.50457 0,27c-9.34896,18.69791 -16.89484,25.93991 -38,38c-6.38478,3.64845 -10.0441,6.0441 -15,11c-1.38217,1.38217 -8.41471,5 -7,5" fill="none" stroke="black" stroke-linecap="round" stroke-width="5"/>
	<path d="M76,123c20.62236,0 39.89317,-8 61,-8c1.34154,0 6.38866,0.83401 7,-1c4.07165,-12.21496 -13.40761,-56.81523 -20,-70c-0.6447,-1.28939 0.14236,-3 -2,-3" fill="none" stroke="black" stroke-linecap="round" stroke-width="5"/>
	<path d="M89,68c6.33519,3.16759 11,46.83155 11,38" fill="none" stroke="black" stroke-linecap="round" stroke-width="5"/>
	<path d="M100,57c2.18607,0 2.37918,3.38586 3,5c8.40019,21.84049 4.37464,44.91545 11,67c1.90922,6.36406 2,2.89215 2,-1" fill="none" stroke="black" stroke-linecap="round" stroke-width="5"/>
	<path d="M74,116c0,-10.76508 54.72171,-27.36086 70,-35c0.42164,-0.21082 1,-0.5286 1,-1" fill="none" stroke="black" stroke-linecap="round" stroke-width="5"/>
	<path d="M64,99c3.70271,-7.40542 67.98212,-43 81,-43" fill="none" stroke="black" stroke-linecap="round" stroke-width="5"/>
	<path d="M185,110c-3.07318,0 -1.87717,5.92927 -2,9c-0.23077,5.76932 -6.17745,87.76618 11,62" fill="none" stroke="black" stroke-linecap="round" stroke-width="5"/>
	<path d="M217,99c8.26145,24.78436 11,55.05059 11,81c0,15.05409 2.22108,-10.32647 3,-15" fill="none" stroke="black" stroke-linecap="round" stroke-width="5"/>
	<path d="M238,94c3.05313,21.37193 4.53712,76.07424 13,93" fill="none" stroke="black" stroke-linecap="round" stroke-width="5"/>
</svg>
