<?xml version="1.0" ?>
<svg baseProfile="full" height="300" version="1.1" viewBox="[0, 0, 300, 300]" width="300" xmlns="http://www.w3.org/2000/svg" xmlns:ev="http://www.w3.org/2001/xml-events" xmlns:xlink="http://www.w3.org/1999/xlink">
	<defs/>
	<path d="M99,112c-6.40125,12.8025 -6.53373,29.06745 -13,42c-8.62515,17.25029 -26,33.99089 -26,51" fill="none" stroke="black" stroke-linecap="round" stroke-width="5"/>
	<path d="M60,202c-5.8006,-5.8006 -8.0272,20.0136 8,12c8.30201,-4.15101 -4.49181,-18 -10,-18" fill="none" stroke="black" stroke-linecap="round" stroke-width="5"/>
	<path d="M162,137c-0.60569,0 -5.16892,25.29899 -6,28c-4.76855,15.49778 -11.91782,35.91782 -23,47" fill="none" stroke="black" stroke-linecap="round" stroke-width="5"/>
	<path d="M224,133c0,23.27402 1.33566,57.55711 23,72c2.04205,1.36137 1.54791,5 4,5" fill="none" stroke="black" stroke-linecap="round" stroke-width="5"/>
	<path d="M252,210c-5.04027,0 -14.52593,10.15802 -6,13c9.33445,3.11148 7.87099,-11 0,-11" fill="none" stroke="black" stroke-linecap="round" stroke-width="5"/>
	<path d="M172,156c-5.52441,0 -4.23822,18.61911 3,15c3.56451,-1.78225 -2.82821,-13 -5,-13" fill="none" stroke="black" stroke-linecap="round" stroke-width="5"/>
	<path d="M170,156c0,-5.33059 -4,-8.44231 -4,-13" fill="none" stroke="black" stroke-linecap="round" stroke-width="5"/>
	<path d="M97,109c8.06003,8.06003 27.14652,9.76435 38,17c4.40787,2.93858 19.74145,23.17237 23,21c17.24516,-11.49678 41.72871,-19 63,-19c0.94966,0 10,0 10,0c0,0 -8.29051,-5.52701 -9,-6c-14.0915,-9.39434 -41.84804,-18.69609 -50,-35c-13.35615,-26.7123 -59.15313,7.15313 -76,24" fill="none" stroke="black" stroke-linecap="round" stroke-width="5"/>
	<path d="M165,77c7.37976,-7.37976 -5.66929,-59.00393 5,-43" fill="none" stroke="black" stroke-linecap="round" stroke-width="5"/>
	<path d="M230,125c0,-25.27898 -14,-53.01766 -14,-76" fill="none" stroke="black" stroke-linecap="round" stroke-width="5"/>
	<path d="M148,27c15.77245,0 31.41397,-0.15162 45,8c2.22796,1.33678 19.00041,12.99959 19,13c-2.68742,2.68742 -7.27322,-2.25464 -11,-3c-14.15486,-2.83097 -29.00846,-3.00242 -43,-7c-1.94957,-0.55702 -6,-1 -6,-1c0,0 6.64691,1.44115 10,2c8.57175,1.42862 17.54841,0.69976 26,2c6.88576,1.05935 24.00537,10.29759 5,-2c-3.26366,-2.11178 -6.41733,-4.49151 -10,-6c-4.23986,-1.7852 -13.94888,-4 -19,-4c-1.66667,0 3.35008,-0.2357 5,0c3.36518,0.48074 6.67824,1.27788 10,2c9.89048,2.1501 19.44029,5.67488 29,9c4.86693,1.69284 10.34139,2.6707 15,5c0.66667,0.33333 2.52705,1.52705 2,1c-9.55544,-9.55544 -23.24166,-12 -36,-12c-3.66667,0 -7.33333,0 -11,0c-2,0 -8,0 -6,0c0.66667,0 1.33333,0 2,0c1,0 2.00917,-0.13511 3,0c15.97012,2.17774 30.61839,6.80501 46,11c0.11245,0.03067 8,4 8,4c0,0 -8.18973,-2.93611 -12,-5c-17.2038,-9.31872 -30.03689,-13.00777 -49,-17c-4.43657,-0.93402 -8.75485,-2.40807 -13,-4c-1.97396,-0.74023 -7.49071,-3.49071 -6,-2c15.12277,15.12277 48.17397,5.17397 64,21" fill="none" stroke="black" stroke-linecap="round" stroke-width="5"/>
</svg>
