<?xml version="1.0" ?>
<svg baseProfile="full" height="300" version="1.1" viewBox="[0, 0, 300, 300]" width="300" xmlns="http://www.w3.org/2000/svg" xmlns:ev="http://www.w3.org/2001/xml-events" xmlns:xlink="http://www.w3.org/1999/xlink">
	<defs/>
	<path d="M107,119c-9.36777,0 -19.9474,11.9474 -26,18c-0.15584,0.15584 -2,2 -2,2c0,0 3.22616,-3.44789 5,-5c7.53592,-6.59393 22.04664,-19.68221 32,-23c35.16283,-11.72094 46.51769,-2 73,-2" fill="none" stroke="black" stroke-linecap="round" stroke-width="5"/>
	<path d="M196,61c-6.02913,12.05825 -8,45.45895 -8,61c0,0.33333 -0.2357,0.7643 0,1c8.48177,8.48177 78.71618,16.42573 89,1c5.34626,-8.0194 6.10917,-16.67249 3,-26c-1.94931,-5.84793 2.12857,-19.43572 -5,-23c-11.68525,-5.84262 -32.49904,-4.74984 -46,-7c-12.67715,-2.11286 -27.08838,-11 -39,-11" fill="none" stroke="black" stroke-linecap="round" stroke-width="5"/>
	<path d="M284,123c-32.16652,0 -77.33809,47 -99,47" fill="none" stroke="black" stroke-linecap="round" stroke-width="5"/>
	<path d="M61,171c12.62682,0 19.62216,-14.90554 32,-18c17.97444,-4.49361 50.59977,-7.59977 63,-20c0.21631,-0.21631 3.68435,-0.15782 4,0c20.64137,10.32068 41.42712,22.47571 64,30c3.96609,1.32203 11.7816,2.7816 14,5c1.43372,1.43372 -0.28807,4.10151 -1,6c-1.84351,4.91601 -33.67847,25.33038 -39,24c-5.50969,-1.37742 -11.89419,-10.92064 -16,-14c-21.54595,-16.15946 -56.57939,-43 -85,-43" fill="none" stroke="black" stroke-linecap="round" stroke-width="5"/>
</svg>
