<?xml version="1.0" ?>
<svg baseProfile="full" height="300" version="1.1" viewBox="[0, 0, 300, 300]" width="300" xmlns="http://www.w3.org/2000/svg" xmlns:ev="http://www.w3.org/2001/xml-events" xmlns:xlink="http://www.w3.org/1999/xlink">
	<defs/>
	<path d="M107,119c-9.36777,0 -19.9474,11.9474 -26,18c-0.15584,0.15584 -2,2 -2,2c0,0 3.22616,-3.44789 5,-5c7.53592,-6.59393 22.04664,-19.68221 32,-23c35.16283,-11.72094 46.51769,-2 73,-2" fill="none" stroke="black" stroke-linecap="round" stroke-width="5"/>
	<path d="M196,61c-6.02913,12.05825 -8,45.45895 -8,61c0,0.33333 -0.2357,0.7643 0,1c8.48177,8.48177 78.71618,16.42573 89,1c5.34626,-8.0194 6.10917,-16.67249 3,-26c-1.94931,-5.84793 2.12857,-19.43572 -5,-23c-11.68525,-5.84262 -32.49904,-4.74984 -46,-7c-12.67715,-2.11286 -27.08838,-11 -39,-11" fill="none" stroke="black" stroke-linecap="round" stroke-width="5"/>
	<path d="M284,123c-32.16652,0 -77.33809,47 -99,47" fill="none" stroke="black" stroke-linecap="round" stroke-width="5"/>
	<path d="M65,175c-7.12989,7.12989 3.56177,84.51235 21,88c27.05447,5.41089 75.41986,-39.70993 98,-51c15.2999,-7.64995 77.95059,34.14824 75,43c-2.97211,8.91633 -16.29086,20.14543 -24,24c-12.98529,6.49264 -20.19923,16.39974 -34,21c-5.72353,1.90784 -11.74433,-1.4466 -16,-4c-34.4553,-20.67318 -39.3024,-46.09281 -26,-86c1.75049,-5.25146 11.56547,-47 21,-47" fill="none" stroke="black" stroke-linecap="round" stroke-width="5"/>
</svg>
