<?xml version="1.0" ?>
<svg baseProfile="full" height="300" version="1.1" viewBox="[0, 0, 300, 300]" width="300" xmlns="http://www.w3.org/2000/svg" xmlns:ev="http://www.w3.org/2001/xml-events" xmlns:xlink="http://www.w3.org/1999/xlink">
	<defs/>
	<path d="M119,135c0,-11.60036 -5.71546,-26.56907 0,-38c10.28176,-20.56351 52.42827,-9.71518 59,10c6.1346,18.4038 -14.6516,21.3032 -21,34c-3.10822,6.21644 0.35626,15.28748 -3,22" fill="none" stroke="black" stroke-linecap="round" stroke-width="5"/>
	<path d="M119,117c-5.3312,0 -5,37.87653 -5,45" fill="none" stroke="black" stroke-linecap="round" stroke-width="5"/>
	<path d="M116,126c-23.88757,0 -33.6625,15.55476 -57,20c-1.04622,0.19928 -5.02294,0.04587 -6,2c-10.21827,20.43655 -17.64965,50.77077 -8,72c2.78019,6.11642 -2.44211,15.72028 0,22c3.03008,7.79163 9.25493,17.05919 10,26c0.56473,6.77673 -3,11.61896 -3,18c0,1.70763 0,9.9465 0,8" fill="none" stroke="black" stroke-linecap="round" stroke-width="5"/>
	<path d="M108,229c0,22.66667 0,45.33333 0,68c0,0.66667 0,-1.33333 0,-2c0,-5 0,-10 0,-15c0,-8.91139 -2.71385,-22.85844 0,-31c8.34357,-25.03072 21.73994,-68.73994 41,-88c7.68421,-7.68421 20.0531,-19.1062 25,-29c0.24428,-0.48857 8.0322,-16.95169 10,-14c3.69575,5.54363 0.55583,12.2233 2,18c5.78654,23.14614 1.27664,58.82993 8,79c4.66238,13.98713 9,33.073 9,48" fill="none" stroke="black" stroke-linecap="round" stroke-width="5"/>
</svg>
