<?xml version="1.0" ?>
<svg baseProfile="full" height="300" version="1.1" viewBox="[0, 0, 300, 300]" width="300" xmlns="http://www.w3.org/2000/svg" xmlns:ev="http://www.w3.org/2001/xml-events" xmlns:xlink="http://www.w3.org/1999/xlink">
	<defs/>
	<path d="M119,135c0,-11.60036 -5.71546,-26.56907 0,-38c10.28176,-20.56351 52.42827,-9.71518 59,10c6.1346,18.4038 -14.6516,21.3032 -21,34c-3.10822,6.21644 0.35626,15.28748 -3,22" fill="none" stroke="black" stroke-linecap="round" stroke-width="5"/>
	<path d="M120,133c0,-1.28605 1.74404,-1.50238 3,-1c9.23988,3.69595 32.39305,23.60695 21,35c-3.07989,3.07989 -22.25543,-2.45109 -25,-3c-1.34768,-0.26954 -4,-1 -4,-1c0,0 10.66667,0 16,0c6.64627,0 55.8718,7.8718 58,10c3.20949,3.20949 -16.65011,14.15632 -18,15c-22.28813,13.93008 -40.11511,35.05756 -62,46c-4.08163,2.04082 -21.35849,-11.35849 -24,-14c-3.61506,-3.61506 -17.9063,3.0937 -22,-1c-2.55459,-2.55459 2.5933,-8.39234 4,-10c11.60508,-13.26295 31.63263,-55 49,-55" fill="none" stroke="black" stroke-linecap="round" stroke-width="5"/>
	<path d="M119,117c-5.3312,0 -5,37.87653 -5,45" fill="none" stroke="black" stroke-linecap="round" stroke-width="5"/>
	<path d="M116,126c-23.88757,0 -33.6625,15.55476 -57,20c-1.04622,0.19928 -5.02294,0.04587 -6,2c-10.21827,20.43655 -17.64965,50.77077 -8,72c2.78019,6.11642 -2.44211,15.72028 0,22c3.03008,7.79163 9.25493,17.05919 10,26c0.56473,6.77673 -3,11.61896 -3,18c0,1.70763 0,9.9465 0,8" fill="none" stroke="black" stroke-linecap="round" stroke-width="5"/>
</svg>
