<?xml version="1.0" ?>
<svg baseProfile="full" height="300" version="1.1" viewBox="[0, 0, 300, 300]" width="300" xmlns="http://www.w3.org/2000/svg" xmlns:ev="http://www.w3.org/2001/xml-events" xmlns:xlink="http://www.w3.org/1999/xlink">
	<defs/>
	<path d="M58,168c0,-10.89024 65.86399,-18.86399 72,-25c10.06029,-10.06029 -8.15431,-63.16914 16,-68c32.49217,-6.49843 51.22428,19.44856 64,45c2.95518,5.91036 0.02346,14.04692 3,20c3.78127,7.56254 -27.19441,12.55832 -32,14c-33.4878,10.04634 -71.55371,3.47461 -99,27c-2.33333,2 0.71216,6.20968 2,9c11.48888,24.89257 19,61.77662 19,89" fill="none" stroke="black" stroke-linecap="round" stroke-width="5"/>
	<path d="M214,149c0,30.29835 7.08931,61.44654 13,91c2.68444,13.42222 9,26.89731 9,40" fill="none" stroke="black" stroke-linecap="round" stroke-width="5"/>
	<path d="M57,168c0,26.30463 3.09653,54.86877 6,81c0.53947,4.85522 0.3987,39.6013 4,36" fill="none" stroke="black" stroke-linecap="round" stroke-width="5"/>
</svg>
