<?xml version="1.0" ?>
<svg baseProfile="full" height="300" version="1.1" viewBox="[0, 0, 300, 300]" width="300" xmlns="http://www.w3.org/2000/svg" xmlns:ev="http://www.w3.org/2001/xml-events" xmlns:xlink="http://www.w3.org/1999/xlink">
	<defs/>
	<path d="M118,69c3.34763,0 18.86968,-2.13032 21,0c10.75014,10.75014 -2.84465,48 18,48" fill="none" stroke="black" stroke-linecap="round" stroke-width="5"/>
	<path d="M136,114c0,16.75907 -3,42.38982 -3,63" fill="none" stroke="black" stroke-linecap="round" stroke-width="5"/>
	<path d="M99,128c0,17.26043 -8,31.24358 -8,52" fill="none" stroke="black" stroke-linecap="round" stroke-width="5"/>
	<path d="M62,178c16.93671,0 76.83611,-7.16389 81,-3c0.4714,0.4714 0.21082,1.36754 0,2c-2.27376,6.82127 -11.70014,8.40028 -15,15c-4.1488,8.29761 3.9502,34.9004 7,41c1.20185,2.4037 1,8 1,8c0,0 -2.96788,-3.31192 -4,-4c-10.26711,-6.84474 -32.79924,-16 -43,-16c-2.51876,0 -4.74834,0.25166 -6,-1c-3.89037,-3.89037 -17.63677,3.36323 -22,-1c-3.87131,-3.87131 1.46669,-43 9,-43" fill="none" stroke="black" stroke-linecap="round" stroke-width="5"/>
	<path d="M112,226c-6.03444,6.03444 -8.36227,39.08682 -12,50c-0.48724,1.46173 -0.7035,3 -2,3" fill="none" stroke="black" stroke-linecap="round" stroke-width="5"/>
	<path d="M66,227c0,10.40989 0.75033,33.24967 -5,39c-1.15463,1.15463 -7,8.80956 -7,10" fill="none" stroke="black" stroke-linecap="round" stroke-width="5"/>
</svg>
