<?xml version="1.0" ?>
<svg baseProfile="full" height="300" version="1.1" viewBox="[0, 0, 300, 300]" width="300" xmlns="http://www.w3.org/2000/svg" xmlns:ev="http://www.w3.org/2001/xml-events" xmlns:xlink="http://www.w3.org/1999/xlink">
	<defs/>
	<path d="M89,101c22.88271,0 45.44666,-4.51778 68,3c7.08973,2.36324 16.48339,5.24169 22,8c1.5754,0.7877 10.49994,1.49994 10,1c-3.20378,-3.20378 -5.0308,12.0616 -6,14c-3.81253,7.62506 3.92599,24.07401 -2,30c-1.84082,1.84082 -18.34134,-6.34134 -20,-8c-7.34818,-7.34818 -76.39176,-16.39176 -83,-23c-1.65422,-1.65422 10.74704,-23 11,-23" fill="none" stroke="black" stroke-linecap="round" stroke-width="5"/>
	<path d="M112,135c0,19.33333 0,38.66667 0,58" fill="none" stroke="black" stroke-linecap="round" stroke-width="5"/>
	<path d="M148,140c0,14.69062 -3,33.82643 -3,44" fill="none" stroke="black" stroke-linecap="round" stroke-width="5"/>
	<path d="M108,186c9.67608,0 42.63565,3.72869 46,-3c0.76012,-1.52023 5,-1 5,-1c0,0 1,3.40541 1,4c0,5.14893 -0.74311,42.25689 0,43c0.2027,0.2027 2,3 2,3c0,0 -11.69546,-8.56515 -16,-10c-10.92748,-3.64249 -75.28367,-0.28367 -79,-4c-0.2027,-0.2027 -0.2027,-4.7973 0,-5c6.04038,-6.04038 17.07107,-22.53553 24,-26c6.22486,-3.11243 25,7.35561 25,5" fill="none" stroke="black" stroke-linecap="round" stroke-width="5"/>
	<path d="M137,223c0,6.03396 5.50402,36 12,36" fill="none" stroke="black" stroke-linecap="round" stroke-width="5"/>
</svg>
