<?xml version="1.0" ?>
<svg baseProfile="full" height="300" version="1.1" viewBox="[0, 0, 300, 300]" width="300" xmlns="http://www.w3.org/2000/svg" xmlns:ev="http://www.w3.org/2001/xml-events" xmlns:xlink="http://www.w3.org/1999/xlink">
	<defs/>
	<path d="M118,69c3.34763,0 18.86968,-2.13032 21,0c10.75014,10.75014 -2.84465,48 18,48" fill="none" stroke="black" stroke-linecap="round" stroke-width="5"/>
	<path d="M120,65c-12.98588,0 -37.90902,2.90902 -46,11c-4.47132,4.47132 -1.02961,16.05921 -4,22c-3.22982,6.45963 -7.25522,32.87239 1,37c4.60743,2.30372 62.83668,-10.83668 64,-12c2.31343,-2.31343 12.45326,-10 16,-10" fill="none" stroke="black" stroke-linecap="round" stroke-width="5"/>
	<path d="M136,114c0,16.75907 -3,42.38982 -3,63" fill="none" stroke="black" stroke-linecap="round" stroke-width="5"/>
	<path d="M99,128c0,17.26043 -8,31.24358 -8,52" fill="none" stroke="black" stroke-linecap="round" stroke-width="5"/>
	<path d="M112,226c-6.03444,6.03444 -8.36227,39.08682 -12,50c-0.48724,1.46173 -0.7035,3 -2,3" fill="none" stroke="black" stroke-linecap="round" stroke-width="5"/>
	<path d="M66,227c0,10.40989 0.75033,33.24967 -5,39c-1.15463,1.15463 -7,8.80956 -7,10" fill="none" stroke="black" stroke-linecap="round" stroke-width="5"/>
</svg>
