<?xml version="1.0" ?>
<svg baseProfile="full" height="300" version="1.1" viewBox="[0, 0, 300, 300]" width="300" xmlns="http://www.w3.org/2000/svg" xmlns:ev="http://www.w3.org/2001/xml-events" xmlns:xlink="http://www.w3.org/1999/xlink">
	<defs/>
	<path d="M53,82c7.55447,0 94.42842,12.71421 103,17c0.29814,0.14907 0.7643,-0.2357 1,0c8.33469,8.33469 -5.92228,32.88342 -10,39c-4.14944,6.22415 -1.61152,21.30576 -9,25c-12.21096,6.10548 -77.43431,-22.43431 -85,-30c-3.78116,-3.78116 0,-31.45985 0,-37c0,-4.38788 1,-15.48881 1,-15" fill="none" stroke="black" stroke-linecap="round" stroke-width="5"/>
	<path d="M78,140c0,11.00561 -4.02286,38.97714 2,45c1.12682,1.12682 -1.5344,3 1,3" fill="none" stroke="black" stroke-linecap="round" stroke-width="5"/>
	<path d="M99,156c0,13 0,26 0,39" fill="none" stroke="black" stroke-linecap="round" stroke-width="5"/>
	<path d="M38,174c0,23.27569 74.4538,17.90759 84,37c4.09441,8.18883 -12.96931,27.01023 -22,24c-6.33923,-2.11308 -25.2759,-9.2759 -30,-14c-2.91662,-2.91662 -12.60932,-0.60932 -16,-4c-3.18726,-3.18726 -11.08386,-2.08386 -14,-5c-6.37466,-6.37466 2,-27.5197 2,-33" fill="none" stroke="black" stroke-linecap="round" stroke-width="5"/>
	<path d="M45,218c0,25.64117 -4.34132,46.68264 -14,66" fill="none" stroke="black" stroke-linecap="round" stroke-width="5"/>
	<path d="M85,232c0,11.11753 3,21.41039 3,33c0,1.20185 0.79815,3 2,3" fill="none" stroke="black" stroke-linecap="round" stroke-width="5"/>
	<path d="M102,235c3.5287,0 1.42762,12.85523 3,16c2.3111,4.6222 7,15.80275 7,20" fill="none" stroke="black" stroke-linecap="round" stroke-width="5"/>
</svg>
