<?xml version="1.0" ?>
<svg baseProfile="full" height="300" version="1.1" viewBox="[0, 0, 300, 300]" width="300" xmlns="http://www.w3.org/2000/svg" xmlns:ev="http://www.w3.org/2001/xml-events" xmlns:xlink="http://www.w3.org/1999/xlink">
	<defs/>
	<path d="M116,92c8.75057,0 61.41495,13.41495 66,18" fill="none" stroke="black" stroke-linecap="round" stroke-width="5"/>
	<path d="M93,227c0,-3.37757 16.4421,3.68842 18,4c11.61297,2.32259 22.70119,1 34,1" fill="none" stroke="black" stroke-linecap="round" stroke-width="5"/>
	<path d="M96,235c18.36385,0 31.16441,7 50,7" fill="none" stroke="black" stroke-linecap="round" stroke-width="5"/>
	<path d="M102,185c6.01877,-12.03754 31.02391,-18.02391 41,-28c2.77158,-2.77158 6.92284,-23.97428 10,-25c5.89603,-1.96534 14.39285,1.92857 19,5c2.79218,1.86145 10.27159,1.54318 12,5c8.16733,16.33465 -17.63801,45.31901 -31,52c-0.83048,0.41524 -3.05197,0 -4,0c-8.50249,0 -12.95575,-9.9705 -19,-14c-3.25101,-2.16734 -19.21575,0 -23,0" fill="none" stroke="black" stroke-linecap="round" stroke-width="5"/>
</svg>
