<?xml version="1.0" ?>
<svg baseProfile="full" height="300" version="1.1" viewBox="[0, 0, 300, 300]" width="300" xmlns="http://www.w3.org/2000/svg" xmlns:ev="http://www.w3.org/2001/xml-events" xmlns:xlink="http://www.w3.org/1999/xlink">
	<defs/>
	<path d="M194,241c0,-41.87642 -2,-84.572 -2,-127" fill="none" stroke="black" stroke-linecap="round" stroke-width="5"/>
	<path d="M191,133c-6.16478,0 -30.23417,7.76583 -35,3c-3.35187,-3.35187 -1,-19.14435 -1,-24" fill="none" stroke="black" stroke-linecap="round" stroke-width="5"/>
	<path d="M155,203c0,-1.671 1.58874,-1 3,-1c12,0 24,0 36,0" fill="none" stroke="black" stroke-linecap="round" stroke-width="5"/>
	<path d="M154,176c14.42989,0 28.41145,3 42,3" fill="none" stroke="black" stroke-linecap="round" stroke-width="5"/>
	<path d="M150,196c0,8.05198 -1,16.55322 -1,24" fill="none" stroke="black" stroke-linecap="round" stroke-width="5"/>
	<path d="M149,220c16.33333,0 32.66667,0 49,0" fill="none" stroke="black" stroke-linecap="round" stroke-width="5"/>
	<path d="M148,222c0,27.23012 35.57113,16 53,16" fill="none" stroke="black" stroke-linecap="round" stroke-width="5"/>
	<path d="M161,227c9.21872,0 16.20993,1.48855 25,4c3.74798,1.07085 8.16262,2 12,2c0.33333,0 1.33333,0 1,0c-9,0 -20.63604,6.36396 -27,0c-2.4037,-2.4037 6.60065,-2 10,-2c1.33333,0 5.33333,0 4,0c-4.52756,0 -20.20583,2.79417 -23,0c-1.97733,-1.97733 3.56535,-3.51307 1,-3c-2.31125,0.46225 -7,3.35702 -7,1c0,-0.4714 0.53022,-0.96085 1,-1c9.6799,-0.80666 44.35545,-4.64455 50,1c1.31807,1.31807 -0.85402,4.54161 -2,5c-13.28667,5.31467 -11.16225,-4.16225 -16,-9c-1.98966,-1.98966 -24.38859,0.08289 -25,1c-1.83042,2.74563 -10.29983,7 -7,7c7.37829,0 12.60281,6 21,6c0.7047,0 5,0 5,0c0,0 -4,1.33333 -6,2c-9.69403,3.23134 -19.81151,3 -30,3" fill="none" stroke="black" stroke-linecap="round" stroke-width="5"/>
	<path d="M148,229c0,17.09673 2,32.80381 2,50" fill="none" stroke="black" stroke-linecap="round" stroke-width="5"/>
	<path d="M189,232c3.0796,0 1.50941,4.03763 2,6c2.65964,10.63856 -3.98453,40.01547 3,47" fill="none" stroke="black" stroke-linecap="round" stroke-width="5"/>
	<path d="M150,255c0,2.18366 23.41368,4 27,4c3.22558,0 7.04739,2 11,2" fill="none" stroke="black" stroke-linecap="round" stroke-width="5"/>
	<path d="M154,272c13.27456,0 27.07447,6 34,6" fill="none" stroke="black" stroke-linecap="round" stroke-width="5"/>
</svg>
