<?xml version="1.0" ?>
<svg baseProfile="full" height="300" version="1.1" viewBox="[0, 0, 300, 300]" width="300" xmlns="http://www.w3.org/2000/svg" xmlns:ev="http://www.w3.org/2001/xml-events" xmlns:xlink="http://www.w3.org/1999/xlink">
	<defs/>
	<path d="M116,92c8.75057,0 61.41495,13.41495 66,18" fill="none" stroke="black" stroke-linecap="round" stroke-width="5"/>
	<path d="M118,88c0,5.25155 4.43954,43.56046 2,46c-7.0018,7.0018 -43.10478,5.55239 -54,11c-1.58487,0.79243 -2.2276,20.31721 -1,24c3.11622,9.34867 14.19619,53.60761 10,62c-2.27271,4.54542 -3.38627,10.92059 0,16c1.16244,1.74366 -0.42284,3.78858 2,5c2.54479,1.27239 9.09171,0 12,0c0.76805,0 4.38436,2.23129 5,1c1.58702,-3.17403 -0.9964,-6.9964 -2,-8c-0.2357,-0.2357 0,-0.66667 0,-1c0,-11.78898 1,-20.7349 1,-33c0,-0.33333 -0.2357,-0.7643 0,-1c0.4714,-0.4714 1.33333,0 2,0c5.36862,0 47.12609,1.12609 48,2c4.84447,4.84447 -8.30732,40.34634 -1,44c2.59433,1.29716 8.70954,0 12,0c1.56101,0 12.92907,2.14187 13,2c5.62897,-11.25793 -3.73474,-30.53052 2,-42c0.58644,-1.17288 -2.0729,-4.46355 -1,-5c7.32814,-3.66407 30.67629,4.32371 36,-1c3.89103,-3.89103 -2.31241,-21.75035 -1,-27c2.09886,-8.39544 3.15852,-71.92074 -1,-74c-4.84219,-2.4211 -25.16306,-3 -29,-3" fill="none" stroke="black" stroke-linecap="round" stroke-width="5"/>
	<path d="M93,227c0,-3.37757 16.4421,3.68842 18,4c11.61297,2.32259 22.70119,1 34,1" fill="none" stroke="black" stroke-linecap="round" stroke-width="5"/>
	<path d="M102,185c6.01877,-12.03754 31.02391,-18.02391 41,-28c2.77158,-2.77158 6.92284,-23.97428 10,-25c5.89603,-1.96534 14.39285,1.92857 19,5c2.79218,1.86145 10.27159,1.54318 12,5c8.16733,16.33465 -17.63801,45.31901 -31,52c-0.83048,0.41524 -3.05197,0 -4,0c-8.50249,0 -12.95575,-9.9705 -19,-14c-3.25101,-2.16734 -19.21575,0 -23,0" fill="none" stroke="black" stroke-linecap="round" stroke-width="5"/>
</svg>
