<?xml version="1.0" ?>
<svg baseProfile="full" height="300" version="1.1" viewBox="[0, 0, 300, 300]" width="300" xmlns="http://www.w3.org/2000/svg" xmlns:ev="http://www.w3.org/2001/xml-events" xmlns:xlink="http://www.w3.org/1999/xlink">
	<defs/>
	<path d="M121,113c0,-30.41457 30.55041,-44 57,-44c3.60312,0 11.07285,-0.92715 13,1c3.01736,3.01736 35.10216,49.89784 25,60c-11.10934,11.10934 -21.27794,17.55588 -29,33c-9.60489,19.20978 10.85495,13.61832 18,16c1.86392,0.62131 3.82214,5.23321 5,7c0.48942,0.73412 3.2836,5.7164 2,7c-3.80658,3.80658 -20.1245,-2.43775 -25,0c-15.01406,7.50703 -34.27962,18.27962 -46,30c-1.17851,1.17851 -2.82149,4.17851 -4,3c-0.4714,-0.4714 0,-1.33333 0,-2c0,-19.88462 -14.2347,-30.92857 -25,-46c-10.46705,-14.65387 -28.32408,-27.32408 -39,-38c-0.28987,-0.28987 -2.23036,-2.53928 -2,-3c4.98021,-9.96041 44.2518,-25.7482 50,-20c7.70395,7.70395 8.81619,36.40809 22,43c11.32229,5.66115 25.58869,-2.70565 37,3c3.5267,1.76335 -8.31401,10 -11,10" fill="none" stroke="black" stroke-linecap="round" stroke-width="5"/>
	<path d="M208,148c-2.75542,0 -19.69326,17.46217 -25,21c-8.62942,5.75295 -12.18085,14.18085 -19,21c-23.07448,23.07448 -33,32.7987 -33,67c0,1.04833 -2.95164,10.04836 -1,12c1.51944,1.51944 5.68703,-6 7,-6" fill="none" stroke="black" stroke-linecap="round" stroke-width="5"/>
	<path d="M114,103c-38.75992,0 -56.72106,60.04741 -61,90c-1.01225,7.08573 -2.22339,41.1117 -6,43c-0.84985,0.42492 -0.13723,6 1,6" fill="none" stroke="black" stroke-linecap="round" stroke-width="5"/>
</svg>
