<?xml version="1.0" ?>
<svg baseProfile="full" height="300" version="1.1" viewBox="[0, 0, 300, 300]" width="300" xmlns="http://www.w3.org/2000/svg" xmlns:ev="http://www.w3.org/2001/xml-events" xmlns:xlink="http://www.w3.org/1999/xlink">
	<defs/>
	<path d="M12,80c1.04236,1.04236 8,16 8,16c0,0 0,-2 0,-3c0,-8.38445 -6.40359,-17.21078 -9,-25c-6.23183,-18.6955 -1.82341,-33.34127 14,-46c14.15943,-11.32755 -0.6192,19.73013 1,20c1.64399,0.274 3.33333,0 5,0c12.48034,0 27.59362,-2.70319 39,3c0.96456,0.48228 3.65849,3.34151 2,5c-12.57755,12.57755 -21.64519,1.07532 -36,25c-2.15044,3.58407 -6,2.78878 -6,7" fill="none" stroke="black" stroke-linecap="round" stroke-width="5"/>
	<path d="M78,49c0,4.69993 14.29969,22.23344 21,20c9.65286,-3.21762 -3,-34.57038 -3,-29" fill="none" stroke="black" stroke-linecap="round" stroke-width="5"/>
	<path d="M120,39c0,4.31738 -0.78744,22.21256 2,25c0.78254,0.78254 4.4489,-0.72445 5,-1c3.84538,-1.92269 38,-1.67132 38,-9c0,-0.33333 0,-3.66667 0,-1" fill="none" stroke="black" stroke-linecap="round" stroke-width="5"/>
	<path d="M163,22c0,7.58435 2.52068,32.84023 9,35c2.49472,0.83157 2.45772,-3.10202 3,-5c4.0087,-14.03044 1.85989,-19.85989 11,-29c1.2567,-1.2567 1.27456,3.45088 1,4c-1.77846,3.55691 -4.35496,7.35496 -7,10" fill="none" stroke="black" stroke-linecap="round" stroke-width="5"/>
	<path d="M171,41c7.04743,0 31.71215,16 28,16" fill="none" stroke="black" stroke-linecap="round" stroke-width="5"/>
	<path d="M31,156c-8.01758,8.01758 -5.42906,30.19031 6,34c6.3703,2.12343 21,-11.07065 21,-16c0,-1 -2.29289,-0.70711 -3,0c-2.80509,2.80509 -6.17083,5 -11,5c-0.51179,0 -5.9259,0.0741 -4,2c1.55454,1.55454 16.01859,-9.96282 19,-4c5.44323,10.88645 -16.36331,14.1211 -22,16c-11.74258,3.91419 -7.33447,17.33447 -14,24" fill="none" stroke="black" stroke-linecap="round" stroke-width="5"/>
	<path d="M65,154c25.55315,6.38829 129.87581,25.5621 161,10c5.7945,-2.89725 8.49001,-12.39015 9,-18c0.52763,-5.80391 0.83315,-14.50055 -1,-20c-0.05849,-0.17546 -3.6435,0 -4,0c-14.08568,0 -37,-17.40066 -37,5" fill="none" stroke="black" stroke-linecap="round" stroke-width="5"/>
	<path d="M193,131c0,1 0,2 0,3" fill="none" stroke="black" stroke-linecap="round" stroke-width="5"/>
	<path d="M91,206c0,10.67951 -5.57596,42.34098 6,38c8.55877,-3.20954 16.85474,-9.85474 23,-16" fill="none" stroke="black" stroke-linecap="round" stroke-width="5"/>
	<path d="M120,228c0,-6.69347 10.91366,-35.04317 17,-32c5.34815,2.67408 3,16.85754 3,22c0,7.20433 5,10.90293 5,17c0,2.53128 0.83615,4 -2,4" fill="none" stroke="black" stroke-linecap="round" stroke-width="5"/>
	<path d="M143,239c-10.38336,0 -8.57479,-16 -16,-16" fill="none" stroke="black" stroke-linecap="round" stroke-width="5"/>
	<path d="M163,239c0,-8.60043 -11.96503,-29.01748 0,-35c4.05717,-2.02858 17.37896,7.24208 15,12c-1.35746,2.71493 -10.19378,9.61244 -9,12c1.26361,2.52721 15.09486,7 12,7" fill="none" stroke="black" stroke-linecap="round" stroke-width="5"/>
	<path d="M230,180c-4.36842,0 -19.15038,0.07519 -23,2c-14.7986,7.3993 -17.20243,37.26586 0,43c12.00673,4.00224 4.86974,-17 -1,-17c-1.37437,0 -4.97183,-0.02817 -4,-1c2.05832,-2.05832 16.0955,0 19,0" fill="none" stroke="black" stroke-linecap="round" stroke-width="5"/>
	<path d="M221,207c7.4409,-3.72045 27.0891,3.9109 31,0c6.05554,-6.05554 -18.42364,-18.86454 -23,-12c-10.21522,15.32283 32.58793,31.20604 41,27c1.20316,-0.60158 2,-0.10321 2,-2" fill="none" stroke="black" stroke-linecap="round" stroke-width="5"/>
</svg>
