<?xml version="1.0" ?>
<svg baseProfile="full" height="300" version="1.1" viewBox="[0, 0, 300, 300]" width="300" xmlns="http://www.w3.org/2000/svg" xmlns:ev="http://www.w3.org/2001/xml-events" xmlns:xlink="http://www.w3.org/1999/xlink">
	<defs/>
	<path d="M115,64c0,4.35681 -0.83411,42.16589 0,43c0.32085,0.32085 4.7868,0.04264 5,0c11.20183,-2.24037 70.05219,0.89562 74,-7c2.50019,-5.00039 -0.59236,-15.66872 0,-21c0.40857,-3.67712 7.574,-21.426 4,-25c-2.79034,-2.79034 -58.14739,1.80527 -64,4c-6.03007,2.26128 -14.58624,8 -20,8" fill="none" stroke="black" stroke-linecap="round" stroke-width="5"/>
	<path d="M133,111c0,2.12536 -4.18763,61.18763 3,54" fill="none" stroke="black" stroke-linecap="round" stroke-width="5"/>
	<path d="M179,110c0,18 0,36 0,54" fill="none" stroke="black" stroke-linecap="round" stroke-width="5"/>
	<path d="M23,204c0,12.53911 -2.86977,53.13023 6,62c0.4714,0.4714 1.33333,0 2,0c11.70901,0 32.76531,-11.0068 44,-16c10.34158,-4.59626 80.42083,-35.52639 91,-32c5.63057,1.87686 11.05756,8.01919 17,10c3.49134,1.16378 8.95498,0.95498 11,3c1.86277,1.86277 -11.94102,17.94102 -14,20c-2.34986,2.34986 -67.52942,35 -69,35c-0.69519,0 -6.52042,3.47958 -8,2c-13.79273,-13.79273 -16,-48.65129 -16,-67" fill="none" stroke="black" stroke-linecap="round" stroke-width="5"/>
	<path d="M194,104c34.49503,0 -3.93554,23.29573 -12,28c-17.80509,10.3863 -39.83842,21.63974 -60,25c-5.25245,0.87541 -17.59044,-2.93971 -22,0c-1.83261,1.22174 -3.15359,5 -5,5" fill="none" stroke="black" stroke-linecap="round" stroke-width="5"/>
	<path d="M114,107c-8.51605,0 -23.24974,-3.1001 -31,0c-8.10209,3.24083 -14.39469,25.19735 -28,32c-16.24915,8.12458 -34.05349,14.02674 -50,22" fill="none" stroke="black" stroke-linecap="round" stroke-width="5"/>
</svg>
