<?xml version="1.0" ?>
<svg baseProfile="full" height="300" version="1.1" viewBox="[0, 0, 300, 300]" width="300" xmlns="http://www.w3.org/2000/svg" xmlns:ev="http://www.w3.org/2001/xml-events" xmlns:xlink="http://www.w3.org/1999/xlink">
	<defs/>
	<path d="M115,64c0,4.35681 -0.83411,42.16589 0,43c0.32085,0.32085 4.7868,0.04264 5,0c11.20183,-2.24037 70.05219,0.89562 74,-7c2.50019,-5.00039 -0.59236,-15.66872 0,-21c0.40857,-3.67712 7.574,-21.426 4,-25c-2.79034,-2.79034 -58.14739,1.80527 -64,4c-6.03007,2.26128 -14.58624,8 -20,8" fill="none" stroke="black" stroke-linecap="round" stroke-width="5"/>
	<path d="M133,111c0,2.12536 -4.18763,61.18763 3,54" fill="none" stroke="black" stroke-linecap="round" stroke-width="5"/>
	<path d="M179,110c0,18 0,36 0,54" fill="none" stroke="black" stroke-linecap="round" stroke-width="5"/>
	<path d="M116,155c12,0 24,0 36,0c12.51508,0 39.27114,-5.27114 27,7c-17.27153,17.27153 -38.91753,29.70189 -60,42c-9.29533,5.42228 -19.37383,10.53037 -28,17c-0.96148,0.72111 -2,3 -2,3c0,0 0,-2.8 0,-3c0,-2.27913 -1.99684,-2.42767 -4,-3c-18.71608,-5.34745 -37.14162,-9.06294 -55,-17c-2.04334,-0.90815 -6,-3 -6,-3c0,0 21.6084,-13.9066 23,-15c19.03914,-14.95932 46.41999,-31 69,-31" fill="none" stroke="black" stroke-linecap="round" stroke-width="5"/>
	<path d="M194,104c34.49503,0 -3.93554,23.29573 -12,28c-17.80509,10.3863 -39.83842,21.63974 -60,25c-5.25245,0.87541 -17.59044,-2.93971 -22,0c-1.83261,1.22174 -3.15359,5 -5,5" fill="none" stroke="black" stroke-linecap="round" stroke-width="5"/>
	<path d="M114,107c-8.51605,0 -23.24974,-3.1001 -31,0c-8.10209,3.24083 -14.39469,25.19735 -28,32c-16.24915,8.12458 -34.05349,14.02674 -50,22" fill="none" stroke="black" stroke-linecap="round" stroke-width="5"/>
</svg>
