<?xml version="1.0" ?>
<svg baseProfile="full" height="300" version="1.1" viewBox="[0, 0, 300, 300]" width="300" xmlns="http://www.w3.org/2000/svg" xmlns:ev="http://www.w3.org/2001/xml-events" xmlns:xlink="http://www.w3.org/1999/xlink">
	<defs/>
	<path d="M72,157c0,1.61614 21.07524,10.53762 24,12c21.30925,10.65462 30.01787,17.99106 54,6c10.84017,-5.42009 20.65117,-10.82558 29,-15c0.28124,-0.14062 2.77729,-1.22271 2,-2c-14.5348,-14.5348 -36.68471,-22.84236 -55,-32c-8.04126,-4.02063 -55.74787,25.74787 -61,31c-2.36437,2.36437 2.18906,23.94529 3,28c1.21708,6.08541 -2.0518,43.9482 1,47c0.33333,0.33333 2.90237,-0.90237 3,-1c4.79835,-4.79835 19.74793,-12.58264 27,-15c31.80873,-10.60291 57.5827,-18.8346 73,12c1.25658,2.51317 -0.90011,6.30004 -3,7c-3.42356,1.14119 -7.34987,6.44996 -12,8c-5.61963,1.87321 -42.49316,14.49316 -44,16c-0.44444,0.44444 0.77778,1.88889 -1,1c-1.83484,-0.91742 -1,-5.2489 -1,-7c0,-24.51178 10,-48.57857 10,-72" fill="none" stroke="black" stroke-linecap="round" stroke-width="5"/>
	<path d="M124,115c0,2.33333 0,4.66667 0,7" fill="none" stroke="black" stroke-linecap="round" stroke-width="5"/>
	<path d="M178,157c0,-11.15949 1,-24.15974 1,-36c0,-1.02376 2.3008,-4.6992 1,-6c-11.7277,-11.7277 -70.52723,25 -83,25" fill="none" stroke="black" stroke-linecap="round" stroke-width="5"/>
	<path d="M125,92c3.46271,0 33.85886,18 51,18" fill="none" stroke="black" stroke-linecap="round" stroke-width="5"/>
	<path d="M183,115c0,-0.33822 2.49682,-3.49682 3,-4c3.40088,-3.40088 7.87067,-5.61202 10,-12c1.92704,-5.78111 2.70127,-39.29873 -1,-43c-0.2357,-0.2357 0.29814,-0.85093 0,-1c-4.4572,-2.2286 -11.65098,0.17451 -16,-2c-5.61189,-2.80594 -54.62183,-13.37817 -58,-10c-10.89323,10.89323 2,38.85759 2,49c0,1.4955 -0.72523,4 1,4" fill="none" stroke="black" stroke-linecap="round" stroke-width="5"/>
</svg>
