<?xml version="1.0" ?>
<svg baseProfile="full" height="300" version="1.1" viewBox="[0, 0, 300, 300]" width="300" xmlns="http://www.w3.org/2000/svg" xmlns:ev="http://www.w3.org/2001/xml-events" xmlns:xlink="http://www.w3.org/1999/xlink">
	<defs/>
	<path d="M75,189c0,8.19992 24.18552,17.59276 31,21c37.27253,18.63626 63.67471,-1.67471 91,-29c1.07077,-1.07077 -4.58692,-2.58692 -5,-3c-8.14918,-8.14918 -25.09173,-14.23669 -37,-19c-9.57723,-3.83089 -21.63968,-12.07206 -32,-10c-9.72459,1.94492 -48.93266,29.86532 -53,38" fill="none" stroke="black" stroke-linecap="round" stroke-width="5"/>
	<path d="M126,151c0,-18.66589 1,-37.1328 1,-56" fill="none" stroke="black" stroke-linecap="round" stroke-width="5"/>
	<path d="M196,176c0,-12.35423 -2.61346,-25.06728 -5,-37c-3.30425,-16.52123 1,-36.8492 1,-53" fill="none" stroke="black" stroke-linecap="round" stroke-width="5"/>
	<path d="M128,93c0,-26.17202 -1,8 -1,8c0,0 0,-21.28081 0,-25" fill="none" stroke="black" stroke-linecap="round" stroke-width="5"/>
	<path d="M115,72c13.38672,0 89.00721,21.99279 93,18c1.12507,-1.12507 1,-11.22341 1,-13c0,-3.54856 1.51606,-10.96788 0,-14c-1.72303,-3.44606 -2.23869,-3.47097 -7,-4c-15.41993,-1.71333 -76.83598,-18.08201 -89,-12c-4.93532,2.46766 -3.3285,28 3,28" fill="none" stroke="black" stroke-linecap="round" stroke-width="5"/>
	<path d="M73,181c1.98968,0 1,19.40301 1,22c0,16.15522 -2,32.62789 -2,48c0,5.77606 -2.58084,9.44112 -6,14c-1.14049,1.52065 -4,5.76521 -4,4" fill="none" stroke="black" stroke-linecap="round" stroke-width="5"/>
	<path d="M196,182c0,9.59717 -0.78745,20.06277 1,29c2.20053,11.00266 13,21.87092 13,32" fill="none" stroke="black" stroke-linecap="round" stroke-width="5"/>
	<path d="M158,210c0,3.21663 5.87969,25 8,25" fill="none" stroke="black" stroke-linecap="round" stroke-width="5"/>
</svg>
