<?xml version="1.0" ?>
<svg baseProfile="full" height="300" version="1.1" viewBox="[0, 0, 300, 300]" width="300" xmlns="http://www.w3.org/2000/svg" xmlns:ev="http://www.w3.org/2001/xml-events" xmlns:xlink="http://www.w3.org/1999/xlink">
	<defs/>
	<path d="M144,259c5.61732,5.61732 4.36064,-39.54096 6,-42c7.48205,-11.22308 5.18704,-44.78056 10,-52c3.38362,-5.07543 10.22059,-4.61029 15,-7c12.41511,-6.20755 15.76775,-12 31,-12" fill="none" stroke="black" stroke-linecap="round" stroke-width="5"/>
	<path d="M208,142c9.84629,36.92359 5,79.41477 5,118" fill="none" stroke="black" stroke-linecap="round" stroke-width="5"/>
	<path d="M160,218c15.38497,0 37.36473,-28 56,-28" fill="none" stroke="black" stroke-linecap="round" stroke-width="5"/>
	<path d="M51,208c0,-1.69799 23.57227,7.02891 31,10c1.28816,0.51526 67.65573,9 71,9" fill="none" stroke="black" stroke-linecap="round" stroke-width="5"/>
	<path d="M54,203c17.83662,-5.94554 41.57614,-20.57614 55,-34" fill="none" stroke="black" stroke-linecap="round" stroke-width="5"/>
	<path d="M109,169c20.20603,0 34.99015,11.99672 50,17c7.70831,2.56944 45,-3.92169 45,6" fill="none" stroke="black" stroke-linecap="round" stroke-width="5"/>
	<path d="M183,144c4.70091,0 -5.59148,6.18296 -7,9c-5.26285,10.52569 -12,20.46589 -12,33" fill="none" stroke="black" stroke-linecap="round" stroke-width="5"/>
	<path d="M115,147c18.70933,0 33,12.93916 33,33" fill="none" stroke="black" stroke-linecap="round" stroke-width="5"/>
</svg>
