<?xml version="1.0" ?>
<svg baseProfile="full" height="300" version="1.1" viewBox="[0, 0, 300, 300]" width="300" xmlns="http://www.w3.org/2000/svg" xmlns:ev="http://www.w3.org/2001/xml-events" xmlns:xlink="http://www.w3.org/1999/xlink">
	<defs/>
	<path d="M236,60c0,25.96445 -10.79037,52.32299 -14,78c-2.48743,19.89944 -1,40.86203 -1,61c0,14.71227 -3.14801,43.85199 8,55" fill="none" stroke="black" stroke-linecap="round" stroke-width="5"/>
	<path d="M236,70c-69.20179,0 -100.71158,18.65402 -116,90c-8.4575,39.46832 -9,76.81888 -9,117" fill="none" stroke="black" stroke-linecap="round" stroke-width="5"/>
	<path d="M219,178c0,-2.47768 -36.80593,-22.35445 -43,-27c-10.59466,-7.94599 -21.82261,-12.82261 -30,-21c-8.41402,-8.41402 -35.94332,-11.94332 -45,-21c-0.33333,-0.33333 -0.55279,-1.14907 -1,-1c-12.88446,4.29482 -36,55.92445 -36,69c0,1.13652 -2.41621,6.58379 -2,7c7.99255,7.99255 28.91674,6.45837 40,12c5.16401,2.582 7.29839,9.17903 12,12c10.90675,6.54405 28.2168,14 41,14c26.15137,0 46.96197,-47 60,-47" fill="none" stroke="black" stroke-linecap="round" stroke-width="5"/>
	<path d="M56,184c-2.23181,0 -10.46541,1.53459 -12,0c-3.80058,-3.80058 21.37484,-2 16,-2c-8.92821,0 -17.78885,-2 -8,-2" fill="none" stroke="black" stroke-linecap="round" stroke-width="5"/>
	<path d="M99,57c0,16 0,32 0,48" fill="none" stroke="black" stroke-linecap="round" stroke-width="5"/>
	<path d="M139,122c0,-14.50559 11.94481,-52.16556 8,-64c-1.96713,-5.9014 -20.38476,-23.23047 -18,-28c12.42155,-24.84309 92.47926,-29.26037 115,-18c3.4698,1.7349 8.80362,8.80362 11,11c6.52013,6.52013 -7.62791,26.31395 -13,29c-5.092,2.546 -18.99542,0.99542 -22,4c-23.67814,23.67814 -44,52.06316 -44,88" fill="none" stroke="black" stroke-linecap="round" stroke-width="5"/>
	<path d="M146,220c0,8.57487 3.88345,26.23311 0,34c-0.3405,0.681 -10.87358,1.16477 -13,4c-6.21804,8.29072 -5,21.66359 -5,31" fill="none" stroke="black" stroke-linecap="round" stroke-width="5"/>
</svg>
