<?xml version="1.0" ?>
<svg baseProfile="full" height="300" version="1.1" viewBox="[0, 0, 300, 300]" width="300" xmlns="http://www.w3.org/2000/svg" xmlns:ev="http://www.w3.org/2001/xml-events" xmlns:xlink="http://www.w3.org/1999/xlink">
	<defs/>
	<path d="M147,62c-14.75619,0 -28.28844,4 -43,4c-9.06625,0 -18.1584,-1 -27,-1c-13.49479,0 -28,-0.87436 -28,14c0,1.9994 -0.9905,12.50237 1,13c11.06128,2.76532 19.38268,-9.46089 30,-13c22.48832,-7.49611 69,14.53989 69,-19" fill="none" stroke="black" stroke-linecap="round" stroke-width="5"/>
	<path d="M154,43c0,5.40933 -0.59915,16.8017 2,22c2.78453,5.56906 12.11363,1.11363 15,4c12.80035,12.80035 42.32685,15.3463 51,-2c3.3471,-6.6942 -0.75659,-26.75659 -4,-30c-2.44645,-2.44645 -69,-2.71859 -69,8" fill="none" stroke="black" stroke-linecap="round" stroke-width="5"/>
	<path d="M215,85c0,1.83333 -0.66667,0.66667 -2,1c-12.33661,3.08415 -27.23567,1.07856 -39,5c-24.91322,8.30441 -42.16131,1.32263 -54,25c-0.6348,1.2696 -5.91187,10.08813 -3,13c9.03419,9.03419 19.87434,-9.87434 24,-14c14.72365,-14.72365 73,-1.60551 73,-29" fill="none" stroke="black" stroke-linecap="round" stroke-width="5"/>
	<path d="M168,68c0,7.66667 0,15.33333 0,23" fill="none" stroke="black" stroke-linecap="round" stroke-width="5"/>
	<path d="M215,71c0,15.66667 0,31.33333 0,47" fill="none" stroke="black" stroke-linecap="round" stroke-width="5"/>
	<path d="M213,129c0,4.41558 -31.39287,16.44048 -36,19c-13.53887,7.52159 -40.18265,31.90867 -58,23c-6.27563,-3.13782 -12.43146,-9.71573 -19,-13c-3.38751,-1.69375 -14.15181,-3.30363 -16,-7c-1.30805,-2.6161 0.91382,-4.95691 3,-6c10.09525,-5.04763 21.36764,-20 33,-20c1.33596,0 3,-0.87329 3,-2" fill="none" stroke="black" stroke-linecap="round" stroke-width="5"/>
	<path d="M146,116c14.40287,0 40.41406,11.70703 53,18c3.48967,1.74483 7.09843,-4 11,-4" fill="none" stroke="black" stroke-linecap="round" stroke-width="5"/>
</svg>
