<?xml version="1.0" ?>
<svg baseProfile="full" height="300" version="1.1" viewBox="[0, 0, 300, 300]" width="300" xmlns="http://www.w3.org/2000/svg" xmlns:ev="http://www.w3.org/2001/xml-events" xmlns:xlink="http://www.w3.org/1999/xlink">
	<defs/>
	<path d="M216,108c-9.8935,0 -19.50954,10.75477 -28,15c-39.03492,19.51746 -64,75.89152 -64,119" fill="none" stroke="black" stroke-linecap="round" stroke-width="5"/>
	<path d="M197,195c-8.5342,0 -61.3271,11.6729 -68,5c-4.41527,-4.41527 -6.73139,-10.73139 -11,-15c-2.98969,-2.98969 -8.18935,-5.37871 -10,-9c-1.3419,-2.6838 -22.02602,-5.94797 -21,-8c1.73258,-3.46516 20.28346,-9.42782 25,-11c41.23232,-13.74411 44.80251,-14.19749 75,16c2.42793,2.42793 14,12.14835 14,14" fill="none" stroke="black" stroke-linecap="round" stroke-width="5"/>
	<path d="M201,187c-5.66667,-8.33333 -11.11168,-16.82178 -17,-25c-1.36338,-1.89358 -4.73633,0.56592 -7,0c-0.85637,-0.21409 -1.76128,-2.38064 -3,-3c-2.70387,-1.35193 0.7972,6.59441 -2,1c-0.75997,-1.51995 -5.24784,-7 -6,-7" fill="none" stroke="black" stroke-linecap="round" stroke-width="5"/>
	<path d="M160,151c0,-12.46161 1.776,-30.224 -6,-38c-3.76766,-3.76766 -14.82122,2.17878 -18,-1c-4.63437,-4.63437 11.92628,-25.23503 14,-28c18.46825,-24.62434 37.60182,-27.79636 52,1c3.1756,6.35119 18.07432,36.92568 12,43c-4.98104,4.98104 -18.60246,-6.39754 -23,-2c-4.08139,4.08139 -5,32.34448 -5,38" fill="none" stroke="black" stroke-linecap="round" stroke-width="5"/>
	<path d="M140,109c-19.70333,0 -19.86069,14.86069 -30,25c-3.49036,3.49036 -8.13141,4.13141 -12,8c-16.85574,16.85574 -22,60.39815 -22,85" fill="none" stroke="black" stroke-linecap="round" stroke-width="5"/>
	<path d="M147,114c0.74536,0 1,1.25464 1,2c0,10.01403 1,20.47677 1,31" fill="none" stroke="black" stroke-linecap="round" stroke-width="5"/>
</svg>
