<?xml version="1.0" ?>
<svg baseProfile="full" height="300" version="1.1" viewBox="[0, 0, 300, 300]" width="300" xmlns="http://www.w3.org/2000/svg" xmlns:ev="http://www.w3.org/2001/xml-events" xmlns:xlink="http://www.w3.org/1999/xlink">
	<defs/>
	<path d="M116,51c0,5.87877 -18.3469,39.3732 -12,43c13.26197,7.57827 60.29361,10.29942 79,12c2.32375,0.21125 5.35008,1.64992 7,0c3.67368,-3.67368 4.4656,-11.4656 8,-15c3.49045,-3.49045 24.40861,-4.65232 17,-17c-8.19753,-13.66255 -44.02515,-9.86792 -56,-15c-13.6306,-5.84169 -29.04661,-7 -42,-7" fill="none" stroke="black" stroke-linecap="round" stroke-width="5"/>
	<path d="M92,81c10.50713,0 10.88931,17 18,17" fill="none" stroke="black" stroke-linecap="round" stroke-width="5"/>
	<path d="M90,83c-18.01491,0 -60,14.17267 -60,38" fill="none" stroke="black" stroke-linecap="round" stroke-width="5"/>
	<path d="M83,131c-10.82478,0 -40,1.38836 -40,20c0,2.86703 0.49713,7.83238 4,9c18.95134,6.31711 39.79949,-4.74293 59,-2c7.72026,1.10289 13.66121,3.66121 19,9c0.66667,0.66667 2,2 2,2c0,0 4.19897,-12.39794 5,-14c18.86691,-37.73382 -76.43127,-12.43127 -84,-20" fill="none" stroke="black" stroke-linecap="round" stroke-width="5"/>
	<path d="M45,155c0,5.17113 -19.48347,17.4504 -22,25c-6.48742,19.46227 13.20993,32.62978 18,47c2.26439,6.79317 -12.91852,16.08148 -9,20c1.96792,1.96792 10.6903,-3.52374 12,-4c7.01813,-2.55205 16.81068,-2.87379 23,-7c7.70832,-5.13888 15.25764,-29.83503 25,-32c22.22252,-4.93834 35.75879,3.53015 56,1c10.92443,-1.36555 24.94971,-8.68343 36,-5c4.74692,1.58231 7.04379,4.6636 16,7c14.38501,3.75261 41.99409,0.18341 35,20c-11.84111,33.54982 -38.91231,23.43494 -65,18c-7.24388,-1.50914 -29.70949,-0.70949 -35,-6c-2.95334,-2.95334 4.98701,-6.94805 6,-11c1.98194,-7.92778 2.95806,-16.08746 5,-24c2.79902,-10.8462 14.61295,-48 27,-48" fill="none" stroke="black" stroke-linecap="round" stroke-width="5"/>
	<path d="M159,160c-9.14039,0 -18.64335,2 -28,2" fill="none" stroke="black" stroke-linecap="round" stroke-width="5"/>
	<path d="M188,109c0,2.23607 -1.87331,4.06853 -3,6c-2.9597,5.07377 -20,51.05529 -20,33" fill="none" stroke="black" stroke-linecap="round" stroke-width="5"/>
	<path d="M63,89c0,11.40433 2,24.00574 2,35" fill="none" stroke="black" stroke-linecap="round" stroke-width="5"/>
</svg>
