<?xml version="1.0" ?>
<svg baseProfile="full" height="300" version="1.1" viewBox="[0, 0, 300, 300]" width="300" xmlns="http://www.w3.org/2000/svg" xmlns:ev="http://www.w3.org/2001/xml-events" xmlns:xlink="http://www.w3.org/1999/xlink">
	<defs/>
	<path d="M98,107c0,0.33333 0.32338,0.91915 0,1c-5.26426,1.31606 -10.65262,2.07804 -16,3c-4.32057,0.74493 -8.66667,1.33333 -13,2c-15.94854,2.45362 -27.27051,3.79794 -42,7c-1.9688,0.428 -27.66641,4.0556 -22,5c2.95918,0.4932 6,0 9,0" fill="none" stroke="black" stroke-linecap="round" stroke-width="5"/>
	<path d="M18,125c4.31476,4.31476 3.6402,11.6402 8,16c2.77775,2.77775 48.88414,2 54,2c5.52782,0 24.47917,2.17361 31,0c5.76599,-1.922 3.93899,-27.06101 1,-30c-2.50276,-2.50276 -6.16977,-0.33953 -8,-4" fill="none" stroke="black" stroke-linecap="round" stroke-width="5"/>
	<path d="M40,148c-6.59289,0 -15.37705,2.2161 -2,1c17.26434,-1.56949 40.61494,4.59004 55,-5c4.82324,-3.21549 9.90184,-6.90184 14,-11c2.00048,-2.00048 2.55281,-3.77641 5,-5c1.22927,-0.61464 5.37437,-1 4,-1c-17.43007,0 -34.56409,9.81318 -49,16c-9.18385,3.93594 -19.81284,1.70321 -29,4c-2.82182,0.70545 -8,1.12246 -8,-2" fill="none" stroke="black" stroke-linecap="round" stroke-width="5"/>
	<path d="M24,146c0,31.06023 -1.97343,69.07971 7,96c0.92822,2.78467 -0.15283,8.15283 -2,10" fill="none" stroke="black" stroke-linecap="round" stroke-width="5"/>
	<path d="M106,104c-4.97913,-9.95827 -4.03478,-29.01739 -14,-34c-0.42164,-0.21082 -1,-0.5286 -1,-1c0,-1.05995 19.52127,1.71011 23,2c12.46957,1.03913 70.25998,12.25998 73,15c8.66384,8.66384 36.86598,-0.13402 45,8c1.40046,1.40046 11.0606,15.9697 7,18c-27.27955,13.63977 -83.49517,-16.3119 -113,-20c-14.91031,-1.86379 -30.0192,-1 -45,-1" fill="none" stroke="black" stroke-linecap="round" stroke-width="5"/>
	<path d="M238,111c0,26.67089 8.38812,82.63167 0,105c-1.54999,4.1333 -8.53108,38.46892 -6,41" fill="none" stroke="black" stroke-linecap="round" stroke-width="5"/>
	<path d="M216,117c9.46796,9.46796 15.59837,76.20489 11,90c-3.09139,9.27416 -10.89306,20.03754 -12,30c-1.27062,11.43556 5,20.1743 5,28" fill="none" stroke="black" stroke-linecap="round" stroke-width="5"/>
	<path d="M225,162c-17.66979,0 -36.36875,7.45625 -53,13c-9.37998,3.12666 -19.12411,7.26896 -28,10c-13.66444,4.20444 -33.13023,3.13023 -44,14c-0.58124,0.58124 1.56605,3.56605 2,4c4.60118,4.60118 13.29511,11.88195 23,8c22.93474,-9.1739 44.37016,-19.34003 70,-24c4.56174,-0.82941 34,-4.60038 34,-14" fill="none" stroke="black" stroke-linecap="round" stroke-width="5"/>
	<path d="M81,148c6.19087,12.38173 13.72008,24.64096 15,40c0.35057,4.20678 -4,34.94449 -4,23" fill="none" stroke="black" stroke-linecap="round" stroke-width="5"/>
	<path d="M106,160c0.79651,4.77907 1.38065,12.38065 5,16" fill="none" stroke="black" stroke-linecap="round" stroke-width="5"/>
	<path d="M29,204c11.79766,11.79766 101.87285,6.94857 116,5c8.79108,-1.21256 15.87175,-5.98397 24,-7c22.87654,-2.85957 46.1113,-0.45681 69,-3c4.58112,-0.50901 6.59887,0.19775 5,-3" fill="none" stroke="black" stroke-linecap="round" stroke-width="5"/>
	<path d="M88,211c2.99775,0 8.30873,33 5,33" fill="none" stroke="black" stroke-linecap="round" stroke-width="5"/>
	<path d="M63,222c3.00324,3.00324 5,11.44544 5,16" fill="none" stroke="black" stroke-linecap="round" stroke-width="5"/>
	<path d="M114,144c30.13183,0 60.4573,5.47723 91,5c12.57267,-0.19645 24.66839,-4 37,-4" fill="none" stroke="black" stroke-linecap="round" stroke-width="5"/>
</svg>
