<?xml version="1.0" ?>
<svg baseProfile="full" height="300" version="1.1" viewBox="[0, 0, 300, 300]" width="300" xmlns="http://www.w3.org/2000/svg" xmlns:ev="http://www.w3.org/2001/xml-events" xmlns:xlink="http://www.w3.org/1999/xlink">
	<defs/>
	<path d="M95,191c0,12.71469 -4.53501,25.87254 -8,38c-0.67188,2.35159 -4,16.02494 -4,15" fill="none" stroke="black" stroke-linecap="round" stroke-width="5"/>
	<path d="M100,191c4.37091,0 27.06227,21.06227 30,24c0.26939,0.26939 4.94919,0.03049 5,0c18.05773,-10.83464 37.01268,-22.50634 56,-32" fill="none" stroke="black" stroke-linecap="round" stroke-width="5"/>
	<path d="M92,188c0.4714,0 0.73851,-0.60777 1,-1c10.42954,-15.64431 39.98666,-25.99333 56,-34c0.97248,-0.48624 11.44942,10.93256 13,13c5.43335,7.24447 20.70186,13.85093 29,18" fill="none" stroke="black" stroke-linecap="round" stroke-width="5"/>
	<path d="M131,218c0,9.27756 -4,17.97874 -4,27" fill="none" stroke="black" stroke-linecap="round" stroke-width="5"/>
	<path d="M191,188c0,3 0,6 0,9c0,13.80833 -5,27.26429 -5,41c0,0.4714 -0.5286,1 -1,1" fill="none" stroke="black" stroke-linecap="round" stroke-width="5"/>
	<path d="M189,188c0,-29.15011 12.19973,-61.20109 5,-90" fill="none" stroke="black" stroke-linecap="round" stroke-width="5"/>
	<path d="M145,151c0,-13.78668 10,-26.91298 10,-40c0,-5.15671 1,-9.79381 1,-15c0,-1.02295 -1,-8.11236 -1,-6" fill="none" stroke="black" stroke-linecap="round" stroke-width="5"/>
	<path d="M159,87c0,-2.36772 5.31673,-3 7,-3c13.56163,0 39,10.45566 39,27" fill="none" stroke="black" stroke-linecap="round" stroke-width="5"/>
	<path d="M158,119c8.83386,0 6.86233,43.27535 3,51" fill="none" stroke="black" stroke-linecap="round" stroke-width="5"/>
	<path d="M186,127c0,17.71992 -17,32.96975 -17,52" fill="none" stroke="black" stroke-linecap="round" stroke-width="5"/>
</svg>
