<?xml version="1.0" ?>
<svg baseProfile="full" height="300" version="1.1" viewBox="[0, 0, 300, 300]" width="300" xmlns="http://www.w3.org/2000/svg" xmlns:ev="http://www.w3.org/2001/xml-events" xmlns:xlink="http://www.w3.org/1999/xlink">
	<defs/>
	<path d="M92,159c-15.0275,0 -39.67668,11.43109 -25,31c0.40984,0.54645 6.73337,0 7,0c2.49289,0 5.92641,2.53679 9,1c0.59628,-0.29814 0,-1.33333 0,-2c0,-5.78319 -4.34264,-10.65736 1,-16c5.24058,-5.24058 8.25101,7.25101 9,8c0.52033,0.52033 0,3.15447 0,4c0,19.21137 -10,29.16747 -10,48c0,11.29174 3.38221,20.52886 6,31c1.18958,4.75833 -2.30962,16.69038 1,20c1.58312,1.58312 10.50042,-0.50042 11,-1c1.34942,-1.34942 4.84565,-0.69131 6,-3c4.25642,-8.51284 -1,-57.11218 -1,-70c0,-0.94832 -0.60389,-5.39611 0,-6c1.2693,-1.2693 3.39445,1.19723 5,2c12.50315,6.25157 35.61738,14.61738 43,22c0.2357,0.2357 0.7643,0.2357 1,0c8.82013,-8.82013 3.86331,-42.13669 -2,-48c-12.08973,-12.08973 -29.515,20 -14,20c0.43532,0 5.48007,2.51993 7,1c3.59899,-3.59899 -0.12785,-14.12785 1,-13c11.06064,11.06064 0.76682,40.46636 -4,50c-3.27409,6.54817 3.31265,12.93794 5,18c2.67501,8.02503 3,15.62955 3,25c0,1.86084 -4,10.72513 -4,8" fill="none" stroke="black" stroke-linecap="round" stroke-width="5"/>
	<path d="M159,224c-1.20185,0 -2,1.79815 -2,3c0,18.91442 3,36.46427 3,55c0,1.66428 0.77613,6 -1,6" fill="none" stroke="black" stroke-linecap="round" stroke-width="5"/>
	<path d="M148,287c2,0 4,0 6,0" fill="none" stroke="black" stroke-linecap="round" stroke-width="5"/>
	<path d="M151,287c1.83202,0 8,0.79819 8,-1" fill="none" stroke="black" stroke-linecap="round" stroke-width="5"/>
	<path d="M104,201c15.02167,0 26.40176,-21.80353 32,-33c2.18546,-4.37092 -0.56322,-11.31033 1,-16c0.30883,-0.92648 2.37543,-9.62457 2,-10c-0.31055,-0.31055 -9.96244,5.32081 -12,6c-4.92926,1.64309 -19.11543,5.11543 -22,8c-5.09678,5.09678 -8.17008,13.17008 -13,18c-0.52705,0.52705 -1.25464,1 -2,1" fill="none" stroke="black" stroke-linecap="round" stroke-width="5"/>
	<path d="M155,226c3.41546,0 28,-2.0217 28,-7" fill="none" stroke="black" stroke-linecap="round" stroke-width="5"/>
	<path d="M178,222c8.63333,0 5.28047,-31 15,-31" fill="none" stroke="black" stroke-linecap="round" stroke-width="5"/>
	<path d="M139,166c16.49568,0 34.52958,24 51,24" fill="none" stroke="black" stroke-linecap="round" stroke-width="5"/>
	<path d="M148,164c0,-8.49231 8.42902,-21.14195 4,-30c-1.32127,-2.64253 -6.5457,-19.4543 -4,-22c9.59276,-9.59276 41.12401,28 45,28" fill="none" stroke="black" stroke-linecap="round" stroke-width="5"/>
	<path d="M188,139c0,8.72353 -6.40272,18.20816 -9,26c-2.74005,8.22014 3,15.06177 3,22" fill="none" stroke="black" stroke-linecap="round" stroke-width="5"/>
	<path d="M147,97c-7.44611,0 -26.01258,-2.97484 -20,-15c1.40395,-2.80789 7.7231,-0.86155 10,-2c19.91997,-9.95999 41.56169,0.67126 58,13c3.80797,2.85598 21.75633,22.24367 16,28c-17.8942,17.8942 -69,-19.8303 -69,-24" fill="none" stroke="black" stroke-linecap="round" stroke-width="5"/>
</svg>
