<?xml version="1.0" ?>
<svg baseProfile="full" height="300" version="1.1" viewBox="[0, 0, 300, 300]" width="300" xmlns="http://www.w3.org/2000/svg" xmlns:ev="http://www.w3.org/2001/xml-events" xmlns:xlink="http://www.w3.org/1999/xlink">
	<defs/>
	<path d="M159,224c-1.20185,0 -2,1.79815 -2,3c0,18.91442 3,36.46427 3,55c0,1.66428 0.77613,6 -1,6" fill="none" stroke="black" stroke-linecap="round" stroke-width="5"/>
	<path d="M148,287c2,0 4,0 6,0" fill="none" stroke="black" stroke-linecap="round" stroke-width="5"/>
	<path d="M151,287c1.83202,0 8,0.79819 8,-1" fill="none" stroke="black" stroke-linecap="round" stroke-width="5"/>
	<path d="M104,201c15.02167,0 26.40176,-21.80353 32,-33c2.18546,-4.37092 -0.56322,-11.31033 1,-16c0.30883,-0.92648 2.37543,-9.62457 2,-10c-0.31055,-0.31055 -9.96244,5.32081 -12,6c-4.92926,1.64309 -19.11543,5.11543 -22,8c-5.09678,5.09678 -8.17008,13.17008 -13,18c-0.52705,0.52705 -1.25464,1 -2,1" fill="none" stroke="black" stroke-linecap="round" stroke-width="5"/>
	<path d="M90,158c0,-3.91866 43.149,-27.149 46,-30c0.80955,-0.80955 0,-6.72812 0,-8c0,-32.17114 -52.96143,-5.07714 -33,-45c4.14811,-8.29621 53.80895,-14.59553 61,-11c12.42569,6.21284 27.10155,11.10155 37,21c4.537,4.537 21.30159,22.39682 17,31c-5.63981,11.27963 -14.08406,10.16812 -20,22c-6.20323,12.40645 -5,33.60368 -5,48c0,16.50918 1.7149,33.0043 4,49c0.52163,3.65143 3.6692,47.3308 2,49c-0.65111,0.65111 -5.83488,0.41744 -7,1c-4.2623,2.13115 -4.98971,-1.98971 -7,-4c-7.71904,-7.71904 0,-42.08891 0,-56c0,-1.64573 -0.40077,-4 -2,-4" fill="none" stroke="black" stroke-linecap="round" stroke-width="5"/>
	<path d="M155,226c3.41546,0 28,-2.0217 28,-7" fill="none" stroke="black" stroke-linecap="round" stroke-width="5"/>
	<path d="M178,222c8.63333,0 5.28047,-31 15,-31" fill="none" stroke="black" stroke-linecap="round" stroke-width="5"/>
	<path d="M139,166c16.49568,0 34.52958,24 51,24" fill="none" stroke="black" stroke-linecap="round" stroke-width="5"/>
	<path d="M148,164c0,-8.49231 8.42902,-21.14195 4,-30c-1.32127,-2.64253 -6.5457,-19.4543 -4,-22c9.59276,-9.59276 41.12401,28 45,28" fill="none" stroke="black" stroke-linecap="round" stroke-width="5"/>
	<path d="M188,139c0,8.72353 -6.40272,18.20816 -9,26c-2.74005,8.22014 3,15.06177 3,22" fill="none" stroke="black" stroke-linecap="round" stroke-width="5"/>
	<path d="M147,97c-7.44611,0 -26.01258,-2.97484 -20,-15c1.40395,-2.80789 7.7231,-0.86155 10,-2c19.91997,-9.95999 41.56169,0.67126 58,13c3.80797,2.85598 21.75633,22.24367 16,28c-17.8942,17.8942 -69,-19.8303 -69,-24" fill="none" stroke="black" stroke-linecap="round" stroke-width="5"/>
</svg>
