<?xml version="1.0" ?>
<svg baseProfile="full" height="300" version="1.1" viewBox="[0, 0, 300, 300]" width="300" xmlns="http://www.w3.org/2000/svg" xmlns:ev="http://www.w3.org/2001/xml-events" xmlns:xlink="http://www.w3.org/1999/xlink">
	<defs/>
	<path d="M98,269c19.50783,0 37.53564,-10.70533 56,-17c12.00659,-4.09316 26.8739,-53.72067 21,-64c-6.79019,-11.88283 -23.43594,-17.07695 -34,-25c-4.9859,-3.73942 -11.71235,-15.23745 -17,-17c-18.32329,-6.10776 -64.02688,43.0168 -80,53c-8.52485,5.32803 -29.72797,7.36784 -27,-9c2.04674,-12.28042 9.62625,-22.13125 12,-34c2.10188,-10.50938 -6.41804,-27.58196 1,-35c1.14538,-1.14538 1.12727,-2.993 2,-4c10.04464,-11.58997 17.78662,-26.21355 31,-34c15.23217,-8.9761 49.7897,-25.19313 69,-38c6.23479,-4.15652 12.03504,-11.01168 18,-13c22.22586,-7.40862 35.92157,11.48039 54,16c19.01086,4.75272 41.53048,21.59145 48,41c10.21533,30.64598 -85.66337,63.77888 -109,56c-25.55941,-8.5198 -52.89099,-29.26066 -75,-44c-2.49036,-1.66024 -5.71878,-5.43755 -7,-8c-0.80696,-1.61392 1.38279,-6 -1,-6" fill="none" stroke="black" stroke-linecap="round" stroke-width="5"/>
	<path d="M100,275c0,-15.18393 1.42009,-109.42009 3,-111c14.6275,-14.6275 45.15275,-4.15275 59,-18" fill="none" stroke="black" stroke-linecap="round" stroke-width="5"/>
	<path d="M158,35c7.11701,-7.11701 -7.13454,-31.33388 -13,-34c-4.56383,-2.07447 -15.20535,4.30134 -18,5c-12.41585,3.10396 -25.66239,3.1445 -38,7c-12.43811,3.88691 -54,34.41091 -54,43" fill="none" stroke="black" stroke-linecap="round" stroke-width="5"/>
</svg>
