<?xml version="1.0" ?>
<svg baseProfile="full" height="300" version="1.1" viewBox="[0, 0, 300, 300]" width="300" xmlns="http://www.w3.org/2000/svg" xmlns:ev="http://www.w3.org/2001/xml-events" xmlns:xlink="http://www.w3.org/1999/xlink">
	<defs/>
	<path d="M73,273c7.64421,-15.28841 2.31349,-126.32553 2,-142c-0.15009,-7.50438 -6.38583,-41.61417 0,-48c14.65765,-14.65765 46.98129,-19.1246 66,-28c21.42359,-9.99767 37.17221,-13 61,-13c22.60412,0 50.2727,-1.32956 70,11c25.56254,15.97659 -2.17556,47.13686 -14,61c-20.51252,24.04916 -54.79962,10.44991 -81,17c-1.6169,0.40423 0.12783,3.33824 0,5c-0.90804,11.80447 -3.34008,23.38059 -5,35c-5.58593,39.10152 -4,78.58796 -4,118" fill="none" stroke="black" stroke-linecap="round" stroke-width="5"/>
	<path d="M276,174c0,-14.14142 2.68657,-28.94522 1,-43c-3.52149,-29.34572 -14.88648,-50.34055 -5,-80" fill="none" stroke="black" stroke-linecap="round" stroke-width="5"/>
	<path d="M174,184c7.853,0 103,-35.06699 103,-53" fill="none" stroke="black" stroke-linecap="round" stroke-width="5"/>
	<path d="M210,123c0,11.94282 1.53614,28.92772 -4,40" fill="none" stroke="black" stroke-linecap="round" stroke-width="5"/>
	<path d="M239,129c0,3.12505 -1.95282,25 2,25" fill="none" stroke="black" stroke-linecap="round" stroke-width="5"/>
	<path d="M256,117c0.91733,2.75199 9.15073,31 6,31" fill="none" stroke="black" stroke-linecap="round" stroke-width="5"/>
	<path d="M73,153c8.09798,0 15.48105,12.48105 20,17c2.76252,2.76252 75,66.87578 75,67" fill="none" stroke="black" stroke-linecap="round" stroke-width="5"/>
	<path d="M97,138c27.21671,30.48272 41.19618,43.66454 76,63c10.4622,5.81234 20.69297,12.81578 31,19c0.0655,0.0393 5.40976,3 2,3" fill="none" stroke="black" stroke-linecap="round" stroke-width="5"/>
	<path d="M86,152c0,-8.4457 38.68357,-33.02258 47,-37c30.52494,-14.59888 80.07987,-30.66193 109,-7c5.69182,4.65694 6.38606,12.61708 11,18c5.68999,6.63832 12,13.42991 12,23" fill="none" stroke="black" stroke-linecap="round" stroke-width="5"/>
</svg>
