<?xml version="1.0" ?>
<svg baseProfile="full" height="300" version="1.1" viewBox="[0, 0, 300, 300]" width="300" xmlns="http://www.w3.org/2000/svg" xmlns:ev="http://www.w3.org/2001/xml-events" xmlns:xlink="http://www.w3.org/1999/xlink">
	<defs/>
	<path d="M91,147c0,13.52902 -5.16553,25.49658 -9,37c-3.21822,9.65466 -2.37234,54.51064 0,64c0.18664,0.74654 1.12191,3.56095 2,4c3.69003,1.84502 12.31396,-11.20931 15,-13c6.96339,-4.64226 17.54365,-10.57275 22,-18c8.08259,-13.47098 4.38937,-28.97343 10,-43c0.85014,-2.12536 11.08974,-24.63675 13,-24c2.68328,0.89443 4,4 6,6c19.80008,19.80008 41.43483,37.82612 63,54c1.32372,0.99279 1.56461,3.49438 1,5c-3.53588,9.42901 -50.08047,64.45977 -61,59c-3.4988,-1.7494 -1,-23.78713 -1,-27c0,-14.99378 0.12186,-57.24372 7,-71c1.3219,-2.64381 50.53708,-33.26854 62,-39c0.54498,-0.27249 4,-0.97994 4,-2c0,-0.19142 -11.03822,0.32059 -12,0c-10.92334,-3.64111 -24.78125,-5.89062 -35,-11c-17.57644,-8.78822 -28.69404,-22.69404 -42,-36c-1.20185,-1.20185 -3.30033,1 -5,1c-3.42756,0 -11.47171,-2.26415 -14,-1c-3.99415,1.99708 -35.36468,35.54701 -39,41c-2.23416,3.35123 7.20696,3.64534 11,5c8.51829,3.04225 16.54752,6.61901 25,10c24.14944,9.65978 43.14574,17.14574 61,35" fill="none" stroke="black" stroke-linecap="round" stroke-width="5"/>
</svg>
