<?xml version="1.0" ?>
<svg baseProfile="full" height="300" version="1.1" viewBox="[0, 0, 300, 300]" width="300" xmlns="http://www.w3.org/2000/svg" xmlns:ev="http://www.w3.org/2001/xml-events" xmlns:xlink="http://www.w3.org/1999/xlink">
	<defs/>
	<path d="M113,53c-5.0736,5.0736 -1.74513,20.23538 -4,27c-1.6659,4.9977 -16.03893,54.96107 -13,58c4.56492,4.56492 113.11411,37.44294 126,31c0.89443,-0.44721 0,-2 0,-3c0,-10.73941 1.82057,-21.38513 3,-32c0.91262,-8.21362 13.61398,-33.77204 10,-41c-4.83205,-9.6641 -58.74237,-25.27608 -71,-28c-16.36212,-3.63603 -34.7094,-2.90313 -50,-8c-2.07293,-0.69098 -3,-2.31279 -3,1" fill="none" stroke="black" stroke-linecap="round" stroke-width="5"/>
	<path d="M99,140c-11.96327,0 -32.5533,2.77665 -43,8c-6.03099,3.01549 -12.81899,9 -19,9c-1.69967,0 3.64026,-0.0198 5,1c2.14994,1.61245 4.5963,2.79815 7,4c8.5517,4.27585 19.32399,6.88266 27,12c28.81663,19.21109 65.38654,18.51621 97,14c8.79512,-1.25645 20.56512,-6.93277 29,-10c3.0598,-1.11265 19.46154,-5 16,-5" fill="none" stroke="black" stroke-linecap="round" stroke-width="5"/>
	<path d="M116,56c2.14773,-2.14773 1.85563,-9.92781 4,-11c1.90752,-0.95376 6.82008,0 9,0c6.50497,0 10.14107,4.28527 17,6c26.06905,6.51726 64.00449,23 89,23c0.66667,0 1.5286,-0.4714 2,0c2.61569,2.61569 -3.99011,16.98023 -5,19" fill="none" stroke="black" stroke-linecap="round" stroke-width="5"/>
	<path d="M32,142c0,7.11166 9.61826,18.70957 11,27c5.27478,31.64866 7,62.86634 7,95" fill="none" stroke="black" stroke-linecap="round" stroke-width="5"/>
	<path d="M146,189c2.63332,0 2.6438,2.58576 2,5c-6.30677,23.6504 -19.4294,42.87036 -21,68c-0.30031,4.80498 -1.76979,30.53958 1,25" fill="none" stroke="black" stroke-linecap="round" stroke-width="5"/>
	<path d="M214,175c5.34374,0 1,10.65626 1,16c0,25 0,50 0,75" fill="none" stroke="black" stroke-linecap="round" stroke-width="5"/>
</svg>
