<?xml version="1.0" ?>
<svg baseProfile="full" height="300" version="1.1" viewBox="[0, 0, 300, 300]" width="300" xmlns="http://www.w3.org/2000/svg" xmlns:ev="http://www.w3.org/2001/xml-events" xmlns:xlink="http://www.w3.org/1999/xlink">
	<defs/>
	<path d="M98,83c0,-34.27156 27.28988,-52.11726 59,-55c9.68123,-0.88011 36.94458,-3.74939 40,10c5.44932,24.52196 1.07634,43.96946 -24,54c-8.73054,3.49222 -18.10644,2.48516 -25,8c-8.14039,6.51231 2.11515,31.94242 -6,36c-4.58193,2.29096 -14.01655,-5.50621 -18,-7c-6.63283,-2.48731 -13.43715,-2.43715 -18,-7c-4.4773,-4.4773 1.85817,-22.14183 -3,-27c-9.06497,-9.06497 -15,-4.39603 -15,-19" fill="none" stroke="black" stroke-linecap="round" stroke-width="5"/>
	<path d="M94,76c-15.06017,0 -33.57849,-3.60538 -48,0c-28.63793,7.15948 -46,46.76232 -46,73c0,8.98674 -6.07441,98.80581 11,86" fill="none" stroke="black" stroke-linecap="round" stroke-width="5"/>
	<path d="M181,91c12.13347,24.26694 8.13298,83.39894 19,116" fill="none" stroke="black" stroke-linecap="round" stroke-width="5"/>
	<path d="M183,116c-6.65942,0 -12.27357,3.09119 -18,5c-27.72573,9.24191 -15.44245,17.21227 -21,45c-2.33848,11.69238 -3,21.90939 -3,34c0,3.18646 1.05609,4 -2,4" fill="none" stroke="black" stroke-linecap="round" stroke-width="5"/>
	<path d="M141,134c-7.69223,-3.84612 -8.3572,-13.38395 -18,-17c-17.04523,-6.39196 -36.11097,-5.88886 -54,-9c-7.71913,-1.34246 -21.85429,-5.90952 -23,-4c-4.02241,6.70401 -3.2007,21.80634 -4,29c-0.55138,4.96241 -7.70963,39.29037 -6,41c3.2312,3.2312 29.63004,0 34,0c12.10611,0 46.57185,9.42815 58,-2c10.00019,-10.00019 0.26693,-33.26693 12,-45" fill="none" stroke="black" stroke-linecap="round" stroke-width="5"/>
	<path d="M44,179c1.99336,-1.99336 1.69931,3.89519 2,6c1.61038,11.27268 3,22.09002 3,34" fill="none" stroke="black" stroke-linecap="round" stroke-width="5"/>
</svg>
