<?xml version="1.0" ?>
<svg baseProfile="full" height="300" version="1.1" viewBox="[0, 0, 300, 300]" width="300" xmlns="http://www.w3.org/2000/svg" xmlns:ev="http://www.w3.org/2001/xml-events" xmlns:xlink="http://www.w3.org/1999/xlink">
	<defs/>
	<path d="M101,50c-1.84669,0 -1,25.52466 -1,29c0,12.875 -7,28.92771 -7,42" fill="none" stroke="black" stroke-linecap="round" stroke-width="5"/>
	<path d="M154,57c0,44.11328 7,88.68207 7,134" fill="none" stroke="black" stroke-linecap="round" stroke-width="5"/>
	<path d="M90,114c0,20.5417 -1,42.77129 -1,64c0,1.66526 -0.81051,8 1,8" fill="none" stroke="black" stroke-linecap="round" stroke-width="5"/>
	<path d="M90,110c28.93237,0 52.23608,13 84,13" fill="none" stroke="black" stroke-linecap="round" stroke-width="5"/>
	<path d="M86,143c0,3.06499 4.20593,3.60296 7,5c17.38393,8.69196 53.8981,27 74,27" fill="none" stroke="black" stroke-linecap="round" stroke-width="5"/>
	<path d="M91,95c31.68819,0 45.89853,10 76,10" fill="none" stroke="black" stroke-linecap="round" stroke-width="5"/>
	<path d="M62,175c18.0959,0 32.71091,18 49,18c2.47494,0 2.93341,-0.06659 4,1c3.24771,3.24771 55.18437,0.4469 51,13c-14.73323,44.19969 -36.67187,27.44271 -71,16c-4.92041,-1.64014 -36.78494,-3.56987 -38,-6c-4.7185,-9.437 6.62737,-33 12,-33" fill="none" stroke="black" stroke-linecap="round" stroke-width="5"/>
	<path d="M70,209c-6.51232,0 -9,39.81971 -9,48" fill="none" stroke="black" stroke-linecap="round" stroke-width="5"/>
	<path d="M135,228c0,2.25762 -3.53546,12.07091 -5,15c-4.70754,9.41507 0,33.35586 0,44" fill="none" stroke="black" stroke-linecap="round" stroke-width="5"/>
	<path d="M171,220c-21.11869,0 -20,29.99511 -20,50" fill="none" stroke="black" stroke-linecap="round" stroke-width="5"/>
	<path d="M81,227c0,2.03204 7.08402,7.08402 8,8c5.0532,5.0532 3,22.49373 3,31" fill="none" stroke="black" stroke-linecap="round" stroke-width="5"/>
	<path d="M123,259c-7.67943,0 -19.13883,-4.13883 -24,-9c-3.19849,-3.19849 -25.02623,-2 -30,-2" fill="none" stroke="black" stroke-linecap="round" stroke-width="5"/>
	<path d="M109,273c0,-0.74536 -1.47295,-0.47295 -2,-1c-5.5622,-5.5622 -24.41034,-14 -36,-14c-1.58004,0 -5,0.75655 -5,-1" fill="none" stroke="black" stroke-linecap="round" stroke-width="5"/>
	<path d="M143,251c-1.5828,0 -29,20.9625 -29,21" fill="none" stroke="black" stroke-linecap="round" stroke-width="5"/>
	<path d="M148,265c-6.17101,0 -25,-2.78142 -25,5" fill="none" stroke="black" stroke-linecap="round" stroke-width="5"/>
	<path d="M145,55c0,3.90249 18,16.11063 18,7c0,-2.36036 0.54955,-3 -2,-3c-2.9281,0 -5.16208,-2 -10,-2" fill="none" stroke="black" stroke-linecap="round" stroke-width="5"/>
	<path d="M97,52c6.3456,0 12.5377,1.0754 9,-6c-1.9934,-3.98679 -11,12.1111 -11,14" fill="none" stroke="black" stroke-linecap="round" stroke-width="5"/>
</svg>
