<?xml version="1.0" ?>
<svg baseProfile="full" height="300" version="1.1" viewBox="[0, 0, 300, 300]" width="300" xmlns="http://www.w3.org/2000/svg" xmlns:ev="http://www.w3.org/2001/xml-events" xmlns:xlink="http://www.w3.org/1999/xlink">
	<defs/>
	<path d="M45,114c6.32116,6.32116 2,86.08834 2,99c0,6.27255 3.40304,43.59696 2,45c-1.94377,1.94377 -3,-2.13041 -3,-3" fill="none" stroke="black" stroke-linecap="round" stroke-width="5"/>
	<path d="M47,114c6.13031,0 12.45996,-5.69199 19,-7c28.0846,-5.61692 59.32086,-24 87,-24" fill="none" stroke="black" stroke-linecap="round" stroke-width="5"/>
	<path d="M150,74c0,13.35999 -16.98805,93.01195 -14,96c1.64992,1.64992 4.72223,-0.50617 7,0c6.33233,1.40718 10.6558,9.53116 18,11c14.69318,2.93864 32.05591,1 47,1c4.33203,0 14.91571,2.04215 19,0c0.36631,-0.18316 9.54836,-37.38686 10,-41c1.26245,-10.09959 7.89587,-37.20825 3,-47c-2.45031,-4.90063 -81.14873,-23 -90,-23" fill="none" stroke="black" stroke-linecap="round" stroke-width="5"/>
	<path d="M247,118c0,1.47307 -8.93561,3.31187 -11,4c-27.03457,9.01152 -55.77747,23.94437 -84,31c-2.06732,0.51683 -7.81748,-1.36504 -9,1c-2.12923,4.25847 3,100.88336 3,118" fill="none" stroke="black" stroke-linecap="round" stroke-width="5"/>
	<path d="M241,126c0,46.8205 -8,92.83301 -8,140" fill="none" stroke="black" stroke-linecap="round" stroke-width="5"/>
	<path d="M215,179c4.35915,0 -12.39055,6.54882 -16,7c-11.67007,1.45876 -27.10485,2.64194 -38,7c-6.89271,2.75709 -18.09386,8.09386 -22,12c-4.70596,4.70596 -52.24008,-15.06859 -59,-17c-11.92544,-3.40727 -21.69025,-9.84512 -32,-15c-0.07965,-0.03983 -3,-1 -3,-1c0,0 7.69786,0.15107 8,0c10.77844,-5.38922 31.37576,-5.89596 44,-8c34.30271,-5.71712 59.78042,2.08671 95,6c14.47552,1.60839 29.59108,9 44,9" fill="none" stroke="black" stroke-linecap="round" stroke-width="5"/>
	<path d="M50,211c25.84933,0 71.30498,7.30498 90,26" fill="none" stroke="black" stroke-linecap="round" stroke-width="5"/>
</svg>
