<?xml version="1.0" ?>
<svg baseProfile="full" height="300" version="1.1" viewBox="[0, 0, 300, 300]" width="300" xmlns="http://www.w3.org/2000/svg" xmlns:ev="http://www.w3.org/2001/xml-events" xmlns:xlink="http://www.w3.org/1999/xlink">
	<defs/>
	<path d="M27,230c0,-17.66557 -3.54122,-82.02581 2,-92c4.4964,-8.09352 14.79944,-18.79944 19,-23c1.49071,-1.49071 4,-1.33333 6,-2c4.87648,-1.62549 9.43634,-0.71817 14,-3c2,-1 1,-5 3,-6c4.62958,-2.31479 37.27189,-17.15208 42,-14c0.78281,0.52187 -2,37.78605 -2,41" fill="none" stroke="black" stroke-linecap="round" stroke-width="5"/>
	<path d="M111,87c0,-16.91907 34.40691,-55.59309 53,-37c1.33333,1.33333 6.66667,-1.33333 8,0c12.61257,12.61257 14,30.65736 14,53" fill="none" stroke="black" stroke-linecap="round" stroke-width="5"/>
	<path d="M186,103c0,14.9744 -5.15361,40.25704 0,54c2.91051,7.76135 9.22964,5.45929 12,11c5.2561,10.5122 0,35.90479 0,48" fill="none" stroke="black" stroke-linecap="round" stroke-width="5"/>
	<path d="M109,267c0,-12.93622 -0.62706,-82.37294 4,-87c2.52599,-2.52599 11.82855,-5.82855 14,-8c13.64162,-13.64162 33.76378,-40 54,-40" fill="none" stroke="black" stroke-linecap="round" stroke-width="5"/>
	<path d="M30,172c18.33738,0 53.16627,-3.27791 69,2c1.58114,0.52705 -1.17851,3.82149 0,5c1.94627,1.94627 13.44486,14 14,14" fill="none" stroke="black" stroke-linecap="round" stroke-width="5"/>
	<path d="M26,169c12.68708,0 63.80893,-30.67039 79,-37c3.6361,-1.51504 5,-1.4364 5,-5" fill="none" stroke="black" stroke-linecap="round" stroke-width="5"/>
	<path d="M111,90c22.11624,0 19,22.86556 19,41" fill="none" stroke="black" stroke-linecap="round" stroke-width="5"/>
	<path d="M153,131c27.20868,0 9.10675,-44 33,-44" fill="none" stroke="black" stroke-linecap="round" stroke-width="5"/>
	<path d="M120,131c13.73604,0 27.35519,-1 41,-1" fill="none" stroke="black" stroke-linecap="round" stroke-width="5"/>
	<path d="M108,141c3.66667,0 7.33333,0 11,0c1.66667,0 3,2.33333 3,4c0,15.47302 -17.4491,6.34729 -22,20c-1.58915,4.76746 11.40424,-7.89364 8,-13c-2.9584,-4.4376 -11.5624,2.9584 -16,0c-0.92308,-0.61538 -6.07692,1.61538 -3,-3c2.67266,-4.009 8.8559,-3.61863 13,-5c6.64565,-2.21522 11.84475,-11.28158 20,-14c3.16228,-1.05409 0,6.66667 0,10c0,4.09371 -11.62036,17 -16,17c-4.6428,0 10.92368,-0.84736 13,-5c0.5,-1 -1.5,-6 3,-3c1.38675,0.9245 -1.42915,4.14251 0,5c5.35097,3.21058 15.06596,-6.13193 17,-10c0.29814,-0.59628 -2,0.66667 -2,0" fill="none" stroke="black" stroke-linecap="round" stroke-width="5"/>
	<path d="M137,84c3.3159,0 -4.30578,21.89956 -3,22c8.84535,0.68041 36.52736,-13.16415 38,-22c1.99525,-11.97148 -15.07249,-24.27696 -27,-15c-1.91896,1.49253 -0.91383,23.25852 0,26c0.86923,2.60768 5.33333,-1.33333 8,-2c6.6836,-1.6709 -4.09009,-20 8,-20c1.79505,0 -1.07645,3.46075 -2,5c-1.88175,3.13625 -5,6.89274 -5,14c0,1.69967 0.23988,-3.47977 1,-5c1.27366,-2.54733 3,-5.152 3,-8c0,-3.33333 0,6.66667 0,10c0,4.44722 -1.219,-11.59367 3,-13c1.58114,-0.52705 0,3.33333 0,5c0,11.16425 -15.87745,21.50196 -24,28c-4.26907,3.41525 7.53293,-10 13,-10c0.66667,0 -1.40372,-0.29814 -2,0c-3.33333,1.66667 2,14.72678 2,11" fill="none" stroke="black" stroke-linecap="round" stroke-width="5"/>
	<path d="M103,157c4.33333,-0.66667 8.76004,-0.88422 13,-2c2.15324,-0.56664 7.75082,-6.24918 8,-6c2.1526,2.1526 -4,8.49685 -4,11" fill="none" stroke="black" stroke-linecap="round" stroke-width="5"/>
</svg>
